<?xml version="1.0" encoding="UTF-8" standalone="no"?>
<!-- Created with Inkscape (http://www.inkscape.org/) -->

<svg
   xmlns:dc="http://purl.org/dc/elements/1.1/"
   xmlns:cc="http://creativecommons.org/ns#"
   xmlns:rdf="http://www.w3.org/1999/02/22-rdf-syntax-ns#"
   xmlns:svg="http://www.w3.org/2000/svg"
   xmlns="http://www.w3.org/2000/svg"
   xmlns:sodipodi="http://sodipodi.sourceforge.net/DTD/sodipodi-0.dtd"
   xmlns:inkscape="http://www.inkscape.org/namespaces/inkscape"
   version="1.1"
   id="svg2"
   xml:space="preserve"
   width="386.35147"
   height="462.7655"
   viewBox="0 0 386.35147 462.76551"
   sodipodi:docname="eeg_cap.svg"
   inkscape:version="0.92.5 (2060ec1f9f, 2020-04-08)"><metadata
     id="metadata8"><rdf:RDF><cc:Work
         rdf:about=""><dc:format>image/svg+xml</dc:format><dc:type
           rdf:resource="http://purl.org/dc/dcmitype/StillImage" /><dc:title></dc:title></cc:Work></rdf:RDF></metadata><defs
     id="defs6" /><sodipodi:namedview
     pagecolor="#ffffff"
     bordercolor="#666666"
     borderopacity="1"
     objecttolerance="10"
     gridtolerance="10"
     guidetolerance="10"
     inkscape:pageopacity="0"
     inkscape:pageshadow="2"
     inkscape:window-width="1920"
     inkscape:window-height="978"
     id="namedview4"
     showgrid="false"
     inkscape:zoom="0.62989326"
     inkscape:cx="195.3438"
     inkscape:cy="79.528601"
     inkscape:window-x="0"
     inkscape:window-y="26"
     inkscape:window-maximized="1"
     inkscape:current-layer="g12"
     fit-margin-top="0"
     fit-margin-left="0"
     fit-margin-right="0"
     fit-margin-bottom="0" /><g
     id="g10"
     inkscape:groupmode="layer"
     inkscape:label="ink_ext_XXXXXX"
     transform="matrix(1.3333333,0,0,-1.3333333,0.03327285,374.66912)"><g
       id="g12"
       transform="matrix(0.12576058,0,0,0.12539721,-2.4056562,-68.994443)"
       style="stroke-width:0.79631299"><path
         d="m 1095.62,2717.15 c -393.741,5.62 -811.64,-216.8 -949.018,-599.85 -78.5122,-204.6 -63.7504,-431.68 -1.954,-638.47 68.903,-299.65 99.801,-635.9 322.192,-869.182 200.191,-191.41 481.012,-253.949 723.9,-372.699 210.51,-119.019 471.37,-189.9607 705.31,-96.328 82,42.27 203.83,96.449 199.61,204.649 14.81,129.851 -36.52,251.839 -88,367.82 -57.35,149.18 -113.13,333.9 -11.84,477.65 79.18,148.87 229.84,269.69 242.42,446.64 -3.98,124.34 31.53,251.1 -14.61,372 -93.51,283.74 -350.74,478.35 -611.87,600.42 -162.03,71.33 -339.14,107.54 -516.1,107.35 l 6.53,0.04 z"
         style="fill:#fbfdff;fill-opacity:1;fill-rule:nonzero;stroke:none;stroke-width:0.79631299"
         id="path14"
         inkscape:connector-curvature="0" /><path
         d="m 1095.62,2717.15 c -393.741,5.62 -811.64,-216.8 -949.018,-599.85 -78.5122,-204.6 -63.7504,-431.68 -1.954,-638.47 68.903,-299.65 99.801,-635.9 322.192,-869.182 200.191,-191.41 481.012,-253.949 723.9,-372.699 210.51,-119.019 471.37,-189.9607 705.31,-96.328 82,42.27 203.83,96.449 199.61,204.649 14.81,129.851 -36.52,251.839 -88,367.82 -57.35,149.18 -113.13,333.9 -11.84,477.65 79.18,148.87 229.84,269.69 242.42,446.64 -3.98,124.34 31.53,251.1 -14.61,372 -93.51,283.74 -350.74,478.35 -611.87,600.42 -162.03,71.33 -339.14,107.54 -516.1,107.35 l 6.53,0.04 z"
         style="fill:none;stroke:#ffffff;stroke-width:147.69136047;stroke-linecap:butt;stroke-linejoin:miter;stroke-miterlimit:4;stroke-dasharray:none;stroke-opacity:1"
         id="path16"
         inkscape:connector-curvature="0" /><path
         d="M 614.02,1332.46 C 586.371,1439.49 500.859,1458.83 425.98,1416.45 324.961,1359.26 281.988,1229.14 325.078,1122.85 364.219,1026.21 414.77,934.648 469.18,846.41 512.422,776.289 603.629,710.82 687.699,745.43 768.949,778.871 792.66,855 742.191,960.23 691.719,1065.51 641.68,1225.39 614.02,1332.46 Z M 2089.92,284.73 C 1902.23,47.3789 1542.11,58.2813 1280.12,193.48 1041.29,316.68 817.66,375.859 602.461,503.711 235.621,721.602 221.129,1193.2 123.711,1568.28 44.9609,1871.33 117.379,2195 336.801,2415.51 699.41,2779.92 1289.92,2798.67 1721.33,2555.2 2010,2392.27 2290.74,2079.1 2239.3,1725.51 l -18.56,-5.51 c -55.47,-24.53 -103.36,-64.53 -160.82,-86.41 -300.9,-168.04 -701.72,-147.42 -953.9,-322.34 C 949.34,1199.77 859.379,984.02 933.871,799.219 1104.69,449.102 1614.84,70.5898 1954.61,227.621 c 16.95,7.379 33.48,16.359 49.02,26.867 15.55,10.473 30.16,22.461 43.21,35.782 13.04,13.32 44.1,61.531 53.55,77.39 z"
         style="fill:#fbfdff;fill-opacity:1;fill-rule:nonzero;stroke:none;stroke-width:0.79631299"
         id="path18"
         inkscape:connector-curvature="0" /><path
         d="M 614.02,1332.46 C 586.371,1439.49 500.859,1458.83 425.98,1416.45 324.961,1359.26 281.988,1229.14 325.078,1122.85 364.219,1026.21 414.77,934.648 469.18,846.41 512.422,776.289 603.629,710.82 687.699,745.43 768.949,778.871 792.66,855 742.191,960.23 691.719,1065.51 641.68,1225.39 614.02,1332.46 Z M 2089.92,284.73 c -21.0363,-30.80633 -50.7352,-56.23574 -77.938,-77.61188 -14.1606,-11.07654 -28.8627,-21.24386 -44.0401,-30.53223 -15.1775,-9.28837 -30.8303,-17.69779 -46.8925,-25.25851 -16.0622,-7.56073 -32.5337,-14.27278 -49.3485,-20.16639 -16.8148,-5.89362 -33.9729,-10.96881 -51.4082,-15.25584 -17.4354,-4.28703 -35.1479,-7.78589 -53.0716,-10.52686 -17.9237,-2.74097 -36.0586,-4.72403 -54.3386,-5.979465 -18.28,-1.255431 -36.7051,-1.783226 -55.2093,-1.613648 -18.5042,0.169579 -37.0874,1.03653 -55.6837,2.570593 -18.5962,1.53406 -37.2055,3.73523 -55.7617,6.57325 -18.5562,2.83802 -37.0594,6.31289 -55.4434,10.39434 -18.3841,4.08145 -36.649,8.76949 -54.7289,14.03385 -18.0798,5.26435 -35.9744,11.10503 -53.6178,17.49177 -17.6435,6.38674 -35.0357,13.31953 -52.1107,20.76812 -17.0749,7.44859 -33.8326,15.41298 -50.207,23.8629 C 1041.29,316.68 817.66,375.859 602.461,503.711 235.621,721.602 221.129,1193.2 123.711,1568.28 44.9609,1871.33 117.379,2195 336.801,2415.51 699.41,2779.92 1289.92,2798.67 1721.33,2555.2 2010,2392.27 2290.74,2079.1 2239.3,1725.51 l -18.56,-5.51 c -55.47,-24.53 -103.36,-64.53 -160.82,-86.41 -300.9,-168.04 -701.72,-147.42 -953.9,-322.34 C 949.34,1199.77 859.379,984.02 933.871,799.219 1104.69,449.102 1614.84,70.5898 1954.61,227.621 c 16.95,7.379 33.48,16.359 49.02,26.867 15.55,10.473 30.16,22.461 43.21,35.782 13.04,13.32 44.1,61.531 53.55,77.39 l -5.235,-41.465 c 0,0 0.5308,-28.78967 -5.235,-41.465 z"
         style="fill:none;stroke:#56708a;stroke-width:14.06750584;stroke-linecap:butt;stroke-linejoin:miter;stroke-miterlimit:4;stroke-dasharray:none;stroke-opacity:1"
         id="path20"
         inkscape:connector-curvature="0"
         sodipodi:nodetypes="cccccccccssssssssssssscccccccccccccccc" /><path
         d="m 1390.94,1698.91 c 0,-49.07 39.76,-88.87 88.83,-88.87 49.06,0 88.86,39.8 88.86,88.87 0,49.06 -39.8,88.86 -88.86,88.86 -49.07,0 -88.83,-39.8 -88.83,-88.86 z"
         style="fill:#edf046;fill-opacity:1;fill-rule:nonzero;stroke:none;stroke-width:0.79631299"
         id="path22"
         inkscape:connector-curvature="0" /><path
         d="m 1390.94,1698.91 c 0,-49.07 39.76,-88.87 88.83,-88.87 49.06,0 88.86,39.8 88.86,88.87 0,49.06 -39.8,88.86 -88.86,88.86 -49.07,0 -88.83,-39.8 -88.83,-88.86 z"
         style="fill:none;stroke:#939393;stroke-width:11.23876286;stroke-linecap:round;stroke-linejoin:round;stroke-miterlimit:4;stroke-dasharray:none;stroke-opacity:1"
         id="path24"
         inkscape:connector-curvature="0" /><path
         d="m 1048.16,1568.75 c 0,-52.73 42.74,-95.47 95.47,-95.47 52.74,0 95.47,42.74 95.47,95.47 0,52.73 -42.73,95.47 -95.47,95.47 -52.73,0 -95.47,-42.74 -95.47,-95.47 z"
         style="fill:#edf046;fill-opacity:1;fill-rule:nonzero;stroke:none;stroke-width:0.79631299"
         id="path26"
         inkscape:connector-curvature="0" /><path
         d="m 1048.16,1568.75 c 0,-52.73 42.74,-95.47 95.47,-95.47 52.74,0 95.47,42.74 95.47,95.47 0,52.73 -42.73,95.47 -95.47,95.47 -52.73,0 -95.47,-42.74 -95.47,-95.47 z"
         style="fill:none;stroke:#939393;stroke-width:12.07648373;stroke-linecap:round;stroke-linejoin:round;stroke-miterlimit:4;stroke-dasharray:none;stroke-opacity:1"
         id="path28"
         inkscape:connector-curvature="0" /><path
         d="m 540.898,1631.09 c 0,-50.62 41.051,-91.64 91.641,-91.64 50.621,0 91.641,41.02 91.641,91.64 0,50.63 -41.02,91.64 -91.641,91.64 -50.59,0 -91.641,-41.01 -91.641,-91.64 z"
         style="fill:#edf046;fill-opacity:1;fill-rule:nonzero;stroke:none;stroke-width:0.79631299"
         id="path30"
         inkscape:connector-curvature="0" /><path
         d="m 540.898,1631.09 c 0,-50.62 41.051,-91.64 91.641,-91.64 50.621,0 91.641,41.02 91.641,91.64 0,50.63 -41.02,91.64 -91.641,91.64 -50.59,0 -91.641,-41.01 -91.641,-91.64 z"
         style="fill:none;stroke:#939393;stroke-width:11.59105206;stroke-linecap:round;stroke-linejoin:round;stroke-miterlimit:4;stroke-dasharray:none;stroke-opacity:1"
         id="path32"
         inkscape:connector-curvature="0" /><path
         d="m 219.57,1717.54 c 0,-48.59 39.41,-88.01 88.008,-88.01 48.594,0 87.973,39.42 87.973,88.01 0,48.59 -39.379,87.97 -87.973,87.97 -48.598,0 -88.008,-39.38 -88.008,-87.97 z"
         style="fill:#edf046;fill-opacity:1;fill-rule:nonzero;stroke:none;stroke-width:0.79631299"
         id="path34"
         inkscape:connector-curvature="0" /><path
         d="m 219.57,1717.54 c 0,-48.59 39.41,-88.01 88.008,-88.01 48.594,0 87.973,39.42 87.973,88.01 0,48.59 -39.379,87.97 -87.973,87.97 -48.598,0 -88.008,-39.38 -88.008,-87.97 z"
         style="fill:none;stroke:#939393;stroke-width:11.12966824;stroke-linecap:round;stroke-linejoin:round;stroke-miterlimit:4;stroke-dasharray:none;stroke-opacity:1"
         id="path36"
         inkscape:connector-curvature="0" /><path
         d="m 741.52,1353.36 c 0,-57.19 46.332,-103.56 103.519,-103.56 57.191,0 103.551,46.37 103.551,103.56 0,57.19 -46.36,103.52 -103.551,103.52 -57.187,0 -103.519,-46.33 -103.519,-103.52 z"
         style="fill:#edf046;fill-opacity:1;fill-rule:nonzero;stroke:none;stroke-width:0.79631299"
         id="path38"
         inkscape:connector-curvature="0" /><path
         d="m 741.52,1353.36 c 0,-57.19 46.332,-103.56 103.519,-103.56 57.191,0 103.551,46.37 103.551,103.56 0,57.19 -46.36,103.52 -103.551,103.52 -57.187,0 -103.519,-46.33 -103.519,-103.52 z"
         style="fill:none;stroke:#939393;stroke-width:13.09568596;stroke-linecap:round;stroke-linejoin:round;stroke-miterlimit:4;stroke-dasharray:none;stroke-opacity:1"
         id="path40"
         inkscape:connector-curvature="0" /><path
         d="m 1706.37,1777.93 c 0,-48.09 38.98,-87.03 87.03,-87.03 48.08,0 87.03,38.94 87.03,87.03 0,48.05 -38.95,87.03 -87.03,87.03 -48.05,0 -87.03,-38.98 -87.03,-87.03 z"
         style="fill:#edf046;fill-opacity:1;fill-rule:nonzero;stroke:none;stroke-width:0.79631299"
         id="path42"
         inkscape:connector-curvature="0" /><path
         d="m 1706.37,1777.93 c 0,-48.09 38.98,-87.03 87.03,-87.03 48.08,0 87.03,38.94 87.03,87.03 0,48.05 -38.95,87.03 -87.03,87.03 -48.05,0 -87.03,-38.98 -87.03,-87.03 z"
         style="fill:none;stroke:#939393;stroke-width:11.00823116;stroke-linecap:round;stroke-linejoin:round;stroke-miterlimit:4;stroke-dasharray:none;stroke-opacity:1"
         id="path44"
         inkscape:connector-curvature="0" /><path
         d="m 2016.88,1843.12 c 0,-45.62 36.99,-82.65 82.65,-82.65 45.63,0 82.62,37.03 82.62,82.65 0,45.63 -36.99,82.62 -82.62,82.62 -45.66,0 -82.65,-36.99 -82.65,-82.62 z"
         style="fill:#edf046;fill-opacity:1;fill-rule:nonzero;stroke:none;stroke-width:0.79631299"
         id="path46"
         inkscape:connector-curvature="0" /><path
         d="m 2016.88,1843.12 c 0,-45.62 36.99,-82.65 82.65,-82.65 45.63,0 82.62,37.03 82.62,82.65 0,45.63 -36.99,82.62 -82.62,82.62 -45.66,0 -82.65,-36.99 -82.65,-82.62 z"
         style="fill:none;stroke:#939393;stroke-width:10.45264244;stroke-linecap:round;stroke-linejoin:round;stroke-miterlimit:4;stroke-dasharray:none;stroke-opacity:1"
         id="path48"
         inkscape:connector-curvature="0" /><path
         d="m 834.301,1837.58 c 0,-50.67 41.008,-91.68 91.679,-91.68 50.622,0 91.68,41.01 91.68,91.68 0,50.62 -41.058,91.64 -91.68,91.64 -50.671,0 -91.679,-41.02 -91.679,-91.64 z"
         style="fill:#edf046;fill-opacity:1;fill-rule:nonzero;stroke:none;stroke-width:0.79631299"
         id="path50"
         inkscape:connector-curvature="0" /><path
         d="m 834.301,1837.58 c 0,-50.67 41.008,-91.68 91.679,-91.68 50.622,0 91.68,41.01 91.68,91.68 0,50.62 -41.058,91.64 -91.68,91.64 -50.671,0 -91.679,-41.02 -91.679,-91.64 z"
         style="fill:none;stroke:#939393;stroke-width:11.59591007;stroke-linecap:round;stroke-linejoin:round;stroke-miterlimit:4;stroke-dasharray:none;stroke-opacity:1"
         id="path52"
         inkscape:connector-curvature="0" /><path
         d="m 529.41,1978.79 c 0,-48.63 39.418,-88.05 88.051,-88.05 48.629,0 88.051,39.42 88.051,88.05 0,48.59 -39.422,88.05 -88.051,88.05 -48.633,0 -88.051,-39.46 -88.051,-88.05 z"
         style="fill:#edf046;fill-opacity:1;fill-rule:nonzero;stroke:none;stroke-width:0.79631299"
         id="path54"
         inkscape:connector-curvature="0" /><path
         d="m 529.41,1978.79 c 0,-48.63 39.418,-88.05 88.051,-88.05 48.629,0 88.051,39.42 88.051,88.05 0,48.59 -39.422,88.05 -88.051,88.05 -48.633,0 -88.051,-39.46 -88.051,-88.05 z"
         style="fill:none;stroke:#939393;stroke-width:11.13667583;stroke-linecap:round;stroke-linejoin:round;stroke-miterlimit:4;stroke-dasharray:none;stroke-opacity:1"
         id="path56"
         inkscape:connector-curvature="0" /><path
         d="m 231.41,2062.81 c 0,-45.78 37.11,-82.89 82.891,-82.89 45.777,0 82.89,37.11 82.89,82.89 0,45.78 -37.113,82.89 -82.89,82.89 -45.781,0 -82.891,-37.11 -82.891,-82.89 z"
         style="fill:#edf046;fill-opacity:1;fill-rule:nonzero;stroke:none;stroke-width:0.79631299"
         id="path58"
         inkscape:connector-curvature="0" /><path
         d="m 231.41,2062.81 c 0,-45.78 37.11,-82.89 82.891,-82.89 45.777,0 82.89,37.11 82.89,82.89 0,45.78 -37.113,82.89 -82.89,82.89 -45.781,0 -82.891,-37.11 -82.891,-82.89 z"
         style="fill:none;stroke:#939393;stroke-width:10.48497295;stroke-linecap:round;stroke-linejoin:round;stroke-miterlimit:4;stroke-dasharray:none;stroke-opacity:1"
         id="path60"
         inkscape:connector-curvature="0" /><path
         d="m 1191.25,1994.96 c 0,-46.64 37.81,-84.45 84.45,-84.45 46.64,0 84.46,37.81 84.46,84.45 0,46.64 -37.82,84.45 -84.46,84.45 -46.64,0 -84.45,-37.81 -84.45,-84.45 z"
         style="fill:#edf046;fill-opacity:1;fill-rule:nonzero;stroke:none;stroke-width:0.79631299"
         id="path62"
         inkscape:connector-curvature="0" /><path
         d="m 1191.25,1994.96 c 0,-46.64 37.81,-84.45 84.45,-84.45 46.64,0 84.46,37.81 84.46,84.45 0,46.64 -37.82,84.45 -84.46,84.45 -46.64,0 -84.45,-37.81 -84.45,-84.45 z"
         style="fill:none;stroke:#939393;stroke-width:10.68245888;stroke-linecap:round;stroke-linejoin:round;stroke-miterlimit:4;stroke-dasharray:none;stroke-opacity:1"
         id="path64"
         inkscape:connector-curvature="0" /><path
         d="m 902.422,2142.3 c 0,-44.8 36.289,-81.13 81.098,-81.13 44.8,0 81.09,36.33 81.09,81.13 0,44.77 -36.29,81.1 -81.09,81.1 -44.809,0 -81.098,-36.33 -81.098,-81.1 z"
         style="fill:#edf046;fill-opacity:1;fill-rule:nonzero;stroke:none;stroke-width:0.79631299"
         id="path66"
         inkscape:connector-curvature="0" /><path
         d="m 902.422,2142.3 c 0,-44.8 36.289,-81.13 81.098,-81.13 44.8,0 81.09,36.33 81.09,81.13 0,44.77 -36.29,81.1 -81.09,81.1 -44.809,0 -81.098,-36.33 -81.098,-81.1 z"
         style="fill:none;stroke:#939393;stroke-width:10.25945759;stroke-linecap:round;stroke-linejoin:round;stroke-miterlimit:4;stroke-dasharray:none;stroke-opacity:1"
         id="path68"
         inkscape:connector-curvature="0" /><path
         d="m 590.309,2272.58 c 0,-43.91 35.589,-79.49 79.492,-79.49 43.91,0 79.5,35.58 79.5,79.49 0,43.9 -35.59,79.49 -79.5,79.49 -43.903,0 -79.492,-35.59 -79.492,-79.49 z"
         style="fill:#edf046;fill-opacity:1;fill-rule:nonzero;stroke:none;stroke-width:0.79631299"
         id="path70"
         inkscape:connector-curvature="0" /><path
         d="m 590.309,2272.58 c 0,-43.91 35.589,-79.49 79.492,-79.49 43.91,0 79.5,35.58 79.5,79.49 0,43.9 -35.59,79.49 -79.5,79.49 -43.903,0 -79.492,-35.59 -79.492,-79.49 z"
         style="fill:none;stroke:#939393;stroke-width:10.05424786;stroke-linecap:round;stroke-linejoin:round;stroke-miterlimit:4;stroke-dasharray:none;stroke-opacity:1"
         id="path72"
         inkscape:connector-curvature="0" /><path
         d="m 1548.16,2073.83 c 0,-46.6 37.82,-84.42 84.42,-84.42 46.64,0 84.45,37.82 84.45,84.42 0,46.64 -37.81,84.41 -84.45,84.41 -46.6,0 -84.42,-37.77 -84.42,-84.41 z"
         style="fill:#edf046;fill-opacity:1;fill-rule:nonzero;stroke:none;stroke-width:0.79631299"
         id="path74"
         inkscape:connector-curvature="0" /><path
         d="m 1548.16,2073.83 c 0,-46.6 37.82,-84.42 84.42,-84.42 46.64,0 84.45,37.82 84.45,84.42 0,46.64 -37.81,84.41 -84.45,84.41 -46.6,0 -84.42,-37.77 -84.42,-84.41 z"
         style="fill:none;stroke:#939393;stroke-width:10.6779995;stroke-linecap:round;stroke-linejoin:round;stroke-miterlimit:4;stroke-dasharray:none;stroke-opacity:1"
         id="path76"
         inkscape:connector-curvature="0" /><path
         d="m 1306.41,2285.82 c 0,-44.77 36.29,-81.05 81.09,-81.05 44.77,0 81.05,36.28 81.05,81.05 0,44.77 -36.28,81.09 -81.05,81.09 -44.8,0 -81.09,-36.32 -81.09,-81.09 z"
         style="fill:#edf046;fill-opacity:1;fill-rule:nonzero;stroke:none;stroke-width:0.79631299"
         id="path78"
         inkscape:connector-curvature="0" /><path
         d="m 1306.41,2285.82 c 0,-44.77 36.29,-81.05 81.09,-81.05 44.77,0 81.05,36.28 81.05,81.05 0,44.77 -36.28,81.09 -81.05,81.09 -44.8,0 -81.09,-36.32 -81.09,-81.09 z"
         style="fill:none;stroke:#939393;stroke-width:10.25515747;stroke-linecap:round;stroke-linejoin:round;stroke-miterlimit:4;stroke-dasharray:none;stroke-opacity:1"
         id="path80"
         inkscape:connector-curvature="0" /><path
         d="m 1014.57,2405.08 c 0,-41.29 33.52,-74.81 74.81,-74.81 41.28,0 74.76,33.52 74.76,74.81 0,41.29 -33.48,74.76 -74.76,74.76 -41.29,0 -74.81,-33.47 -74.81,-74.76 z"
         style="fill:#edf046;fill-opacity:1;fill-rule:nonzero;stroke:none;stroke-width:0.79631299"
         id="path82"
         inkscape:connector-curvature="0" /><path
         d="m 1014.57,2405.08 c 0,-41.29 33.52,-74.81 74.81,-74.81 41.28,0 74.76,33.52 74.76,74.81 0,41.29 -33.48,74.76 -74.76,74.76 -41.29,0 -74.81,-33.47 -74.81,-74.76 z"
         style="fill:none;stroke:#939393;stroke-width:9.45908356;stroke-linecap:round;stroke-linejoin:round;stroke-miterlimit:4;stroke-dasharray:none;stroke-opacity:1"
         id="path84"
         inkscape:connector-curvature="0" /><path
         d="m 740.781,2502.23 c 0,-41.29 33.481,-74.77 74.77,-74.77 41.289,0 74.758,33.48 74.758,74.77 0,41.29 -33.469,74.76 -74.758,74.76 -41.289,0 -74.77,-33.47 -74.77,-74.76 z"
         style="fill:#edf046;fill-opacity:1;fill-rule:nonzero;stroke:none;stroke-width:0.79631299"
         id="path86"
         inkscape:connector-curvature="0" /><path
         d="m 740.781,2502.23 c 0,-41.29 33.481,-74.77 74.77,-74.77 41.289,0 74.758,33.48 74.758,74.77 0,41.29 -33.469,74.76 -74.758,74.76 -41.289,0 -74.77,-33.47 -74.77,-74.76 z"
         style="fill:none;stroke:#939393;stroke-width:9.45621681;stroke-linecap:round;stroke-linejoin:round;stroke-miterlimit:4;stroke-dasharray:none;stroke-opacity:1"
         id="path88"
         inkscape:connector-curvature="0" /><path
         d="m 1895.31,2124.61 c 0,-45.16 36.6,-81.76 81.76,-81.76 45.16,0 81.76,36.6 81.76,81.76 0,45.16 -36.6,81.8 -81.76,81.8 -45.16,0 -81.76,-36.64 -81.76,-81.8 z"
         style="fill:#edf046;fill-opacity:1;fill-rule:nonzero;stroke:none;stroke-width:0.79631299"
         id="path90"
         inkscape:connector-curvature="0" /><path
         d="m 1895.31,2124.61 c 0,-45.16 36.6,-81.76 81.76,-81.76 45.16,0 81.76,36.6 81.76,81.76 0,45.16 -36.6,81.8 -81.76,81.8 -45.16,0 -81.76,-36.64 -81.76,-81.8 z"
         style="fill:none;stroke:#939393;stroke-width:10.34187603;stroke-linecap:round;stroke-linejoin:round;stroke-miterlimit:4;stroke-dasharray:none;stroke-opacity:1"
         id="path92"
         inkscape:connector-curvature="0" /><path
         d="m 1694.61,2356.48 c 0,-43.78 35.51,-79.29 79.3,-79.29 43.82,0 79.33,35.51 79.33,79.29 0,43.79 -35.51,79.3 -79.33,79.3 -43.79,0 -79.3,-35.51 -79.3,-79.3 z"
         style="fill:#edf046;fill-opacity:1;fill-rule:nonzero;stroke:none;stroke-width:0.79631299"
         id="path94"
         inkscape:connector-curvature="0" /><path
         d="m 1694.61,2356.48 c 0,-43.78 35.51,-79.29 79.3,-79.29 43.82,0 79.33,35.51 79.33,79.29 0,43.79 -35.51,79.3 -79.33,79.3 -43.79,0 -79.3,-35.51 -79.3,-79.3 z"
         style="fill:none;stroke:#939393;stroke-width:10.03163242;stroke-linecap:round;stroke-linejoin:round;stroke-miterlimit:4;stroke-dasharray:none;stroke-opacity:1"
         id="path96"
         inkscape:connector-curvature="0" /><path
         d="m 1426.91,2526.52 c 0,-41.64 33.75,-75.39 75.39,-75.39 41.65,0 75.4,33.75 75.4,75.39 0,41.64 -33.75,75.39 -75.4,75.39 -41.64,0 -75.39,-33.75 -75.39,-75.39 z"
         style="fill:#edf046;fill-opacity:1;fill-rule:nonzero;stroke:none;stroke-width:0.79631299"
         id="path98"
         inkscape:connector-curvature="0" /><path
         d="m 1426.91,2526.52 c 0,-41.64 33.75,-75.39 75.39,-75.39 41.65,0 75.4,33.75 75.4,75.39 0,41.64 -33.75,75.39 -75.4,75.39 -41.64,0 -75.39,-33.75 -75.39,-75.39 z"
         style="fill:none;stroke:#939393;stroke-width:9.53608704;stroke-linecap:round;stroke-linejoin:round;stroke-miterlimit:4;stroke-dasharray:none;stroke-opacity:1"
         id="path100"
         inkscape:connector-curvature="0" /><path
         d="m 1131.72,2612.66 c 0,-38.83 31.48,-70.28 70.27,-70.28 38.79,0 70.24,31.45 70.24,70.28 0,38.79 -31.45,70.23 -70.24,70.23 -38.79,0 -70.27,-31.44 -70.27,-70.23 z"
         style="fill:#edf046;fill-opacity:1;fill-rule:nonzero;stroke:none;stroke-width:0.79631299"
         id="path102"
         inkscape:connector-curvature="0" /><path
         d="m 1131.72,2612.66 c 0,-38.83 31.48,-70.28 70.27,-70.28 38.79,0 70.24,31.45 70.24,70.28 0,38.79 -31.45,70.23 -70.24,70.23 -38.79,0 -70.27,-31.44 -70.27,-70.23 z"
         style="fill:none;stroke:#939393;stroke-width:8.88645458;stroke-linecap:round;stroke-linejoin:round;stroke-miterlimit:4;stroke-dasharray:none;stroke-opacity:1"
         id="path104"
         inkscape:connector-curvature="0" /><path
         d="m 1452.3,1698.91 c 0,-15.16 12.31,-27.46 27.47,-27.46 15.19,0 27.46,12.3 27.46,27.46 0,15.15 -12.27,27.46 -27.46,27.46 -15.16,0 -27.47,-12.31 -27.47,-27.46 z"
         style="fill:#656565;fill-opacity:1;fill-rule:nonzero;stroke:none;stroke-width:0.79631299"
         id="path106"
         inkscape:connector-curvature="0" /><path
         d="m 1452.3,1698.91 c 0,-15.16 12.31,-27.46 27.47,-27.46 15.19,0 27.46,12.3 27.46,27.46 0,15.15 -12.27,27.46 -27.46,27.46 -15.16,0 -27.47,-12.31 -27.47,-27.46 z"
         style="fill:none;stroke:#939393;stroke-width:3.4747436;stroke-linecap:round;stroke-linejoin:round;stroke-miterlimit:4;stroke-dasharray:none;stroke-opacity:1"
         id="path108"
         inkscape:connector-curvature="0" /><path
         d="m 1882.34,1031.02 c -27.07,-197.969 194.69,-366.25 203.13,-705.59 31.95,100.121 -2.31,216.91 -44.77,308.32 -70.11,164.301 -141.79,366.45 -72.61,504.92 69.18,138.44 198.32,282.23 234.61,366.56 52.5,104.18 30.07,142.86 37.34,219.89 -13.87,-6.14 -46.56,-18.36 -59.77,-25.9 -13.16,-7.54 16.68,7.19 -39.18,-23.44 -55.89,-30.58 -214.57,-107.19 -321.68,-138.87 -107.14,-31.64 -170.03,-43.04 -254.72,-61.91 -84.65,-18.87 -167.81,-37.93 -245.55,-63.24 -77.73,-25.28 -150.27,-56.49 -213.12,-100.51 -39.38,-27.58 -74.18,-62.27 -103.48,-101.05 -29.302,-38.79 -52.892,-81.96 -69.302,-127.47 -16.359,-45.46 -25.539,-93.242 -25.937,-141.21 -0.352,-47.969 7.929,-96.09 26.57,-142.301 42.688,-87.539 106.599,-176.84 183.789,-259.098 77.14,-82.269 167.54,-157.5 263.2,-216.883 95.7,-59.367 196.68,-102.929 294.92,-121.789 98.28,-18.867 193.91,-13.09 278.83,26.172 22.19,11.438 41.13,21.129 57.27,30.578 16.17,9.461 29.49,18.641 40.46,29.071 10.98,10.39 19.54,22.031 26.18,36.32 6.64,14.301 11.32,31.289 14.49,52.43 l -14.42,-17.04 c -31.64,-35.89 -52.73,-54.019 -92.5,-74.761 -86.48,-38.789 -198.47,-40.821 -264.37,-37.809 -65.9,2.969 -91.33,14.68 -134.96,29.488 -41.49,11.911 -80.9,28.204 -118.4,47.934 -37.5,19.758 -73.05,42.969 -106.76,68.789 -33.71,25.859 -65.58,54.289 -95.7,84.488 -30.12,30.192 -58.52,62.153 -85.24,94.961 -28.98,33.012 -55.74,69.489 -78.78,108.399 -23.01,38.941 -42.31,80.312 -56.29,123.051 -14.03,42.73 -22.74,86.832 -24.61,131.25 -1.88,44.371 3.08,89.06 16.44,132.93 13.2,36.4 31.33,70.7 53.44,102.18 69.61,102.19 172.73,154.42 282.46,187.19 55.39,16.6 123.71,37.07 199.45,53.28 75.78,16.21 157.97,31.37 237.89,46.92 79.96,15.54 157.7,31.52 224.57,49.33 16.72,4.45 32.74,9.02 47.97,13.71 32.35,7.23 62.97,25.04 87.85,36.1 -149.68,-145.71 -267.1,-376.21 -288.71,-525.39 z"
         style="fill:#e4edf6;fill-opacity:1;fill-rule:nonzero;stroke:none;stroke-width:0.79631299"
         id="path110"
         inkscape:connector-curvature="0" /><path
         d="m 1882.34,1031.02 c -27.07,-197.969 194.69,-366.25 203.13,-705.59 31.95,100.121 -2.31,216.91 -44.77,308.32 -70.11,164.301 -141.79,366.45 -72.61,504.92 69.18,138.44 198.32,282.23 234.61,366.56 52.5,104.18 30.07,142.86 37.34,219.89 -13.87,-6.14 -46.56,-18.36 -59.77,-25.9 -13.16,-7.54 16.68,7.19 -39.18,-23.44 -55.89,-30.58 -214.57,-107.19 -321.68,-138.87 -107.14,-31.64 -170.03,-43.04 -254.72,-61.91 -84.65,-18.87 -167.81,-37.93 -245.55,-63.24 -77.73,-25.28 -150.27,-56.49 -213.12,-100.51 -39.38,-27.58 -74.18,-62.27 -103.48,-101.05 -29.302,-38.79 -52.892,-81.96 -69.302,-127.47 -16.359,-45.46 -25.539,-93.242 -25.937,-141.21 -0.352,-47.969 7.929,-96.09 26.57,-142.301 42.688,-87.539 106.599,-176.84 183.789,-259.098 77.14,-82.269 167.54,-157.5 263.2,-216.883 95.7,-59.367 196.68,-102.929 294.92,-121.789 98.28,-18.867 193.91,-13.09 278.83,26.172 22.19,11.438 41.13,21.129 57.27,30.578 16.17,9.461 29.49,18.641 40.46,29.071 10.98,10.39 19.54,22.031 26.18,36.32 6.64,14.301 11.32,31.289 14.49,52.43 l -14.42,-17.04 c -31.64,-35.89 -52.73,-54.019 -92.5,-74.761 -86.48,-38.789 -198.47,-40.821 -264.37,-37.809 -65.9,2.969 -91.33,14.68 -134.96,29.488 -41.49,11.911 -80.9,28.204 -118.4,47.934 -37.5,19.758 -73.05,42.969 -106.76,68.789 -33.71,25.859 -65.58,54.289 -95.7,84.488 -30.12,30.192 -58.52,62.153 -85.24,94.961 -28.98,33.012 -55.74,69.489 -78.78,108.399 -23.01,38.941 -42.31,80.312 -56.29,123.051 -14.03,42.73 -22.74,86.832 -24.61,131.25 -1.88,44.371 3.08,89.06 16.44,132.93 13.2,36.4 31.33,70.7 53.44,102.18 69.61,102.19 172.73,154.42 282.46,187.19 55.39,16.6 123.71,37.07 199.45,53.28 75.78,16.21 157.97,31.37 237.89,46.92 79.96,15.54 157.7,31.52 224.57,49.33 16.72,4.45 32.74,9.02 47.97,13.71 32.35,7.23 62.97,25.04 87.85,36.1 -149.68,-145.71 -267.1,-376.21 -288.71,-525.39 z"
         style="fill:none;stroke:#7992ab;stroke-width:14.06750584;stroke-linecap:butt;stroke-linejoin:miter;stroke-miterlimit:4;stroke-dasharray:none;stroke-opacity:1"
         id="path112"
         inkscape:connector-curvature="0" /><path
         d="m 1118.83,1188.4 c 2.46,3.24 4.76,6.25 7.15,9.22 2.38,2.97 4.84,5.9 7.5,8.94 2.65,3.05 5.54,6.29 8.75,9.85 3.24,3.55 6.56,7.07 9.88,10.5 3.36,3.48 6.76,6.88 10.19,10.24 1.72,1.68 3.48,3.32 5.24,5 1.72,1.64 3.51,3.28 5.27,4.92 1.8,1.6 3.56,3.2 5.39,4.81 1.8,1.6 3.6,3.2 5.43,4.76 1.84,1.56 3.71,3.09 5.55,4.61 1.87,1.52 3.75,3.05 5.55,4.65 68.2,59.33 153.75,80.9 237.3,107.07 7.66,2.38 15.55,4.61 23.59,6.87 8.05,2.27 16.29,4.5 24.69,6.68 l 17.54,5.82 c -0.39,-22.42 -0.51,-27.69 0.74,-47.96 1.33,-20.28 3.6,-39.03 6.96,-55.32 3.36,-16.29 10.7,-35.31 13.55,-40.51 2.89,-5.23 -1.72,3.17 0,0 1.76,-3.16 7.42,-12.34 11.72,-17.96 4.34,-5.59 9.02,-10.86 14.1,-15.71 73.24,-70.08 157.62,-15.7 216.1,38.6 14.25,13.32 27.3,26.95 39.06,40.97 11.72,13.99 22.15,28.44 31.21,43.32 9.06,14.93 16.72,30.32 22.97,46.25 6.25,15.98 11.05,32.54 14.33,49.73 3.29,17.19 3.79,15.66 3.99,34.3 l 12.77,2.5 c 9.81,1.99 19.49,3.98 29.14,5.97 9.65,2 19.18,4.03 28.63,6.1 9.46,2.03 18.79,4.1 28.01,6.17 9.22,2.07 18.32,4.18 27.31,6.29 8.94,2.15 17.81,4.26 26.48,6.44 8.67,2.19 17.19,4.38 25.55,6.6 8.36,2.23 16.56,4.5 24.57,6.76 8.01,2.27 15.82,4.61 23.44,6.96 7.61,2.34 15,4.72 22.18,7.14 7.19,2.43 14.18,4.89 20.9,7.43 l 8.13,1.29 c -179.22,-251.41 -225.04,-307.23 -252.07,-505.2 -6.8,-49.449 1.99,-97.109 19.1,-146.02 17.15,-48.941 42.58,-99.14 69.14,-153.75 26.56,-54.609 54.22,-113.628 75.78,-180.23 5.39,-16.641 10.39,-33.789 14.88,-51.41 4.53,-17.649 8.56,-35.82 11.96,-54.531 2.26,-28.789 10.97,-50.938 11.79,-76.868 -15.82,-17.929 -24.84,-26.101 -42.93,-40.16 -18.04,-14.062 -31.25,-22.5 -51.13,-32.851 l 0.51,5.699 c 0.08,6.25 0.04,12.5 -0.08,18.711 -0.12,6.211 -0.39,12.39 -0.62,18.558 -0.24,6.211 -0.75,12.34 -1.14,18.512 -1.91,24.57 -5.23,48.91 -9.88,72.891 -4.69,24.031 -10.66,47.699 -17.89,71.019 -7.23,23.282 -15.7,46.25 -25.27,68.75 -9.61,22.539 -20.36,44.649 -32.11,66.289 -11.76,21.68 -24.57,42.852 -38.32,63.512 -13.75,20.668 -28.44,40.828 -43.95,60.43 -15.55,19.609 -31.91,38.64 -49.02,57.07 -17.11,18.399 -35,36.258 -53.48,53.399 -18.51,17.152 -37.69,33.64 -57.38,49.46 -19.73,15.782 -40,30.86 -60.7,45.192 -20.71,14.34 -41.88,27.93 -63.4,40.708 -21.57,12.73 -43.44,24.72 -65.59,35.82 -22.11,11.13 -44.53,21.4 -67.11,30.78 -22.54,9.33 -45.27,17.81 -68.05,25.31 -65.62,24.8 -166.44,59.76 -232.18,84.26 0,0 -4.1,2.15 -1.68,5.39 z"
         style="fill:#d0deed;fill-opacity:1;fill-rule:nonzero;stroke:none;stroke-width:0.79631299"
         id="path114"
         inkscape:connector-curvature="0" /><path
         d="m 1118.83,1188.4 c 2.46,3.24 4.76,6.25 7.15,9.22 2.38,2.97 4.84,5.9 7.5,8.94 2.65,3.05 5.54,6.29 8.75,9.85 3.24,3.55 6.56,7.07 9.88,10.5 3.36,3.48 6.76,6.88 10.19,10.24 1.72,1.68 3.48,3.32 5.24,5 1.72,1.64 3.51,3.28 5.27,4.92 1.8,1.6 3.56,3.2 5.39,4.81 1.8,1.6 3.6,3.2 5.43,4.76 1.84,1.56 3.71,3.09 5.55,4.61 1.87,1.52 3.75,3.05 5.55,4.65 68.2,59.33 153.75,80.9 237.3,107.07 7.66,2.38 15.55,4.61 23.59,6.87 8.05,2.27 16.29,4.5 24.69,6.68 l 17.54,5.82 c -0.39,-22.42 -0.51,-27.69 0.74,-47.96 1.33,-20.28 3.6,-39.03 6.96,-55.32 3.36,-16.29 10.7,-35.31 13.55,-40.51 2.89,-5.23 -1.72,3.17 0,0 1.76,-3.16 7.42,-12.34 11.72,-17.96 4.34,-5.59 9.02,-10.86 14.1,-15.71 73.24,-70.08 157.62,-15.7 216.1,38.6 14.25,13.32 27.3,26.95 39.06,40.97 11.72,13.99 22.15,28.44 31.21,43.32 9.06,14.93 16.72,30.32 22.97,46.25 6.25,15.98 11.05,32.54 14.33,49.73 3.29,17.19 3.79,15.66 3.99,34.3 l 12.77,2.5 c 9.81,1.99 19.49,3.98 29.14,5.97 9.65,2 19.18,4.03 28.63,6.1 9.46,2.03 18.79,4.1 28.01,6.17 9.22,2.07 18.32,4.18 27.31,6.29 8.94,2.15 17.81,4.26 26.48,6.44 8.67,2.19 17.19,4.38 25.55,6.6 8.36,2.23 16.56,4.5 24.57,6.76 8.01,2.27 15.82,4.61 23.44,6.96 7.61,2.34 15,4.72 22.18,7.14 7.19,2.43 14.18,4.89 20.9,7.43 l 8.13,1.29 c -179.22,-251.41 -225.04,-307.23 -252.07,-505.2 -6.8,-49.449 1.99,-97.109 19.1,-146.02 17.15,-48.941 42.58,-99.14 69.14,-153.75 26.56,-54.609 54.22,-113.628 75.78,-180.23 5.39,-16.641 10.39,-33.789 14.88,-51.41 4.53,-17.649 8.56,-35.82 11.96,-54.531 2.26,-28.789 10.97,-50.938 11.79,-76.868 -15.82,-17.929 -24.84,-26.101 -42.93,-40.16 -18.04,-14.062 -31.25,-22.5 -51.13,-32.851 l 0.51,5.699 c 0.08,6.25 0.04,12.5 -0.08,18.711 -0.12,6.211 -0.39,12.39 -0.62,18.558 -0.24,6.211 -0.75,12.34 -1.14,18.512 -1.91,24.57 -5.23,48.91 -9.88,72.891 -4.69,24.031 -10.66,47.699 -17.89,71.019 -7.23,23.282 -15.7,46.25 -25.27,68.75 -9.61,22.539 -20.36,44.649 -32.11,66.289 -11.76,21.68 -24.57,42.852 -38.32,63.512 -13.75,20.668 -28.44,40.828 -43.95,60.43 -15.55,19.609 -31.91,38.64 -49.02,57.07 -17.11,18.399 -35,36.258 -53.48,53.399 -18.51,17.152 -37.69,33.64 -57.38,49.46 -19.73,15.782 -40,30.86 -60.7,45.192 -20.71,14.34 -41.88,27.93 -63.4,40.708 -21.57,12.73 -43.44,24.72 -65.59,35.82 -22.11,11.13 -44.53,21.4 -67.11,30.78 -22.54,9.33 -45.27,17.81 -68.05,25.31 -65.62,24.8 -166.44,59.76 -232.18,84.26 0,0 -4.1,2.15 -1.68,5.39 z"
         style="fill:none;stroke:#7992ab;stroke-width:14.06750584;stroke-linecap:butt;stroke-linejoin:miter;stroke-miterlimit:4;stroke-dasharray:none;stroke-opacity:1"
         id="path116"
         inkscape:connector-curvature="0" /><path
         d="m 1114.1,1568.75 c 0,-16.29 13.2,-29.53 29.53,-29.53 16.29,0 29.49,13.24 29.49,29.53 0,16.29 -13.2,29.53 -29.49,29.53 -16.33,0 -29.53,-13.24 -29.53,-29.53 z"
         style="fill:#656565;fill-opacity:1;fill-rule:nonzero;stroke:none;stroke-width:0.79631299"
         id="path118"
         inkscape:connector-curvature="0" /><path
         d="m 1114.1,1568.75 c 0,-16.29 13.2,-29.53 29.53,-29.53 16.29,0 29.49,13.24 29.49,29.53 0,16.29 -13.2,29.53 -29.49,29.53 -16.33,0 -29.53,-13.24 -29.53,-29.53 z"
         style="fill:none;stroke:#939393;stroke-width:3.73374414;stroke-linecap:round;stroke-linejoin:round;stroke-miterlimit:4;stroke-dasharray:none;stroke-opacity:1"
         id="path120"
         inkscape:connector-curvature="0" /><path
         d="m 604.219,1631.09 c 0,-15.66 12.691,-28.32 28.32,-28.32 15.66,0 28.359,12.66 28.359,28.32 0,15.67 -12.699,28.32 -28.359,28.32 -15.629,0 -28.32,-12.65 -28.32,-28.32 z"
         style="fill:#656565;fill-opacity:1;fill-rule:nonzero;stroke:none;stroke-width:0.79631299"
         id="path122"
         inkscape:connector-curvature="0" /><path
         d="m 604.219,1631.09 c 0,-15.66 12.691,-28.32 28.32,-28.32 15.66,0 28.359,12.66 28.359,28.32 0,15.67 -12.699,28.32 -28.359,28.32 -15.629,0 -28.32,-12.65 -28.32,-28.32 z"
         style="fill:none;stroke:#939393;stroke-width:3.58366323;stroke-linecap:round;stroke-linejoin:round;stroke-miterlimit:4;stroke-dasharray:none;stroke-opacity:1"
         id="path124"
         inkscape:connector-curvature="0" /><path
         d="m 280.352,1717.54 c 0,-15.04 12.187,-27.23 27.226,-27.23 15,0 27.192,12.19 27.192,27.23 0,15 -12.192,27.19 -27.192,27.19 -15.039,0 -27.226,-12.19 -27.226,-27.19 z"
         style="fill:#656565;fill-opacity:1;fill-rule:nonzero;stroke:none;stroke-width:0.79631299"
         id="path126"
         inkscape:connector-curvature="0" /><path
         d="m 280.352,1717.54 c 0,-15.04 12.187,-27.23 27.226,-27.23 15,0 27.192,12.19 27.192,27.23 0,15 -12.192,27.19 -27.192,27.19 -15.039,0 -27.226,-12.19 -27.226,-27.19 z"
         style="fill:none;stroke:#939393;stroke-width:3.44101954;stroke-linecap:round;stroke-linejoin:round;stroke-miterlimit:4;stroke-dasharray:none;stroke-opacity:1"
         id="path128"
         inkscape:connector-curvature="0" /><path
         d="m 813.051,1353.36 c 0,-17.7 14.289,-32.03 31.988,-32.03 17.691,0 32.031,14.33 32.031,32.03 0,17.66 -14.34,31.99 -32.031,31.99 -17.699,0 -31.988,-14.33 -31.988,-31.99 z"
         style="fill:#656565;fill-opacity:1;fill-rule:nonzero;stroke:none;stroke-width:0.79631299"
         id="path130"
         inkscape:connector-curvature="0" /><path
         d="m 813.051,1353.36 c 0,-17.7 14.289,-32.03 31.988,-32.03 17.691,0 32.031,14.33 32.031,32.03 0,17.66 -14.34,31.99 -32.031,31.99 -17.699,0 -31.988,-14.33 -31.988,-31.99 z"
         style="fill:none;stroke:#939393;stroke-width:4.04886103;stroke-linecap:round;stroke-linejoin:round;stroke-miterlimit:4;stroke-dasharray:none;stroke-opacity:1"
         id="path132"
         inkscape:connector-curvature="0" /><path
         d="m 1766.52,1777.93 c 0,-14.88 12.03,-26.91 26.88,-26.91 14.88,0 26.91,12.03 26.91,26.91 0,14.84 -12.03,26.87 -26.91,26.87 -14.85,0 -26.88,-12.03 -26.88,-26.87 z"
         style="fill:#656565;fill-opacity:1;fill-rule:nonzero;stroke:none;stroke-width:0.79631299"
         id="path134"
         inkscape:connector-curvature="0" /><path
         d="m 1766.52,1777.93 c 0,-14.88 12.03,-26.91 26.88,-26.91 14.88,0 26.91,12.03 26.91,26.91 0,14.84 -12.03,26.87 -26.91,26.87 -14.85,0 -26.88,-12.03 -26.88,-26.87 z"
         style="fill:none;stroke:#939393;stroke-width:3.40348172;stroke-linecap:round;stroke-linejoin:round;stroke-miterlimit:4;stroke-dasharray:none;stroke-opacity:1"
         id="path136"
         inkscape:connector-curvature="0" /><path
         d="m 2073.98,1843.12 c 0,-14.1 11.45,-25.54 25.55,-25.54 14.1,0 25.55,11.44 25.55,25.54 0,14.11 -11.45,25.55 -25.55,25.55 -14.1,0 -25.55,-11.44 -25.55,-25.55 z"
         style="fill:#656565;fill-opacity:1;fill-rule:nonzero;stroke:none;stroke-width:0.79631299"
         id="path138"
         inkscape:connector-curvature="0" /><path
         d="m 2073.98,1843.12 c 0,-14.1 11.45,-25.54 25.55,-25.54 14.1,0 25.55,11.44 25.55,25.54 0,14.11 -11.45,25.55 -25.55,25.55 -14.1,0 -25.55,-11.44 -25.55,-25.55 z"
         style="fill:none;stroke:#939393;stroke-width:3.2317009;stroke-linecap:round;stroke-linejoin:round;stroke-miterlimit:4;stroke-dasharray:none;stroke-opacity:1"
         id="path140"
         inkscape:connector-curvature="0" /><path
         d="m 897.621,1837.58 c 0,-15.67 12.688,-28.36 28.359,-28.36 15.622,0 28.321,12.69 28.321,28.36 0,15.62 -12.699,28.32 -28.321,28.32 -15.671,0 -28.359,-12.7 -28.359,-28.32 z"
         style="fill:#656565;fill-opacity:1;fill-rule:nonzero;stroke:none;stroke-width:0.79631299"
         id="path142"
         inkscape:connector-curvature="0" /><path
         d="m 897.621,1837.58 c 0,-15.67 12.688,-28.36 28.359,-28.36 15.622,0 28.321,12.69 28.321,28.36 0,15.62 -12.699,28.32 -28.321,28.32 -15.671,0 -28.359,-12.7 -28.359,-28.32 z"
         style="fill:none;stroke:#939393;stroke-width:3.58515239;stroke-linecap:round;stroke-linejoin:round;stroke-miterlimit:4;stroke-dasharray:none;stroke-opacity:1"
         id="path144"
         inkscape:connector-curvature="0" /><path
         d="m 590.23,1978.79 c 0,-15.04 12.192,-27.23 27.231,-27.23 15.039,0 27.23,12.19 27.23,27.23 0,15.04 -12.191,27.23 -27.23,27.23 -15.039,0 -27.231,-12.19 -27.231,-27.23 z"
         style="fill:#656565;fill-opacity:1;fill-rule:nonzero;stroke:none;stroke-width:0.79631299"
         id="path146"
         inkscape:connector-curvature="0" /><path
         d="m 590.23,1978.79 c 0,-15.04 12.192,-27.23 27.231,-27.23 15.039,0 27.23,12.19 27.23,27.23 0,15.04 -12.191,27.23 -27.23,27.23 -15.039,0 -27.231,-12.19 -27.231,-27.23 z"
         style="fill:none;stroke:#939393;stroke-width:3.44318581;stroke-linecap:round;stroke-linejoin:round;stroke-miterlimit:4;stroke-dasharray:none;stroke-opacity:1"
         id="path148"
         inkscape:connector-curvature="0" /><path
         d="m 288.672,2062.81 c 0,-14.18 11.449,-25.62 25.629,-25.62 14.14,0 25.621,11.44 25.621,25.62 0,14.14 -11.481,25.63 -25.621,25.63 -14.18,0 -25.629,-11.49 -25.629,-25.63 z"
         style="fill:#656565;fill-opacity:1;fill-rule:nonzero;stroke:none;stroke-width:0.79631299"
         id="path150"
         inkscape:connector-curvature="0" /><path
         d="m 288.672,2062.81 c 0,-14.18 11.449,-25.62 25.629,-25.62 14.14,0 25.621,11.44 25.621,25.62 0,14.14 -11.481,25.63 -25.621,25.63 -14.18,0 -25.629,-11.49 -25.629,-25.63 z"
         style="fill:none;stroke:#939393;stroke-width:3.24168658;stroke-linecap:round;stroke-linejoin:round;stroke-miterlimit:4;stroke-dasharray:none;stroke-opacity:1"
         id="path152"
         inkscape:connector-curvature="0" /><path
         d="m 1249.61,1994.96 c 0,-14.45 11.68,-26.13 26.09,-26.13 14.42,0 26.14,11.68 26.14,26.13 0,14.42 -11.72,26.09 -26.14,26.09 -14.41,0 -26.09,-11.67 -26.09,-26.09 z"
         style="fill:#656565;fill-opacity:1;fill-rule:nonzero;stroke:none;stroke-width:0.79631299"
         id="path154"
         inkscape:connector-curvature="0" /><path
         d="m 1249.61,1994.96 c 0,-14.45 11.68,-26.13 26.09,-26.13 14.42,0 26.14,11.68 26.14,26.13 0,14.42 -11.72,26.09 -26.14,26.09 -14.41,0 -26.09,-11.67 -26.09,-26.09 z"
         style="fill:none;stroke:#939393;stroke-width:3.30275583;stroke-linecap:round;stroke-linejoin:round;stroke-miterlimit:4;stroke-dasharray:none;stroke-opacity:1"
         id="path156"
         inkscape:connector-curvature="0" /><path
         d="m 958.441,2142.3 c 0,-13.86 11.207,-25.07 25.079,-25.07 13.859,0 25.07,11.21 25.07,25.07 0,13.83 -11.211,25.08 -25.07,25.08 -13.872,0 -25.079,-11.25 -25.079,-25.08 z"
         style="fill:#656565;fill-opacity:1;fill-rule:nonzero;stroke:none;stroke-width:0.79631299"
         id="path158"
         inkscape:connector-curvature="0" /><path
         d="m 958.441,2142.3 c 0,-13.86 11.207,-25.07 25.079,-25.07 13.859,0 25.07,11.21 25.07,25.07 0,13.83 -11.211,25.08 -25.07,25.08 -13.872,0 -25.079,-11.25 -25.079,-25.08 z"
         style="fill:none;stroke:#939393;stroke-width:3.17196941;stroke-linecap:round;stroke-linejoin:round;stroke-miterlimit:4;stroke-dasharray:none;stroke-opacity:1"
         id="path160"
         inkscape:connector-curvature="0" /><path
         d="m 645.23,2272.58 c 0,-13.56 11.02,-24.57 24.571,-24.57 13.597,0 24.578,11.01 24.578,24.57 0,13.55 -10.981,24.57 -24.578,24.57 -13.551,0 -24.571,-11.02 -24.571,-24.57 z"
         style="fill:#656565;fill-opacity:1;fill-rule:nonzero;stroke:none;stroke-width:0.79631299"
         id="path162"
         inkscape:connector-curvature="0" /><path
         d="m 645.23,2272.58 c 0,-13.56 11.02,-24.57 24.571,-24.57 13.597,0 24.578,11.01 24.578,24.57 0,13.55 -10.981,24.57 -24.578,24.57 -13.551,0 -24.571,-11.02 -24.571,-24.57 z"
         style="fill:none;stroke:#939393;stroke-width:3.10852718;stroke-linecap:round;stroke-linejoin:round;stroke-miterlimit:4;stroke-dasharray:none;stroke-opacity:1"
         id="path164"
         inkscape:connector-curvature="0" /><path
         d="m 1606.48,2073.83 c 0,-14.42 11.68,-26.1 26.1,-26.1 14.41,0 26.13,11.68 26.13,26.1 0,14.41 -11.72,26.09 -26.13,26.09 -14.42,0 -26.1,-11.68 -26.1,-26.09 z"
         style="fill:#656565;fill-opacity:1;fill-rule:nonzero;stroke:none;stroke-width:0.79631299"
         id="path166"
         inkscape:connector-curvature="0" /><path
         d="m 1606.48,2073.83 c 0,-14.42 11.68,-26.1 26.1,-26.1 14.41,0 26.13,11.68 26.13,26.1 0,14.41 -11.72,26.09 -26.13,26.09 -14.42,0 -26.1,-11.68 -26.1,-26.09 z"
         style="fill:none;stroke:#939393;stroke-width:3.30138636;stroke-linecap:round;stroke-linejoin:round;stroke-miterlimit:4;stroke-dasharray:none;stroke-opacity:1"
         id="path168"
         inkscape:connector-curvature="0" /><path
         d="m 1362.42,2285.82 c 0,-13.83 11.21,-25.08 25.08,-25.08 13.83,0 25.04,11.25 25.04,25.08 0,13.87 -11.21,25.08 -25.04,25.08 -13.87,0 -25.08,-11.21 -25.08,-25.08 z"
         style="fill:#656565;fill-opacity:1;fill-rule:nonzero;stroke:none;stroke-width:0.79631299"
         id="path170"
         inkscape:connector-curvature="0" /><path
         d="m 1362.42,2285.82 c 0,-13.83 11.21,-25.08 25.08,-25.08 13.83,0 25.04,11.25 25.04,25.08 0,13.87 -11.21,25.08 -25.04,25.08 -13.87,0 -25.08,-11.21 -25.08,-25.08 z"
         style="fill:none;stroke:#939393;stroke-width:3.17064738;stroke-linecap:round;stroke-linejoin:round;stroke-miterlimit:4;stroke-dasharray:none;stroke-opacity:1"
         id="path172"
         inkscape:connector-curvature="0" /><path
         d="m 1066.25,2405.08 c 0,-12.78 10.35,-23.13 23.13,-23.13 12.77,0 23.12,10.35 23.12,23.13 0,12.77 -10.35,23.12 -23.12,23.12 -12.78,0 -23.13,-10.35 -23.13,-23.12 z"
         style="fill:#656565;fill-opacity:1;fill-rule:nonzero;stroke:none;stroke-width:0.79631299"
         id="path174"
         inkscape:connector-curvature="0" /><path
         d="m 1066.25,2405.08 c 0,-12.78 10.35,-23.13 23.13,-23.13 12.77,0 23.12,10.35 23.12,23.13 0,12.77 -10.35,23.12 -23.12,23.12 -12.78,0 -23.13,-10.35 -23.13,-23.12 z"
         style="fill:none;stroke:#939393;stroke-width:2.92450714;stroke-linecap:round;stroke-linejoin:round;stroke-miterlimit:4;stroke-dasharray:none;stroke-opacity:1"
         id="path176"
         inkscape:connector-curvature="0" /><path
         d="m 792.422,2502.23 c 0,-12.78 10.348,-23.09 23.129,-23.09 12.769,0 23.121,10.31 23.121,23.09 0,12.77 -10.352,23.12 -23.121,23.12 -12.781,0 -23.129,-10.35 -23.129,-23.12 z"
         style="fill:#656565;fill-opacity:1;fill-rule:nonzero;stroke:none;stroke-width:0.79631299"
         id="path178"
         inkscape:connector-curvature="0" /><path
         d="m 792.422,2502.23 c 0,-12.78 10.348,-23.09 23.129,-23.09 12.769,0 23.121,10.31 23.121,23.09 0,12.77 -10.352,23.12 -23.121,23.12 -12.781,0 -23.129,-10.35 -23.129,-23.12 z"
         style="fill:none;stroke:#939393;stroke-width:2.92362309;stroke-linecap:round;stroke-linejoin:round;stroke-miterlimit:4;stroke-dasharray:none;stroke-opacity:1"
         id="path180"
         inkscape:connector-curvature="0" /><path
         d="m 1951.8,2124.61 c 0,-13.95 11.32,-25.27 25.27,-25.27 13.98,0 25.27,11.32 25.27,25.27 0,13.98 -11.29,25.31 -25.27,25.31 -13.95,0 -25.27,-11.33 -25.27,-25.31 z"
         style="fill:#656565;fill-opacity:1;fill-rule:nonzero;stroke:none;stroke-width:0.79631299"
         id="path182"
         inkscape:connector-curvature="0" /><path
         d="m 1951.8,2124.61 c 0,-13.95 11.32,-25.27 25.27,-25.27 13.98,0 25.27,11.32 25.27,25.27 0,13.98 -11.29,25.31 -25.27,25.31 -13.95,0 -25.27,-11.33 -25.27,-25.31 z"
         style="fill:none;stroke:#939393;stroke-width:3.19744325;stroke-linecap:round;stroke-linejoin:round;stroke-miterlimit:4;stroke-dasharray:none;stroke-opacity:1"
         id="path184"
         inkscape:connector-curvature="0" /><path
         d="m 1749.41,2356.48 c 0,-13.55 10.98,-24.53 24.5,-24.53 13.55,0 24.53,10.98 24.53,24.53 0,13.56 -10.98,24.54 -24.53,24.54 -13.52,0 -24.5,-10.98 -24.5,-24.54 z"
         style="fill:#656565;fill-opacity:1;fill-rule:nonzero;stroke:none;stroke-width:0.79631299"
         id="path186"
         inkscape:connector-curvature="0" /><path
         d="m 1749.41,2356.48 c 0,-13.55 10.98,-24.53 24.5,-24.53 13.55,0 24.53,10.98 24.53,24.53 0,13.56 -10.98,24.54 -24.53,24.54 -13.52,0 -24.5,-10.98 -24.5,-24.54 z"
         style="fill:none;stroke:#939393;stroke-width:3.10153556;stroke-linecap:round;stroke-linejoin:round;stroke-miterlimit:4;stroke-dasharray:none;stroke-opacity:1"
         id="path188"
         inkscape:connector-curvature="0" /><path
         d="m 1478.98,2526.52 c 0,-12.85 10.47,-23.32 23.32,-23.32 12.9,0 23.32,10.47 23.32,23.32 0,12.89 -10.42,23.32 -23.32,23.32 -12.85,0 -23.32,-10.43 -23.32,-23.32 z"
         style="fill:#656565;fill-opacity:1;fill-rule:nonzero;stroke:none;stroke-width:0.79631299"
         id="path190"
         inkscape:connector-curvature="0" /><path
         d="m 1478.98,2526.52 c 0,-12.85 10.47,-23.32 23.32,-23.32 12.9,0 23.32,10.47 23.32,23.32 0,12.89 -10.42,23.32 -23.32,23.32 -12.85,0 -23.32,-10.43 -23.32,-23.32 z"
         style="fill:none;stroke:#939393;stroke-width:2.94832492;stroke-linecap:round;stroke-linejoin:round;stroke-miterlimit:4;stroke-dasharray:none;stroke-opacity:1"
         id="path192"
         inkscape:connector-curvature="0" /><path
         d="m 1180.27,2612.66 c 0,-12 9.73,-21.72 21.72,-21.72 11.99,0 21.72,9.72 21.72,21.72 0,11.99 -9.73,21.72 -21.72,21.72 -11.99,0 -21.72,-9.73 -21.72,-21.72 z"
         style="fill:#656565;fill-opacity:1;fill-rule:nonzero;stroke:none;stroke-width:0.79631299"
         id="path194"
         inkscape:connector-curvature="0" /><path
         d="m 1180.27,2612.66 c 0,-12 9.73,-21.72 21.72,-21.72 11.99,0 21.72,9.72 21.72,21.72 0,11.99 -9.73,21.72 -21.72,21.72 -11.99,0 -21.72,-9.73 -21.72,-21.72 z"
         style="fill:none;stroke:#939393;stroke-width:2.74747086;stroke-linecap:round;stroke-linejoin:round;stroke-miterlimit:4;stroke-dasharray:none;stroke-opacity:1"
         id="path196"
         inkscape:connector-curvature="0" /></g></g></svg>