<?xml version="1.0" encoding="UTF-8" standalone="no"?>
<!-- Created with Inkscape (http://www.inkscape.org/) -->

<svg
   xmlns:dc="http://purl.org/dc/elements/1.1/"
   xmlns:cc="http://creativecommons.org/ns#"
   xmlns:rdf="http://www.w3.org/1999/02/22-rdf-syntax-ns#"
   xmlns:svg="http://www.w3.org/2000/svg"
   xmlns="http://www.w3.org/2000/svg"
   xmlns:sodipodi="http://sodipodi.sourceforge.net/DTD/sodipodi-0.dtd"
   xmlns:inkscape="http://www.inkscape.org/namespaces/inkscape"
   width="211.52246"
   height="206.96289"
   id="svg2"
   version="1.1"
   inkscape:version="0.48.3.1 r9886"
   sodipodi:docname="1x3-7.svg">
  <defs
     id="defs4" />
  <sodipodi:namedview
     id="base"
     pagecolor="#ffffff"
     bordercolor="#666666"
     borderopacity="1.0"
     inkscape:pageopacity="0.0"
     inkscape:pageshadow="2"
     inkscape:zoom="1.4"
     inkscape:cx="144.84273"
     inkscape:cy="79.638752"
     inkscape:document-units="px"
     inkscape:current-layer="layer1"
     showgrid="true"
     inkscape:window-width="1440"
     inkscape:window-height="829"
     inkscape:window-x="0"
     inkscape:window-y="24"
     inkscape:window-maximized="1"
     fit-margin-top="0"
     fit-margin-left="0"
     fit-margin-right="0"
     fit-margin-bottom="0">
    <inkscape:grid
       type="xygrid"
       id="grid2985"
       empspacing="5"
       visible="true"
       enabled="true"
       snapvisiblegridlinesonly="true"
       units="in"
       spacingx="0.25in"
       spacingy="0.25in"
       originx="0.34469398in"
       originy="-8.2444444in" />
  </sodipodi:namedview>
  <metadata
     id="metadata7">
    <rdf:RDF>
      <cc:Work
         rdf:about="">
        <dc:format>image/svg+xml</dc:format>
        <dc:type
           rdf:resource="http://purl.org/dc/dcmitype/StillImage" />
        <dc:title />
      </cc:Work>
    </rdf:RDF>
  </metadata>
  <g
     inkscape:label="Layer 1"
     inkscape:groupmode="layer"
     id="layer1"
     transform="translate(31.022458,-103.39929)">
    <flowRoot
       xml:space="preserve"
       id="flowRoot6326"
       style="font-size:12px;font-style:normal;font-weight:normal;text-align:justify;line-height:125%;letter-spacing:0px;word-spacing:0px;text-anchor:start;fill:#000000;fill-opacity:1;stroke:none;font-family:Times New Roman;-inkscape-font-specification:Times New Roman"
       transform="matrix(0,-1,1,0,-64.40146,364.59558)"><flowRegion
         id="flowRegion6328"><rect
           id="rect6330"
           width="377.14285"
           height="67.14286"
           x="88.571426"
           y="25.219324" /></flowRegion><flowPara
         id="flowPara6332"
         style="font-size:28px">ANODES</flowPara><flowPara
         id="flowPara6334"
         style="font-size:28px" /></flowRoot>    <text
       xml:space="preserve"
       style="font-size:12px;font-style:normal;font-weight:normal;text-align:justify;line-height:125%;letter-spacing:0px;word-spacing:0px;text-anchor:start;fill:#000000;fill-opacity:1;stroke:none;font-family:Times New Roman;-inkscape-font-specification:Times New Roman"
       x="17.081055"
       y="122.36218"
       id="text6336"
       sodipodi:linespacing="125%"><tspan
         sodipodi:role="line"
         x="17.081055"
         y="122.36218"
         id="tspan6340"
         style="font-size:28px">CATHODES</tspan></text>
    <g
       id="g14712">
      <rect
         y="129.86218"
         x="45"
         height="22.5"
         width="22.5"
         id="rect2987-5-75"
         style="fill:#ffffff;fill-opacity:1;stroke:#9f9f9f;stroke-width:1;stroke-linecap:square;stroke-linejoin:bevel;stroke-miterlimit:4;stroke-opacity:1;stroke-dasharray:none" />
      <rect
         y="129.86218"
         x="67.5"
         height="22.5"
         width="22.5"
         id="rect2987-3-99-19"
         style="fill:#ffffff;fill-opacity:1;stroke:#9f9f9f;stroke-width:1;stroke-linecap:square;stroke-linejoin:bevel;stroke-miterlimit:4;stroke-opacity:1;stroke-dasharray:none" />
      <rect
         y="129.86218"
         x="90"
         height="22.5"
         width="22.5"
         id="rect2987-31-9"
         style="fill:#ffffff;fill-opacity:1;stroke:#9f9f9f;stroke-width:1;stroke-linecap:square;stroke-linejoin:bevel;stroke-miterlimit:4;stroke-opacity:1;stroke-dasharray:none" />
      <rect
         y="129.86218"
         x="112.5"
         height="22.5"
         width="22.5"
         id="rect2987-3-3-1"
         style="fill:#ffffff;fill-opacity:1;stroke:#9f9f9f;stroke-width:1;stroke-linecap:square;stroke-linejoin:bevel;stroke-miterlimit:4;stroke-opacity:1;stroke-dasharray:none" />
      <rect
         y="129.86218"
         x="135"
         height="22.5"
         width="22.5"
         id="rect2987-5-4-0"
         style="fill:#ffffff;fill-opacity:1;stroke:#9f9f9f;stroke-width:1;stroke-linecap:square;stroke-linejoin:bevel;stroke-miterlimit:4;stroke-opacity:1;stroke-dasharray:none" />
      <rect
         y="129.86218"
         x="157.5"
         height="22.5"
         width="22.5"
         id="rect2987-3-99-7-44"
         style="fill:#ffffff;fill-opacity:1;stroke:#9f9f9f;stroke-width:1;stroke-linecap:square;stroke-linejoin:bevel;stroke-miterlimit:4;stroke-opacity:1;stroke-dasharray:none" />
      <rect
         y="152.36218"
         x="0"
         height="22.5"
         width="22.5"
         id="rect2987-6-10"
         style="fill:#ffffff;fill-opacity:1;stroke:#9f9f9f;stroke-width:1;stroke-linecap:square;stroke-linejoin:bevel;stroke-miterlimit:4;stroke-opacity:1;stroke-dasharray:none" />
      <rect
         y="174.86218"
         x="0"
         height="22.5"
         width="22.5"
         id="rect2987-1-29"
         style="fill:#ffffff;fill-opacity:1;stroke:#9f9f9f;stroke-width:1;stroke-linecap:square;stroke-linejoin:bevel;stroke-miterlimit:4;stroke-opacity:1;stroke-dasharray:none" />
      <rect
         y="197.36218"
         x="0"
         height="22.5"
         width="22.5"
         id="rect2987-6-7-32"
         style="fill:#ffffff;fill-opacity:1;stroke:#9f9f9f;stroke-width:1;stroke-linecap:square;stroke-linejoin:bevel;stroke-miterlimit:4;stroke-opacity:1;stroke-dasharray:none" />
      <rect
         y="219.86218"
         x="0"
         height="22.5"
         width="22.5"
         id="rect2987-53-33"
         style="fill:#ffffff;fill-opacity:1;stroke:#9f9f9f;stroke-width:1;stroke-linecap:square;stroke-linejoin:bevel;stroke-miterlimit:4;stroke-opacity:1;stroke-dasharray:none" />
      <rect
         y="242.36218"
         x="0"
         height="22.5"
         width="22.5"
         id="rect2987-6-6-06"
         style="fill:#ffffff;fill-opacity:1;stroke:#9f9f9f;stroke-width:1;stroke-linecap:square;stroke-linejoin:bevel;stroke-miterlimit:4;stroke-opacity:1;stroke-dasharray:none" />
      <rect
         y="264.86218"
         x="0"
         height="22.5"
         width="22.5"
         id="rect2987-1-7-8"
         style="fill:#ffffff;fill-opacity:1;stroke:#9f9f9f;stroke-width:1;stroke-linecap:square;stroke-linejoin:bevel;stroke-miterlimit:4;stroke-opacity:1;stroke-dasharray:none" />
      <rect
         y="287.36218"
         x="0"
         height="22.5"
         width="22.5"
         id="rect2987-6-7-1-94"
         style="fill:#ffffff;fill-opacity:1;stroke:#9f9f9f;stroke-width:1;stroke-linecap:square;stroke-linejoin:bevel;stroke-miterlimit:4;stroke-opacity:1;stroke-dasharray:none" />
      <path
         inkscape:connector-curvature="0"
         d="m 4.395985,158.89865 2.9003906,-1.41504 0.2900391,0 0,10.06348 c -5.3e-6,0.66797 0.026362,1.08399 0.079102,1.24805 0.058588,0.16406 0.1757757,0.29004 0.3515625,0.37793 0.1757754,0.0879 0.5331969,0.13769 1.0722657,0.14941 l 0,0.3252 -4.4824219,0 0,-0.3252 c 0.5624971,-0.0117 0.925778,-0.0586 1.0898438,-0.14062 0.1640589,-0.0879 0.2783166,-0.20215 0.3427734,-0.34278 0.064449,-0.14648 0.096676,-0.57715 0.09668,-1.29199 l 0,-6.43359 c -3.9e-6,-0.86718 -0.029301,-1.42382 -0.087891,-1.66993 -0.041019,-0.18749 -0.1171911,-0.32518 -0.2285156,-0.41308 -0.1054722,-0.0879 -0.2343783,-0.13183 -0.3867187,-0.13184 -0.2167998,1e-5 -0.5185573,0.0908 -0.9052735,0.27246 L 4.395985,158.89865"
         id="path6839"
         style="font-size:18px;font-style:normal;font-weight:normal;text-align:justify;line-height:125%;letter-spacing:0px;word-spacing:0px;text-anchor:start;fill:#000000;fill-opacity:1;stroke:none;font-family:Times New Roman;-inkscape-font-specification:Times New Roman" />
      <path
         inkscape:connector-curvature="0"
         d="m 10.53954,189.85373 -0.8349613,2.29395 -7.03125,0 0,-0.3252 c 2.068357,-1.88672 3.5244102,-3.42773 4.3681641,-4.62305 0.8437444,-1.1953 1.265619,-2.28808 1.265625,-3.27832 -6e-6,-0.75585 -0.2314511,-1.37694 -0.6943359,-1.86328 -0.4628955,-0.48632 -1.0166059,-0.72948 -1.6611328,-0.72949 -0.5859406,1e-5 -1.1132838,0.17286 -1.5820313,0.51855 -0.4628922,0.33986 -0.8056653,0.84083 -1.0283203,1.50293 l -0.3251953,0 c 0.1464835,-1.08397 0.5214831,-1.916 1.125,-2.49609 0.6093725,-0.58007 1.3681608,-0.8701 2.2763672,-0.87012 0.9667918,2e-5 1.772455,0.31056 2.4169922,0.93164 0.6503834,0.62111 0.9755784,1.35353 0.9755859,2.19727 -7.5e-6,0.60352 -0.1406324,1.20704 -0.421875,1.81055 -0.4336004,0.94922 -1.1367247,1.9541 -2.109375,3.01464 -1.4589879,1.59376 -2.3701198,2.55469 -2.7333984,2.88282 l 3.1113281,0 c 0.6328065,0 1.0751889,-0.0234 1.3271484,-0.0703 0.2578056,-0.0469 0.4892507,-0.14062 0.694336,-0.28125 0.2050705,-0.14648 0.3837814,-0.35156 0.5361324,-0.61523 l 0.325196,0"
         id="path6841"
         style="font-size:18px;font-style:normal;font-weight:normal;text-align:justify;line-height:125%;letter-spacing:0px;word-spacing:0px;text-anchor:start;fill:#000000;fill-opacity:1;stroke:none;font-family:Times New Roman;-inkscape-font-specification:Times New Roman" />
      <path
         inkscape:connector-curvature="0"
         d="m 3.2006725,204.99729 c 0.3398425,-0.80273 0.7675764,-1.42089 1.2832031,-1.8545 0.5214817,-0.43944 1.168942,-0.65916 1.9423828,-0.65918 0.9550731,2e-5 1.6874942,0.31056 2.1972657,0.93164 0.386712,0.46291 0.5800712,0.95802 0.5800781,1.48536 -6.9e-6,0.86719 -0.5449283,1.76368 -1.6347656,2.68945 0.7324158,0.28711 1.2861262,0.69727 1.6611328,1.23047 0.3749927,0.53321 0.5624925,1.16016 0.5625,1.88086 -7.5e-6,1.03125 -0.3281322,1.9248 -0.984375,2.68066 -0.8554744,0.98438 -2.094731,1.47656 -3.7177735,1.47656 -0.8027363,0 -1.3505874,-0.0996 -1.6435547,-0.29882 -0.2871102,-0.19922 -0.4306647,-0.41309 -0.430664,-0.64161 -7e-7,-0.16992 0.067382,-0.31933 0.2021484,-0.44824 0.140624,-0.1289 0.307616,-0.19336 0.5009766,-0.19336 0.1464828,0 0.2958967,0.0234 0.4482422,0.0703 0.099607,0.0293 0.3251931,0.1377 0.6767578,0.3252 0.3515596,0.18164 0.5947234,0.29004 0.7294922,0.3252 0.2167933,0.0645 0.4482384,0.0967 0.6943359,0.0967 0.5976517,1e-5 1.1162059,-0.23144 1.5556641,-0.69433 0.4453065,-0.46289 0.6679625,-1.01074 0.6679687,-1.64356 -6.2e-6,-0.46288 -0.1025451,-0.91405 -0.3076172,-1.35351 C 8.0317214,210.07446 7.8647294,209.82543 7.6830944,209.65551 7.4311361,209.42114 7.0854333,209.2102 6.645985,209.0227 6.206528,208.82934 5.7582862,208.73266 5.3012584,208.73266 l -0.28125,0 0,-0.26368 c 0.4628875,-0.0586 0.9257776,-0.22557 1.3886719,-0.50097 0.4687454,-0.27539 0.8085888,-0.60644 1.0195313,-0.99317 0.2109321,-0.38671 0.3164008,-0.81151 0.3164062,-1.27441 -5.4e-6,-0.60351 -0.1904349,-1.08983 -0.5712891,-1.45898 -0.3750045,-0.37499 -0.843754,-0.56249 -1.4062499,-0.5625 -0.9082057,1e-5 -1.6669941,0.48633 -2.2763672,1.45898 l -0.2900391,-0.14062"
         id="path6843"
         style="font-size:18px;font-style:normal;font-weight:normal;text-align:justify;line-height:125%;letter-spacing:0px;word-spacing:0px;text-anchor:start;fill:#000000;fill-opacity:1;stroke:none;font-family:Times New Roman;-inkscape-font-specification:Times New Roman" />
      <path
         inkscape:connector-curvature="0"
         d="m 10.662587,232.75314 0,1.24805 -1.5996098,0 0,3.14649 -1.4501953,0 0,-3.14649 -5.0449219,0 0,-1.125 5.5283203,-7.89258 0.9667969,0 0,7.76953 1.5996098,0 m -3.0498051,0 0,-5.91503 -4.1835938,5.91503 4.1835938,0"
         id="path6845"
         style="font-size:18px;font-style:normal;font-weight:normal;text-align:justify;line-height:125%;letter-spacing:0px;word-spacing:0px;text-anchor:start;fill:#000000;fill-opacity:1;stroke:none;font-family:Times New Roman;-inkscape-font-specification:Times New Roman" />
      <path
         inkscape:connector-curvature="0"
         d="m 10.100087,247.72971 -0.6855473,1.49414 -3.5859375,0 -0.7822266,1.59961 c 1.5527301,0.22852 2.7831976,0.80567 3.6914063,1.73144 0.7792896,0.79688 1.1689377,1.73438 1.1689453,2.8125 -7.6e-6,0.62696 -0.1289138,1.20704 -0.3867188,1.74024 -0.2519601,0.5332 -0.5712957,0.9873 -0.9580078,1.3623 -0.3867246,0.375 -0.8173882,0.67676 -1.2919922,0.90527 -0.6738324,0.32227 -1.365238,0.4834 -2.0742187,0.4834 -0.714846,0 -1.2363298,-0.12011 -1.5644531,-0.36035 -0.3222667,-0.24609 -0.4833993,-0.51562 -0.4833985,-0.80859 -8e-7,-0.16406 0.067382,-0.30762 0.2021485,-0.43067 0.1347644,-0.1289 0.3046861,-0.19335 0.5097656,-0.19336 0.152342,1e-5 0.2841778,0.0234 0.3955078,0.0703 0.1171854,0.0469 0.3134743,0.16699 0.5888672,0.36035 0.4394501,0.30469 0.8847622,0.45703 1.3359375,0.45703 0.6855423,0 1.2861276,-0.25781 1.8017578,-0.77344 0.5214782,-0.52148 0.7822201,-1.15429 0.7822266,-1.89844 -6.5e-6,-0.72069 -0.2314516,-1.39159 -0.694336,-2.01269 -0.4628959,-0.62695 -1.1015672,-1.11035 -1.9160156,-1.4502 -0.6386751,-0.26366 -1.5087914,-0.416 -2.6103516,-0.45703 l 2.2851563,-4.63183 4.2714848,0"
         id="path6847"
         style="font-size:18px;font-style:normal;font-weight:normal;text-align:justify;line-height:125%;letter-spacing:0px;word-spacing:0px;text-anchor:start;fill:#000000;fill-opacity:1;stroke:none;font-family:Times New Roman;-inkscape-font-specification:Times New Roman" />
      <path
         inkscape:connector-curvature="0"
         d="m 10.354969,269.98361 0,0.3252 c -0.7734444,0.0762 -1.4062563,0.23146 -1.8984371,0.46582 -0.4863338,0.22853 -0.9697318,0.58009 -1.4501953,1.05469 -0.4746137,0.47462 -0.8701211,1.00489 -1.1865235,1.59082 -0.3105501,0.58008 -0.571292,1.27149 -0.7822265,2.07422 0.8437464,-0.58008 1.6904252,-0.87011 2.540039,-0.87012 0.814447,1e-5 1.520501,0.32813 2.1181641,0.98437 0.5976483,0.65626 0.8964763,1.50001 0.8964843,2.53125 -8e-6,0.9961 -0.301766,1.9043 -0.9052734,2.72461 -0.7265691,0.9961 -1.6875057,1.49414 -2.8828125,1.49414 -0.8144568,0 -1.5058624,-0.26953 -2.0742187,-0.80859 -1.1132826,-1.04883 -1.6699227,-2.4082 -1.6699219,-4.07813 -8e-7,-1.0664 0.2138662,-2.08007 0.6416016,-3.04101 0.4277325,-0.96093 1.0371069,-1.81347 1.828125,-2.55762 0.7968709,-0.74413 1.5585889,-1.2451 2.2851562,-1.50293 0.7265563,-0.2578 1.4033134,-0.3867 2.0302734,-0.38672 l 0.5097653,0 m -5.4667965,6.15235 c -0.1054712,0.79102 -0.1582056,1.42969 -0.1582031,1.91601 -2.5e-6,0.56251 0.1025365,1.17481 0.3076172,1.83692 0.2109345,0.65625 0.5214811,1.17773 0.9316406,1.56445 0.2988241,0.27539 0.662105,0.41309 1.0898437,0.41309 0.5097604,0 0.9638615,-0.24024 1.3623047,-0.72071 0.4042904,-0.48046 0.6064386,-1.16601 0.6064453,-2.05664 -6.7e-6,-1.00195 -0.1992253,-1.86913 -0.5976562,-2.60156 -0.3984433,-0.73242 -0.9638724,-1.09863 -1.6962891,-1.09863 -0.2226604,0 -0.4628946,0.0469 -0.7207031,0.14062 -0.2519566,0.0938 -0.6269562,0.29591 -1.125,0.60645"
         id="path6849"
         style="font-size:18px;font-style:normal;font-weight:normal;text-align:justify;line-height:125%;letter-spacing:0px;word-spacing:0px;text-anchor:start;fill:#000000;fill-opacity:1;stroke:none;font-family:Times New Roman;-inkscape-font-specification:Times New Roman" />
      <path
         inkscape:connector-curvature="0"
         d="m 4.0971569,292.72971 6.3896481,0 0,0.33398 -3.9726559,11.83008 -0.984375,0 3.5595703,-10.73145 -3.2783203,0 c -0.6621123,10e-6 -1.1337915,0.0791 -1.4150391,0.23731 -0.4921891,0.26954 -0.8876965,0.68556 -1.1865234,1.24805 l -0.2548829,-0.0967 1.1425782,-2.82129"
         id="path6851"
         style="font-size:18px;font-style:normal;font-weight:normal;text-align:justify;line-height:125%;letter-spacing:0px;word-spacing:0px;text-anchor:start;fill:#000000;fill-opacity:1;stroke:none;font-family:Times New Roman;-inkscape-font-specification:Times New Roman" />
      <rect
         y="152.36218"
         x="22.5"
         height="22.5"
         width="22.5"
         id="rect2987-3-0"
         style="fill:#000000;fill-opacity:1;stroke:#000000;stroke-width:1;stroke-linecap:square;stroke-linejoin:bevel;stroke-miterlimit:4;stroke-opacity:1;stroke-dasharray:none" />
      <rect
         y="174.86218"
         x="22.5"
         height="22.5"
         width="22.5"
         id="rect2987-3-9"
         style="fill:#ff00ff;fill-opacity:1;stroke:#000000;stroke-width:1;stroke-linecap:square;stroke-linejoin:bevel;stroke-miterlimit:4;stroke-opacity:1;stroke-dasharray:none" />
      <rect
         y="197.36218"
         x="22.5"
         height="22.5"
         width="22.5"
         id="rect2987-3-0-9"
         style="fill:#00ffff;fill-opacity:1;stroke:#000000;stroke-width:1;stroke-linecap:square;stroke-linejoin:bevel;stroke-miterlimit:4;stroke-opacity:1;stroke-dasharray:none" />
      <rect
         y="174.86218"
         x="45"
         height="22.5"
         width="22.5"
         id="rect2987-1-8"
         style="fill:#000000;fill-opacity:1;stroke:#000000;stroke-width:1;stroke-linecap:square;stroke-linejoin:bevel;stroke-miterlimit:4;stroke-opacity:1;stroke-dasharray:none" />
      <rect
         y="197.36218"
         x="45"
         height="22.5"
         width="22.5"
         id="rect2987-6-7-4"
         style="fill:#00ffff;fill-opacity:1;stroke:#000000;stroke-width:1;stroke-linecap:square;stroke-linejoin:bevel;stroke-miterlimit:4;stroke-opacity:1;stroke-dasharray:none" />
      <rect
         y="197.36218"
         x="67.5"
         height="22.5"
         width="22.5"
         id="rect2987-3-0-9-8"
         style="fill:#000000;fill-opacity:1;stroke:#000000;stroke-width:1;stroke-linecap:square;stroke-linejoin:bevel;stroke-miterlimit:4;stroke-opacity:1;stroke-dasharray:none" />
      <rect
         y="219.86218"
         x="22.5"
         height="22.5"
         width="22.5"
         id="rect2987-3-6"
         style="fill:#ff6600;fill-opacity:1;stroke:#000000;stroke-width:1;stroke-linecap:square;stroke-linejoin:bevel;stroke-miterlimit:4;stroke-opacity:1;stroke-dasharray:none" />
      <rect
         y="242.36218"
         x="22.5"
         height="22.5"
         width="22.5"
         id="rect2987-3-0-1"
         style="fill:#ff0059;fill-opacity:1;stroke:#000000;stroke-width:1;stroke-linecap:square;stroke-linejoin:bevel;stroke-miterlimit:4;stroke-opacity:1;stroke-dasharray:none" />
      <rect
         y="264.86218"
         x="22.5"
         height="22.5"
         width="22.5"
         id="rect2987-3-9-55"
         style="fill:#0097ff;fill-opacity:1;stroke:#000000;stroke-width:1;stroke-linecap:square;stroke-linejoin:bevel;stroke-miterlimit:4;stroke-opacity:1;stroke-dasharray:none" />
      <rect
         y="287.36218"
         x="22.5"
         height="22.5"
         width="22.5"
         id="rect2987-3-0-9-4"
         style="fill:#00ffbc;fill-opacity:1;stroke:#000000;stroke-width:1;stroke-linecap:square;stroke-linejoin:bevel;stroke-miterlimit:4;stroke-opacity:1;stroke-dasharray:none" />
      <rect
         y="219.86218"
         x="45"
         height="22.5"
         width="22.5"
         id="rect2987-5-3"
         style="fill:#ff6600;fill-opacity:1;stroke:#000000;stroke-width:1;stroke-linecap:square;stroke-linejoin:bevel;stroke-miterlimit:4;stroke-opacity:1;stroke-dasharray:none" />
      <rect
         y="219.86218"
         x="67.5"
         height="22.5"
         width="22.5"
         id="rect2987-3-99-74"
         style="fill:#ff6600;fill-opacity:1;stroke:#000000;stroke-width:1;stroke-linecap:square;stroke-linejoin:bevel;stroke-miterlimit:4;stroke-opacity:1;stroke-dasharray:none" />
      <rect
         y="242.36218"
         x="45"
         height="22.5"
         width="22.5"
         id="rect2987-6-2-88"
         style="fill:#00ff00;fill-opacity:1;stroke:#000000;stroke-width:1;stroke-linecap:square;stroke-linejoin:bevel;stroke-miterlimit:4;stroke-opacity:1;stroke-dasharray:none" />
      <rect
         y="242.36218"
         x="67.5"
         height="22.5"
         width="22.5"
         id="rect2987-3-0-2-9"
         style="fill:#00ff00;fill-opacity:1;stroke:#000000;stroke-width:1;stroke-linecap:square;stroke-linejoin:bevel;stroke-miterlimit:4;stroke-opacity:1;stroke-dasharray:none" />
      <rect
         y="264.86218"
         x="45"
         height="22.5"
         width="22.5"
         id="rect2987-1-8-69"
         style="fill:#0097ff;fill-opacity:1;stroke:#000000;stroke-width:1;stroke-linecap:square;stroke-linejoin:bevel;stroke-miterlimit:4;stroke-opacity:1;stroke-dasharray:none" />
      <rect
         y="264.86218"
         x="67.5"
         height="22.5"
         width="22.5"
         id="rect2987-3-9-7-5"
         style="fill:#ff0000;fill-opacity:1;stroke:#000000;stroke-width:1;stroke-linecap:square;stroke-linejoin:bevel;stroke-miterlimit:4;stroke-opacity:1;stroke-dasharray:none" />
      <rect
         y="287.36218"
         x="45"
         height="22.5"
         width="22.5"
         id="rect2987-6-7-4-3"
         style="fill:#00ffbc;fill-opacity:1;stroke:#000000;stroke-width:1;stroke-linecap:square;stroke-linejoin:bevel;stroke-miterlimit:4;stroke-opacity:1;stroke-dasharray:none" />
      <rect
         y="287.36218"
         x="67.5"
         height="22.5"
         width="22.5"
         id="rect2987-3-0-9-8-3"
         style="fill:#00ffbc;fill-opacity:1;stroke:#000000;stroke-width:1;stroke-linecap:square;stroke-linejoin:bevel;stroke-miterlimit:4;stroke-opacity:1;stroke-dasharray:none" />
      <rect
         y="219.86218"
         x="90"
         height="22.5"
         width="22.5"
         id="rect2987-31-1"
         style="fill:#000000;fill-opacity:1;stroke:#000000;stroke-width:1;stroke-linecap:square;stroke-linejoin:bevel;stroke-miterlimit:4;stroke-opacity:1;stroke-dasharray:none" />
      <rect
         y="242.36218"
         x="90"
         height="22.5"
         width="22.5"
         id="rect2987-6-8-7"
         style="fill:#00ff00;fill-opacity:1;stroke:#000000;stroke-width:1;stroke-linecap:square;stroke-linejoin:bevel;stroke-miterlimit:4;stroke-opacity:1;stroke-dasharray:none" />
      <rect
         y="242.36218"
         x="112.5"
         height="22.5"
         width="22.5"
         id="rect2987-3-0-0-8"
         style="fill:#000000;fill-opacity:1;stroke:#000000;stroke-width:1;stroke-linecap:square;stroke-linejoin:bevel;stroke-miterlimit:4;stroke-opacity:1;stroke-dasharray:none" />
      <rect
         y="264.86218"
         x="90"
         height="22.5"
         width="22.5"
         id="rect2987-1-6-6"
         style="fill:#ff0000;fill-opacity:1;stroke:#000000;stroke-width:1;stroke-linecap:square;stroke-linejoin:bevel;stroke-miterlimit:4;stroke-opacity:1;stroke-dasharray:none" />
      <rect
         y="287.36218"
         x="90"
         height="22.5"
         width="22.5"
         id="rect2987-6-7-43-6"
         style="fill:#ffff00;fill-opacity:1;stroke:#000000;stroke-width:1;stroke-linecap:square;stroke-linejoin:bevel;stroke-miterlimit:4;stroke-opacity:1;stroke-dasharray:none" />
      <rect
         y="287.36218"
         x="112.5"
         height="22.5"
         width="22.5"
         id="rect2987-3-0-9-0-0"
         style="fill:#ffff00;fill-opacity:1;stroke:#000000;stroke-width:1;stroke-linecap:square;stroke-linejoin:bevel;stroke-miterlimit:4;stroke-opacity:1;stroke-dasharray:none" />
      <rect
         y="264.86218"
         x="135"
         height="22.5"
         width="22.5"
         id="rect2987-1-8-6-3"
         style="fill:#000000;fill-opacity:1;stroke:#000000;stroke-width:1;stroke-linecap:square;stroke-linejoin:bevel;stroke-miterlimit:4;stroke-opacity:1;stroke-dasharray:none" />
      <rect
         y="287.36218"
         x="135"
         height="22.5"
         width="22.5"
         id="rect2987-6-7-4-4-8"
         style="fill:#ffff00;fill-opacity:1;stroke:#000000;stroke-width:1;stroke-linecap:square;stroke-linejoin:bevel;stroke-miterlimit:4;stroke-opacity:1;stroke-dasharray:none" />
      <rect
         y="287.36218"
         x="157.5"
         height="22.5"
         width="22.5"
         id="rect2987-3-0-9-8-6-0"
         style="fill:#000000;fill-opacity:1;stroke:#000000;stroke-width:1;stroke-linecap:square;stroke-linejoin:bevel;stroke-miterlimit:4;stroke-opacity:1;stroke-dasharray:none" />
      <rect
         y="219.86218"
         x="112.5"
         height="22.5"
         width="22.5"
         id="rect2987-3-9-56"
         style="fill:#cd00ff;fill-opacity:1;stroke:#000000;stroke-width:1;stroke-linecap:square;stroke-linejoin:bevel;stroke-miterlimit:4;stroke-opacity:1;stroke-dasharray:none" />
      <rect
         y="152.36218"
         x="45"
         height="22.5"
         width="22.5"
         id="rect2987-5-5"
         style="fill:#ff5900;fill-opacity:1;stroke:#000000;stroke-width:1;stroke-linecap:square;stroke-linejoin:bevel;stroke-miterlimit:4;stroke-opacity:1;stroke-dasharray:none" />
      <rect
         y="152.36218"
         x="67.5"
         height="22.5"
         width="22.5"
         id="rect2987-3-99-81"
         style="fill:#ff5900;fill-opacity:1;stroke:#000000;stroke-width:1;stroke-linecap:square;stroke-linejoin:bevel;stroke-miterlimit:4;stroke-opacity:1;stroke-dasharray:none" />
      <rect
         y="152.36218"
         x="112.5"
         height="22.5"
         width="22.5"
         id="rect2987-3-0-2-93"
         style="fill:#9900ff;fill-opacity:1;stroke:#000000;stroke-width:1;stroke-linecap:square;stroke-linejoin:bevel;stroke-miterlimit:4;stroke-opacity:1;stroke-dasharray:none" />
      <rect
         y="219.86218"
         x="135"
         height="22.5"
         width="22.5"
         id="rect2987-1-8-2"
         style="fill:#cd00ff;fill-opacity:1;stroke:#000000;stroke-width:1;stroke-linecap:square;stroke-linejoin:bevel;stroke-miterlimit:4;stroke-opacity:1;stroke-dasharray:none" />
      <rect
         y="219.86218"
         x="157.5"
         height="22.5"
         width="22.5"
         id="rect2987-3-9-7-8"
         style="fill:#cd00ff;fill-opacity:1;stroke:#000000;stroke-width:1;stroke-linecap:square;stroke-linejoin:bevel;stroke-miterlimit:4;stroke-opacity:1;stroke-dasharray:none" />
      <rect
         y="152.36218"
         x="90"
         height="22.5"
         width="22.5"
         id="rect2987-31-0"
         style="fill:#ff5900;fill-opacity:1;stroke:#000000;stroke-width:1;stroke-linecap:square;stroke-linejoin:bevel;stroke-miterlimit:4;stroke-opacity:1;stroke-dasharray:none" />
      <rect
         y="174.86218"
         x="67.5"
         height="22.5"
         width="22.5"
         id="rect2987-3-3-74"
         style="fill:#0000ff;fill-opacity:1;stroke:#000000;stroke-width:1;stroke-linecap:square;stroke-linejoin:bevel;stroke-miterlimit:4;stroke-opacity:1;stroke-dasharray:none" />
      <rect
         y="152.36218"
         x="135"
         height="22.5"
         width="22.5"
         id="rect2987-6-8-5"
         style="fill:#9900ff;fill-opacity:1;stroke:#000000;stroke-width:1;stroke-linecap:square;stroke-linejoin:bevel;stroke-miterlimit:4;stroke-opacity:1;stroke-dasharray:none" />
      <rect
         y="152.36218"
         x="157.5"
         height="22.5"
         width="22.5"
         id="rect2987-3-0-0-6"
         style="fill:#9900ff;fill-opacity:1;stroke:#000000;stroke-width:1;stroke-linecap:square;stroke-linejoin:bevel;stroke-miterlimit:4;stroke-opacity:1;stroke-dasharray:none" />
      <rect
         y="197.36218"
         x="90"
         height="22.5"
         width="22.5"
         id="rect2987-1-6-8"
         style="fill:#ffd000;fill-opacity:1;stroke:#000000;stroke-width:1;stroke-linecap:square;stroke-linejoin:bevel;stroke-miterlimit:4;stroke-opacity:1;stroke-dasharray:none" />
      <rect
         y="197.36218"
         x="112.5"
         height="22.5"
         width="22.5"
         id="rect2987-3-9-5-2"
         style="fill:#ffd000;fill-opacity:1;stroke:#000000;stroke-width:1;stroke-linecap:square;stroke-linejoin:bevel;stroke-miterlimit:4;stroke-opacity:1;stroke-dasharray:none" />
      <rect
         y="174.86218"
         x="90"
         height="22.5"
         width="22.5"
         id="rect2987-5-4-4"
         style="fill:#0000ff;fill-opacity:1;stroke:#000000;stroke-width:1;stroke-linecap:square;stroke-linejoin:bevel;stroke-miterlimit:4;stroke-opacity:1;stroke-dasharray:none" />
      <rect
         y="174.86218"
         x="112.5"
         height="22.5"
         width="22.5"
         id="rect2987-3-99-7-3"
         style="fill:#0000ff;fill-opacity:1;stroke:#000000;stroke-width:1;stroke-linecap:square;stroke-linejoin:bevel;stroke-miterlimit:4;stroke-opacity:1;stroke-dasharray:none" />
      <rect
         y="197.36218"
         x="135"
         height="22.5"
         width="22.5"
         id="rect2987-1-8-6-5"
         style="fill:#ffd000;fill-opacity:1;stroke:#000000;stroke-width:1;stroke-linecap:square;stroke-linejoin:bevel;stroke-miterlimit:4;stroke-opacity:1;stroke-dasharray:none" />
      <g
         id="g15487"
         transform="translate(9.2548904,60.106636)">
        <rect
           style="fill:#ffffff;fill-opacity:1;stroke:#9f9f9f;stroke-width:1;stroke-linecap:square;stroke-linejoin:bevel;stroke-miterlimit:4;stroke-opacity:1;stroke-dasharray:none"
           id="rect2987-3-4"
           width="22.5"
           height="22.5"
           x="13.24511"
           y="69.755547" />
        <path
           style="font-size:18px;font-style:normal;font-weight:normal;text-align:justify;line-height:125%;letter-spacing:0px;word-spacing:0px;text-anchor:start;fill:#000000;fill-opacity:1;stroke:none;font-family:Times New Roman;-inkscape-font-specification:Times New Roman"
           id="path6839-6"
           d="m 20.28515,86.602423 -1.41504,-2.90039 0,-0.29003 10.06348,0 c 0.66797,0 1.08399,-0.0264 1.24805,-0.0791 0.16406,-0.0586 0.29004,-0.17577 0.37793,-0.35156 0.0879,-0.17577 0.13769,-0.5332 0.14941,-1.07226 l 0.3252,0 0,4.48242 -0.3252,0 c -0.0117,-0.5625 -0.0586,-0.92578 -0.14062,-1.08985 -0.0879,-0.16406 -0.20215,-0.27831 -0.34278,-0.34277 -0.14648,-0.0644 -0.57715,-0.0967 -1.29199,-0.0967 l -6.43359,0 c -0.86718,0 -1.42382,0.0293 -1.66993,0.0879 -0.18749,0.041 -0.32518,0.11719 -0.41308,0.22852 -0.0879,0.10547 -0.13183,0.23437 -0.13184,0.38672 10e-6,0.21679 0.0908,0.51855 0.27246,0.90527 l -0.27246,0.13183"
           inkscape:connector-curvature="0" />
      </g>
      <path
         inkscape:connector-curvature="0"
         d="m 60.49512,140.56551 2.29395,0.83496 0,7.03125 -0.3252,0 c -1.88672,-2.06836 -3.42773,-3.52441 -4.62305,-4.36816 -1.1953,-0.84375 -2.28808,-1.26562 -3.27832,-1.26563 -0.75585,1e-5 -1.37694,0.23145 -1.86328,0.69434 -0.48632,0.46289 -0.72948,1.0166 -0.72949,1.66113 1e-5,0.58594 0.17286,1.11328 0.51855,1.58203 0.33986,0.46289 0.84083,0.80567 1.50293,1.02832 l 0,0.3252 c -1.08397,-0.14649 -1.916,-0.52149 -2.49609,-1.125 -0.58007,-0.60937 -0.8701,-1.36816 -0.87012,-2.27637 2e-5,-0.96679 0.31056,-1.77245 0.93164,-2.41699 0.62111,-0.65039 1.35353,-0.97558 2.19727,-0.97559 0.60352,1e-5 1.20704,0.14063 1.81055,0.42188 0.94922,0.4336 1.9541,1.13672 3.01464,2.10937 1.59376,1.45899 2.55469,2.37012 2.88282,2.7334 l 0,-3.11133 c 0,-0.6328 -0.0234,-1.07519 -0.0703,-1.32715 -0.0469,-0.2578 -0.14062,-0.48925 -0.28125,-0.69433 -0.14648,-0.20507 -0.35156,-0.38378 -0.61523,-0.53613 l 0,-0.3252"
         id="path6841-3"
         style="font-size:18px;font-style:normal;font-weight:normal;text-align:justify;line-height:125%;letter-spacing:0px;word-spacing:0px;text-anchor:start;fill:#000000;fill-opacity:1;stroke:none;font-family:Times New Roman;-inkscape-font-specification:Times New Roman" />
      <path
         inkscape:connector-curvature="0"
         d="m 75.63868,147.90438 c -0.80273,-0.33985 -1.42089,-0.76758 -1.8545,-1.28321 -0.43944,-0.52148 -0.65916,-1.16894 -0.65918,-1.94238 2e-5,-0.95507 0.31056,-1.68749 0.93164,-2.19726 0.46291,-0.38672 0.95802,-0.58008 1.48536,-0.58008 0.86719,0 1.76368,0.54493 2.68945,1.63476 0.28711,-0.73241 0.69727,-1.28612 1.23047,-1.66113 0.53321,-0.37499 1.16016,-0.56249 1.88086,-0.5625 1.03125,1e-5 1.9248,0.32813 2.68066,0.98438 0.98438,0.85547 1.47656,2.09473 1.47656,3.71777 0,0.80274 -0.0996,1.35059 -0.29882,1.64355 -0.19922,0.28711 -0.41309,0.43067 -0.64161,0.43067 -0.16992,0 -0.31933,-0.0674 -0.44824,-0.20215 -0.1289,-0.14062 -0.19336,-0.30762 -0.19336,-0.50098 0,-0.14648 0.0234,-0.29589 0.0703,-0.44824 0.0293,-0.0996 0.1377,-0.32519 0.3252,-0.67676 0.18164,-0.35156 0.29004,-0.59472 0.3252,-0.72949 0.0645,-0.21679 0.0967,-0.44824 0.0967,-0.69434 1e-5,-0.59765 -0.23144,-1.1162 -0.69433,-1.55566 -0.46289,-0.44531 -1.01074,-0.66796 -1.64356,-0.66797 -0.46288,1e-5 -0.91405,0.10255 -1.35351,0.30762 -0.32812,0.15235 -0.57715,0.31934 -0.74707,0.50098 -0.23437,0.25195 -0.44531,0.59766 -0.63281,1.0371 -0.19336,0.43946 -0.29004,0.8877 -0.29004,1.34473 l 0,0.28125 -0.26368,0 c -0.0586,-0.46289 -0.22557,-0.92578 -0.50097,-1.38867 -0.27539,-0.46875 -0.60644,-0.80859 -0.99317,-1.01953 -0.38671,-0.21093 -0.81151,-0.3164 -1.27441,-0.31641 -0.60351,1e-5 -1.08983,0.19044 -1.45898,0.57129 -0.37499,0.37501 -0.56249,0.84376 -0.5625,1.40625 1e-5,0.90821 0.48633,1.667 1.45898,2.27637 l -0.14062,0.29004"
         id="path6843-9"
         style="font-size:18px;font-style:normal;font-weight:normal;text-align:justify;line-height:125%;letter-spacing:0px;word-spacing:0px;text-anchor:start;fill:#000000;fill-opacity:1;stroke:none;font-family:Times New Roman;-inkscape-font-specification:Times New Roman" />
      <path
         inkscape:connector-curvature="0"
         d="m 103.39453,140.44246 1.24805,0 0,1.59961 3.14649,0 0,1.4502 -3.14649,0 0,5.04492 -1.125,0 -7.89258,-5.52832 0,-0.9668 7.76953,0 0,-1.59961 m 0,3.04981 -5.91503,0 5.91503,4.18359 0,-4.18359"
         id="path6845-4"
         style="font-size:18px;font-style:normal;font-weight:normal;text-align:justify;line-height:125%;letter-spacing:0px;word-spacing:0px;text-anchor:start;fill:#000000;fill-opacity:1;stroke:none;font-family:Times New Roman;-inkscape-font-specification:Times New Roman" />
      <path
         inkscape:connector-curvature="0"
         d="m 118.3711,141.00496 1.49414,0.68555 0,3.58594 1.59961,0.78222 c 0.22852,-1.55273 0.80567,-2.78319 1.73144,-3.6914 0.79688,-0.77929 1.73438,-1.16894 2.8125,-1.16895 0.62696,1e-5 1.20704,0.12892 1.74024,0.38672 0.5332,0.25196 0.9873,0.5713 1.3623,0.95801 0.375,0.38672 0.67676,0.81739 0.90527,1.29199 0.32227,0.67383 0.4834,1.36524 0.4834,2.07422 0,0.71485 -0.12011,1.23633 -0.36035,1.56445 -0.24609,0.32227 -0.51562,0.4834 -0.80859,0.4834 -0.16406,0 -0.30762,-0.0674 -0.43067,-0.20215 -0.1289,-0.13476 -0.19335,-0.30468 -0.19336,-0.50976 1e-5,-0.15234 0.0234,-0.28418 0.0703,-0.39551 0.0469,-0.11719 0.16699,-0.31347 0.36035,-0.58887 0.30469,-0.43945 0.45703,-0.88476 0.45703,-1.33593 0,-0.68555 -0.25781,-1.28613 -0.77344,-1.80176 -0.52148,-0.52148 -1.15429,-0.78222 -1.89844,-0.78223 -0.72069,1e-5 -1.39159,0.23145 -2.01269,0.69434 -0.62695,0.46289 -1.11035,1.10156 -1.4502,1.91601 -0.26366,0.63868 -0.416,1.50879 -0.45703,2.61035 l -4.63183,-2.28515 0,-4.27149"
         id="path6847-2"
         style="font-size:18px;font-style:normal;font-weight:normal;text-align:justify;line-height:125%;letter-spacing:0px;word-spacing:0px;text-anchor:start;fill:#000000;fill-opacity:1;stroke:none;font-family:Times New Roman;-inkscape-font-specification:Times New Roman" />
      <path
         inkscape:connector-curvature="0"
         d="m 140.625,140.75008 0.3252,0 c 0.0762,0.77345 0.23146,1.40626 0.46582,1.89844 0.22853,0.48633 0.58009,0.96973 1.05469,1.45019 0.47462,0.47462 1.00489,0.87012 1.59082,1.18653 0.58008,0.31055 1.27149,0.57129 2.07422,0.78222 -0.58008,-0.84374 -0.87011,-1.69042 -0.87012,-2.54004 1e-5,-0.81444 0.32813,-1.5205 0.98437,-2.11816 0.65626,-0.59765 1.50001,-0.89648 2.53125,-0.89648 0.9961,0 1.9043,0.30176 2.72461,0.90527 0.9961,0.72657 1.49414,1.68751 1.49414,2.88281 0,0.81446 -0.26953,1.50586 -0.80859,2.07422 -1.04883,1.11328 -2.4082,1.66992 -4.07813,1.66992 -1.0664,0 -2.08007,-0.21386 -3.04101,-0.6416 -0.96093,-0.42773 -1.81347,-1.03711 -2.55762,-1.82812 -0.74413,-0.79687 -1.2451,-1.55859 -1.50293,-2.28516 -0.2578,-0.72656 -0.3867,-1.40331 -0.38672,-2.03027 l 0,-0.50977 m 6.15235,5.4668 c 0.79102,0.10547 1.42969,0.1582 1.91601,0.1582 0.56251,0 1.17481,-0.10254 1.83692,-0.30762 0.65625,-0.21093 1.17773,-0.52148 1.56445,-0.93164 0.27539,-0.29882 0.41309,-0.6621 0.41309,-1.08984 0,-0.50976 -0.24024,-0.96386 -0.72071,-1.36231 -0.48046,-0.40429 -1.16601,-0.60643 -2.05664,-0.60644 -1.00195,1e-5 -1.86913,0.19922 -2.60156,0.59766 -0.73242,0.39844 -1.09863,0.96387 -1.09863,1.69628 0,0.22266 0.0469,0.4629 0.14062,0.72071 0.0938,0.25195 0.29591,0.62695 0.60645,1.125"
         id="path6849-4"
         style="font-size:18px;font-style:normal;font-weight:normal;text-align:justify;line-height:125%;letter-spacing:0px;word-spacing:0px;text-anchor:start;fill:#000000;fill-opacity:1;stroke:none;font-family:Times New Roman;-inkscape-font-specification:Times New Roman" />
      <path
         inkscape:connector-curvature="0"
         d="m 163.3711,147.00789 0,-6.38965 0.33398,0 11.83008,3.97266 0,0.98438 -10.73145,-3.55957 0,3.27832 c 1e-5,0.66211 0.0791,1.13379 0.23731,1.41503 0.26954,0.49219 0.68556,0.8877 1.24805,1.18653 l -0.0967,0.25488 -2.82129,-1.14258"
         id="path6851-6"
         style="font-size:18px;font-style:normal;font-weight:normal;text-align:justify;line-height:125%;letter-spacing:0px;word-spacing:0px;text-anchor:start;fill:#000000;fill-opacity:1;stroke:none;font-family:Times New Roman;-inkscape-font-specification:Times New Roman" />
      <rect
         y="264.86218"
         x="112.5"
         height="22.5"
         width="22.5"
         id="rect2987-3-0-9-0-0-1"
         style="fill:#ff0000;fill-opacity:1;stroke:#000000;stroke-width:1;stroke-linecap:square;stroke-linejoin:bevel;stroke-miterlimit:4;stroke-opacity:1;stroke-dasharray:none" />
      <rect
         y="174.86218"
         x="135"
         height="22.5"
         width="22.5"
         id="rect2987-3-9-52"
         style="fill:#ff00ff;fill-opacity:1;stroke:#000000;stroke-width:1;stroke-linecap:square;stroke-linejoin:bevel;stroke-miterlimit:4;stroke-opacity:1;stroke-dasharray:none" />
      <rect
         y="174.86218"
         x="157.5"
         height="22.5"
         width="22.5"
         id="rect2987-3-9-4"
         style="fill:#ff00ff;fill-opacity:1;stroke:#000000;stroke-width:1;stroke-linecap:square;stroke-linejoin:bevel;stroke-miterlimit:4;stroke-opacity:1;stroke-dasharray:none" />
      <rect
         y="242.36218"
         x="135"
         height="22.5"
         width="22.5"
         id="rect2987-3-0-1-3"
         style="fill:#ff0059;fill-opacity:1;stroke:#000000;stroke-width:1;stroke-linecap:square;stroke-linejoin:bevel;stroke-miterlimit:4;stroke-opacity:1;stroke-dasharray:none" />
      <rect
         y="242.36218"
         x="157.5"
         height="22.5"
         width="22.5"
         id="rect2987-3-0-1-4"
         style="fill:#ff0059;fill-opacity:1;stroke:#000000;stroke-width:1;stroke-linecap:square;stroke-linejoin:bevel;stroke-miterlimit:4;stroke-opacity:1;stroke-dasharray:none" />
      <rect
         y="264.86218"
         x="157.5"
         height="22.5"
         width="22.5"
         id="rect2987-1-8-69-8"
         style="fill:#0097ff;fill-opacity:1;stroke:#000000;stroke-width:1;stroke-linecap:square;stroke-linejoin:bevel;stroke-miterlimit:4;stroke-opacity:1;stroke-dasharray:none" />
      <rect
         y="197.36218"
         x="157.5"
         height="22.5"
         width="22.5"
         id="rect2987-3-0-9-30"
         style="fill:#00ffff;fill-opacity:1;stroke:#000000;stroke-width:1;stroke-linecap:square;stroke-linejoin:bevel;stroke-miterlimit:4;stroke-opacity:1;stroke-dasharray:none" />
    </g>
  </g>
</svg>
