<?xml version="1.0" encoding="UTF-8" standalone="no"?>
<!-- Created with Inkscape (http://www.inkscape.org/) -->

<svg
   xmlns:dc="http://purl.org/dc/elements/1.1/"
   xmlns:cc="http://creativecommons.org/ns#"
   xmlns:rdf="http://www.w3.org/1999/02/22-rdf-syntax-ns#"
   xmlns:svg="http://www.w3.org/2000/svg"
   xmlns="http://www.w3.org/2000/svg"
   xmlns:sodipodi="http://sodipodi.sourceforge.net/DTD/sodipodi-0.dtd"
   xmlns:inkscape="http://www.inkscape.org/namespaces/inkscape"
   width="110.16527mm"
   height="85.649597mm"
   viewBox="0 0 110.16527 85.649597"
   version="1.1"
   id="svg8"
   inkscape:version="0.92.5 (2060ec1f9f, 2020-04-08)"
   sodipodi:docname="brain_tracing_4.svg">
  <defs
     id="defs2" />
  <sodipodi:namedview
     id="base"
     pagecolor="#ffffff"
     bordercolor="#666666"
     borderopacity="1.0"
     inkscape:pageopacity="0.0"
     inkscape:pageshadow="2"
     inkscape:zoom="0.52221046"
     inkscape:cx="502.50018"
     inkscape:cy="196.4114"
     inkscape:document-units="mm"
     inkscape:current-layer="g3567"
     showgrid="false"
     inkscape:window-width="1920"
     inkscape:window-height="1023"
     inkscape:window-x="0"
     inkscape:window-y="0"
     inkscape:window-maximized="1"
     inkscape:snap-global="false"
     showguides="false"
     fit-margin-top="0"
     fit-margin-left="0"
     fit-margin-right="0"
     fit-margin-bottom="0" />
  <metadata
     id="metadata5">
    <rdf:RDF>
      <cc:Work
         rdf:about="">
        <dc:format>image/svg+xml</dc:format>
        <dc:type
           rdf:resource="http://purl.org/dc/dcmitype/StillImage" />
        <dc:title></dc:title>
      </cc:Work>
    </rdf:RDF>
  </metadata>
  <g
     inkscape:label="Layer 1"
     inkscape:groupmode="layer"
     id="layer1"
     transform="translate(-55.389199,-117.45501)">
    <g
       id="g3567"
       transform="matrix(-0.98798686,-0.15453788,-0.15453788,0.98798686,-67.08679,-49.351426)">
      <path
         inkscape:connector-curvature="0"
         id="path6580"
         d="m -192.69989,225.16252 c -0.43607,-0.24528 -2.2745,-0.73252 -4.08539,-1.08274 -5.04076,-0.97488 -5.08266,-0.99529 -8.36572,-4.07669 -2.22185,-2.08537 -3.18463,-3.65119 -3.23333,-5.25849 -0.0208,-0.687 -0.16346,-1.35679 -0.31699,-1.48842 -0.68243,-0.58506 1.18024,-4.25371 2.08766,-4.11178 0.14081,0.022 0.29282,-0.19522 0.33779,-0.48276 0.045,-0.28755 -0.0595,-0.54491 -0.23216,-0.57192 -0.17266,-0.027 -0.16531,-0.34721 0.0163,-0.71157 0.19101,-0.38313 0.17166,-0.68729 -0.0459,-0.72131 -0.61831,-0.0967 0.42868,-2.89836 1.28537,-3.43954 0.42257,-0.26694 0.76399,-0.58846 0.75872,-0.71448 -0.005,-0.12603 0.12342,-0.31545 0.28596,-0.42095 0.16255,-0.1055 0.13329,0.008 -0.065,0.25328 -0.24446,0.30178 -0.21646,0.38445 0.087,0.25673 0.85715,-0.36079 0.11707,-0.9843 -1.15965,-0.977 -0.69969,0.004 -1.41771,-0.15769 -1.59559,-0.35932 -0.19181,-0.21742 -1.13636,-0.27534 -2.32124,-0.14235 -1.09881,0.12332 -2.53203,0.2717 -3.18493,0.32973 -0.6529,0.058 -1.40246,0.22743 -1.66569,0.37647 -0.26322,0.14903 -1.1232,0.28303 -1.91105,0.29778 -0.78786,0.0147 -3.47538,0.65975 -5.97228,1.43333 -4.48484,1.38949 -4.57653,1.40077 -7.57267,0.93213 -2.89227,-0.4524 -4.99855,-1.37745 -4.87885,-2.14272 0.0244,-0.15572 -0.47631,-0.38471 -1.11261,-0.50889 -0.63628,-0.12417 -1.56182,-0.45681 -2.05674,-0.73919 -0.49492,-0.28238 -1.05743,-0.44709 -1.25002,-0.36602 -0.19258,0.0811 -0.31237,-0.0941 -0.2662,-0.38935 0.0462,-0.29521 -0.27978,-0.69098 -0.72434,-0.8795 -1.42664,-0.60496 -3.42237,-4.18359 -3.60394,-6.46239 -0.13095,-1.64352 -1.12917,-3.0014 -2.35085,-3.19787 -1.39583,-0.22447 -2.65843,-0.77441 -2.41905,-1.05361 0.10056,-0.11729 -0.36333,-0.23454 -1.03084,-0.26054 -0.87413,-0.0341 -1.24888,-0.21142 -1.33949,-0.63398 -0.1618,-0.75449 -2.14239,-2.46051 -2.6221,-2.25859 -0.20147,0.0848 -0.81471,-0.37923 -1.36274,-1.03121 -0.54804,-0.65197 -1.45889,-1.52145 -2.02411,-1.93217 -1.05671,-0.76786 -1.31321,-1.17825 -2.6992,-4.31863 -0.53907,-1.22143 -0.70862,-2.11062 -0.5088,-2.66832 0.16483,-0.46005 0.1646,-0.85758 -5.2e-4,-0.88341 -0.16511,-0.0258 -0.2413,-0.42357 -0.1693,-0.88388 0.0902,-0.57663 -0.19239,-1.10278 -0.9086,-1.69174 -0.63252,-0.52013 -1.03091,-1.1904 -1.01755,-1.71196 0.0458,-1.7864 1.64773,-10.63192 2.03811,-11.25381 1.27224,-2.02679 1.50014,-2.60385 1.50131,-3.80147 0.001,-1.45966 4.77638,-6.5916 6.57856,-7.0704 0.45927,-0.12202 0.85376,-0.3415 0.87664,-0.48774 0.0229,-0.14625 0.26207,-0.23141 0.53155,-0.18926 0.26948,0.0421 1.08671,-0.59325 1.81606,-1.412 0.72935,-0.81876 1.46624,-1.58077 1.63752,-1.69336 0.17129,-0.11259 0.97676,-0.6495 1.78995,-1.19314 0.81318,-0.54363 1.54467,-0.89773 1.62553,-0.78688 0.0809,0.11084 0.6922,-0.12849 1.35853,-0.53186 0.66633,-0.40336 1.81105,-0.74438 2.54382,-0.75781 1.40251,-0.0257 2.68956,-0.47121 4.03739,-1.3975 1.43664,-0.98733 5.54899,-1.94658 8.53305,-1.99044 0.78736,-0.0116 1.72846,-0.20793 2.09134,-0.43635 0.72223,-0.45463 1.37842,-0.47656 5.31498,-0.1776 1.45039,0.11015 2.81792,0.099 3.03894,-0.0248 1.29761,-0.72667 9.04185,-0.24897 11.76681,0.72583 1.61122,0.57638 1.89571,0.57683 3.10719,0.005 1.36394,-0.6439 3.23471,-0.45446 3.85069,0.38994 0.38109,0.52242 3.1689,0.95728 3.519,0.5489 0.49899,-0.58203 3.47598,0.14539 4.64295,1.1345 0.90703,0.76877 1.58123,0.99721 3.78753,1.2833 2.05196,0.26608 2.97385,0.55479 3.91452,1.2259 0.67674,0.48282 1.68357,1.06269 2.2374,1.28859 4.3937,1.79216 12.26628,9.85706 12.65848,12.96772 0.0931,0.73869 0.55219,1.41225 1.4048,2.06127 1.45221,1.10544 1.92009,1.79264 2.03602,2.99045 0.0451,0.46622 0.56245,1.56295 1.1496,2.43719 1.75382,2.61133 2.0666,3.5232 1.67042,4.8699 -0.3115,1.05881 -0.24027,1.31467 0.546,1.96193 1.65954,1.36612 3.26312,8.75098 2.73845,12.6112 -0.11916,0.87659 -0.0748,1.616 0.0986,1.64312 0.17341,0.0271 0.37351,0.33962 0.44468,0.69443 0.0712,0.35481 0.41793,1.18745 0.77058,1.8503 0.35264,0.66286 0.61486,1.37344 0.58269,1.57908 -0.0322,0.20563 0.16104,1.18477 0.42935,2.17585 1.25098,4.62093 0.54708,7.17407 -2.99645,10.86864 -2.11882,2.20912 -2.39315,2.3542 -4.93441,2.60948 -2.30311,0.23137 -2.30311,0.23137 -2.8876,2.45287 -0.66362,2.52225 -2.13639,5.55831 -3.8513,7.93932 -1.26449,1.75565 -1.80122,2.12429 -0.97632,0.67057 0.37515,-0.66115 0.3924,-0.81588 0.0646,-0.57968 -0.24594,0.17721 -0.54154,0.71839 -0.65691,1.20263 -0.26321,1.10482 -4.05362,4.98831 -4.76078,4.87769 -0.2886,-0.0451 -0.55561,0.11547 -0.59338,0.3569 -0.11926,0.76246 -6.04367,2.88976 -7.43969,2.6714 -0.43707,-0.0684 -1.6827,0.1318 -2.76806,0.44482 -2.20451,0.63577 -4.45896,0.61156 -5.65413,-0.0607 z m 3.72333,-0.78377 c 0.56103,-0.22054 -1.30047,-0.73869 -3.4217,-0.95244 -0.77836,-0.0784 -0.79971,-0.1188 -0.18681,-0.35304 0.4826,-0.18445 1.33428,-0.0462 2.81435,0.4567 2.89847,0.98495 3.00966,0.99129 2.71731,0.15484 -0.25224,-0.72171 0.3041,-1.42377 1.05348,-1.32939 0.20223,0.0255 1.37757,-0.27273 2.61188,-0.66266 1.23432,-0.38993 2.54811,-0.66143 2.91954,-0.60334 0.37143,0.0581 1.39063,-0.17586 2.26489,-0.51993 0.92978,-0.36591 1.87362,-0.50178 2.27394,-0.32734 0.37642,0.16402 0.82453,0.13476 0.9958,-0.065 0.55402,-0.64622 0.0338,-0.80051 -1.76505,-0.52349 -2.93034,0.45127 -4.21468,0.43563 -3.96465,-0.0483 0.12033,-0.23289 0.83819,-0.49908 1.59525,-0.59154 0.79418,-0.097 1.27358,-0.32155 1.13325,-0.53084 -0.1427,-0.21283 -0.005,-0.23286 0.33251,-0.0485 0.31664,0.17285 0.59675,0.17977 0.62246,0.0154 0.0257,-0.16438 0.24166,-0.26093 0.47989,-0.21454 1.41399,0.27528 2.34968,0.19826 3.01931,-0.24853 0.78595,-0.52439 2.09851,-2.62008 1.85234,-2.95753 -0.3027,-0.41495 -2.97801,0.2303 -3.88627,0.93732 -0.96131,0.74831 -0.96131,0.74831 0.29444,0.94473 0.69066,0.10803 1.54077,-0.0115 1.88913,-0.26562 0.53653,-0.39139 0.62116,-0.38399 0.55353,0.0484 -0.12485,0.79822 -3.13559,0.92697 -3.69647,0.15809 -0.45216,-0.61984 2.0675,-2.28083 3.47997,-2.29403 3.01234,-0.0282 3.94312,-0.75488 4.44772,-3.47258 0.21559,-1.16121 0.14678,-1.32501 -0.62267,-1.48197 -0.58632,-0.1196 -0.6605,-0.19708 -0.23019,-0.24045 1.33994,-0.13505 0.6497,-0.72586 -1.25962,-1.07819 -1.99554,-0.36823 -1.99554,-0.36823 -0.21546,-0.33467 0.97905,0.0185 1.59281,-0.021 1.36392,-0.0876 -0.22889,-0.0667 -0.29845,-0.32604 -0.15458,-0.57642 0.15693,-0.27309 0.53413,-0.33646 0.94279,-0.15839 0.3895,0.16972 0.84541,0.10945 1.06468,-0.14073 0.65049,-0.74219 0.51502,-0.94303 -0.60422,-0.89573 -0.67395,0.0285 -1.26554,-0.16767 -1.57971,-0.52382 -0.27625,-0.31314 -1.36642,-0.79362 -2.42261,-1.06773 -1.92034,-0.49838 -1.92034,-0.49838 0.46127,-0.28492 1.81005,0.16223 2.32494,0.31171 2.14545,0.62286 -0.16892,0.29283 0.23261,0.47933 1.41028,0.65504 1.64644,0.24564 1.64644,0.24564 0.93083,-0.56853 -0.39358,-0.44781 -1.04829,-0.88477 -1.45491,-0.97102 -0.40663,-0.0862 -0.89046,-0.2178 -1.07519,-0.29233 -0.18473,-0.0745 -0.85114,-0.24056 -1.4809,-0.36898 -0.72146,-0.14713 -1.03728,-0.35915 -0.85376,-0.57321 0.18101,-0.21114 0.95797,-0.15935 2.0528,0.13684 1.76156,0.47655 1.76156,0.47655 0.31116,-0.5234 -1.27523,-0.8792 -2.48772,-1.23061 -4.87097,-1.41173 -0.34159,-0.026 -0.80464,-0.29885 -1.029,-0.60641 -0.60497,-0.82933 3.01301,-0.29096 5.06227,0.75329 2.0541,1.04671 2.85009,0.91224 1.21711,-0.20562 -0.80672,-0.55224 -2.08172,-1.00271 -3.52526,-1.2455 -1.24379,-0.20919 -2.32488,-0.48841 -2.40241,-0.62048 -0.0775,-0.13207 -1.51644,-0.17824 -3.19756,-0.1026 -1.68112,0.0756 -2.76519,0.24521 -2.40905,0.37685 0.43076,0.15922 0.13978,0.29303 -0.8692,0.3997 -1.33785,0.14145 -1.45559,0.10643 -0.99839,-0.29694 0.51748,-0.45653 0.10887,-0.47706 -1.76538,-0.0887 -0.25371,0.0526 -0.43413,-0.0781 -0.40094,-0.29025 0.0744,-0.47586 -0.2835,-0.54077 -1.04165,-0.18889 -0.49989,0.23201 -0.49743,0.35168 0.0183,0.89006 0.3277,0.34211 0.41826,0.59424 0.20123,0.56029 -0.21702,-0.0339 -0.46817,-0.23653 -0.5581,-0.45018 -0.0899,-0.21366 -0.32644,-0.31989 -0.52557,-0.23607 -0.19914,0.0838 -0.27994,0.35499 -0.17958,0.6026 0.11132,0.27464 -0.0121,0.23472 -0.31653,-0.10239 -0.36439,-0.40351 -0.68391,-0.4805 -1.18437,-0.28538 -0.37695,0.14697 -0.49006,0.30265 -0.25135,0.34596 0.23871,0.0433 0.40683,0.25259 0.37359,0.46507 -0.0362,0.2312 -0.37565,0.25265 -0.84548,0.0534 -0.57998,-0.24594 -1.04194,-0.12519 -1.76837,0.46223 -0.98332,0.79513 -0.98332,0.79513 0.27187,0.18961 0.69035,-0.33304 1.22898,-0.438 1.19695,-0.23325 -0.0848,0.54223 1.04222,0.63019 2.69082,0.21 1.52475,-0.38862 2.98129,-0.21171 4.33531,0.52656 2.24669,1.22499 2.21733,1.17149 0.69786,1.27153 -1.14447,0.0753 -1.50192,-0.0272 -1.74633,-0.50105 -0.75064,-1.45527 -4.30412,-1.07597 -7.40433,0.79034 -1.03814,0.62495 -2.03828,1.11269 -2.22253,1.08387 -0.18426,-0.0288 -1.06653,0.3208 -1.96061,0.77694 -0.89407,0.45613 -1.76171,0.71264 -1.92807,0.57001 -0.16636,-0.14263 -0.33132,-0.0749 -0.36657,0.15044 -0.0373,0.23825 0.23981,0.37908 0.662,0.33645 0.46191,-0.0466 0.62035,0.05 0.43547,0.26569 -0.189,0.22045 -0.0445,0.29353 0.41316,0.20898 0.6823,-0.12605 0.68064,-0.11727 -0.0547,0.28783 -0.41716,0.22981 -0.92417,0.38946 -1.1267,0.35478 -0.20254,-0.0345 -0.10693,-0.19265 0.21242,-0.35103 0.51613,-0.25597 0.51995,-0.2804 0.0344,-0.21991 -0.30044,0.0374 -0.53939,0.34977 -0.53102,0.69409 0.0106,0.43665 -0.11056,0.52078 -0.40057,0.27809 -0.30151,-0.25231 -0.30518,-0.15778 -0.0134,0.34397 0.22134,0.38056 0.66064,0.6538 0.97623,0.60721 0.31558,-0.0466 1.1115,-0.16395 1.76869,-0.26082 0.69967,-0.10312 1.09023,-0.054 0.94234,0.11848 -0.13892,0.16203 -0.48072,0.25892 -0.75955,0.21531 -0.27883,-0.0436 -0.83438,0.0603 -1.23454,0.23096 -0.69424,0.29605 -0.69046,0.33754 0.0825,0.90558 1.08688,0.79871 1.32244,0.80108 1.71321,0.0173 0.18298,-0.36701 0.46416,-0.55456 0.62486,-0.41679 0.1607,0.13777 0.31816,0.0844 0.34991,-0.11861 0.0318,-0.20301 0.21458,-0.34458 0.40628,-0.3146 0.54715,0.0856 0.33341,0.56257 -0.56991,1.2718 -0.66372,0.52111 -1.26545,0.59555 -3.00394,0.37162 -1.41711,-0.18253 -1.73552,-0.16324 -0.9146,0.0554 1.29881,0.34594 2.50326,1.56133 1.3719,1.38436 -0.36794,-0.0576 -0.61221,0.21023 -0.69922,0.76655 -0.16811,1.07475 1.20283,2.03724 3.86083,2.71057 2.0596,0.52175 4.04314,1.54497 3.96488,2.04531 -0.0274,0.17499 -0.53684,0.12552 -1.1431,-0.11102 -0.60155,-0.23469 -2.0282,-0.68406 -3.17033,-0.9986 -2.2893,-0.63046 -3.42079,-1.59223 -4.46078,-3.79167 -0.34709,-0.73406 -0.7792,-1.3779 -0.96024,-1.43076 -0.18104,-0.0528 -0.46525,-0.1375 -0.63159,-0.18806 -0.16634,-0.0506 -0.56929,-0.53538 -0.89543,-1.07737 -0.60938,-1.01264 -1.59453,-0.72609 -1.37148,0.39891 0.0489,0.24685 -0.10207,0.52925 -0.33562,0.62755 -0.24198,0.10185 -0.30273,0.0366 -0.14125,-0.15178 0.15585,-0.18177 0.0537,-0.46247 -0.22696,-0.62375 -0.28067,-0.16129 -0.38799,-0.43593 -0.23848,-0.61032 0.14951,-0.17439 0.0273,-0.35531 -0.27155,-0.40206 -0.83127,-0.13003 -0.75214,0.54049 0.22127,1.87488 0.48514,0.66504 0.86934,1.29052 0.85379,1.38996 -0.0156,0.0994 0.21572,0.66883 0.51395,1.26533 0.4529,0.90588 0.45326,1.10361 0.002,1.20034 -0.29701,0.0637 -0.61276,-0.0571 -0.70169,-0.2683 -0.10418,-0.24749 -0.39181,-0.26132 -0.80876,-0.0389 -0.51997,0.27742 -0.5576,0.27076 -0.19155,-0.0339 0.34079,-0.28367 0.29415,-0.84793 -0.18517,-2.24041 -0.7485,-2.17448 -1.09012,-2.38117 -1.35211,-0.81807 -0.18952,1.13082 -0.18952,1.13082 -0.5288,0.20308 -0.18661,-0.51027 -0.22911,-1.11947 -0.0945,-1.35378 0.13465,-0.23432 0.0712,-0.45319 -0.14102,-0.48638 -0.2122,-0.0332 -0.44316,0.29221 -0.51325,0.72312 -0.0703,0.43088 -0.28744,1.1451 -0.48303,1.58708 -0.23357,0.52785 -0.216,0.74486 0.0512,0.63238 0.26426,-0.11123 0.28853,0.0919 0.0693,0.57987 -0.27437,0.61052 -0.34342,0.63323 -0.36892,0.12132 -0.0173,-0.34638 -0.16327,-0.65041 -0.32445,-0.67562 -0.16119,-0.0252 -0.12286,-0.66194 0.0852,-1.41494 0.42514,-1.5389 -0.10327,-1.98982 -0.64042,-0.54651 -0.54703,1.46982 -0.44472,2.55629 0.45217,4.80187 0.99671,2.49551 1.37445,2.89841 2.07535,2.21358 0.48931,-0.47809 0.52006,-0.47131 0.43144,0.0952 -0.0605,0.38682 0.0781,0.54493 0.37874,0.43217 0.37032,-0.13889 0.36713,-0.0932 -0.0146,0.20854 -1.15665,0.91442 2.05642,3.30919 4.72633,3.52262 1.55869,0.12464 1.55869,0.12464 0.0692,-0.62535 -0.81922,-0.4125 -1.80692,-0.77513 -2.19489,-0.80584 -0.38797,-0.0307 -0.49659,-0.10674 -0.24138,-0.16893 0.41849,-0.10198 0.82511,-1.06829 0.47273,-1.12341 -0.56038,-0.0876 -1.28233,0.29348 -1.15025,0.60725 0.088,0.20918 -0.18144,0.12843 -0.59885,-0.17945 -1.07843,-0.79541 -1.18195,-1.01733 -0.26619,-0.57059 0.53651,0.26172 0.73173,0.25074 0.6117,-0.0344 -0.11048,-0.26246 0.0135,-0.30974 0.33216,-0.12663 0.73358,0.42155 0.69095,-0.0629 -0.0897,-1.01984 -0.67415,-0.82637 -0.67415,-0.82637 0.18105,-0.12067 0.79307,0.65443 0.88781,0.66558 1.30413,0.15354 0.24691,-0.30369 0.4238,-0.36029 0.39309,-0.12577 -0.0307,0.23451 0.18345,0.37508 0.47591,0.31236 0.29247,-0.0627 0.78992,0.0956 1.10545,0.35179 0.50279,0.40825 0.45503,0.44861 -0.38645,0.3265 -1.01027,-0.1466 -1.17877,0.0452 -0.80214,0.91307 0.12601,0.29035 0.4246,0.44563 0.66354,0.34505 0.2509,-0.10561 0.36379,0.004 0.26722,0.25895 -0.10805,0.28545 0.31625,0.58235 1.19893,0.83894 0.87839,0.25534 1.19263,0.4744 0.88013,0.61358 -0.2673,0.11905 -0.41861,0.37657 -0.33623,0.57227 0.24661,0.58589 1.91119,0.67469 2.45609,0.13103 0.40063,-0.39973 0.63471,-0.40295 1.11296,-0.0153 0.33309,0.26999 0.40882,0.46499 0.16829,0.43333 -0.24053,-0.0317 -0.46449,0.11608 -0.49769,0.32829 -0.0332,0.2122 0.1472,0.343 0.40088,0.29064 0.25367,-0.0523 0.7547,0.0831 1.1134,0.3009 0.71014,0.43128 2.81163,0.52593 3.72298,0.1677 z m -10.01562,-6.69258 c -1.01791,-0.97653 -1.20693,-1.70524 -0.25617,-0.98762 0.3282,0.24772 0.71127,0.36685 0.85126,0.26473 0.13998,-0.10212 0.2259,-0.003 0.19092,0.22096 -0.035,0.22365 0.22394,0.45161 0.57538,0.50658 0.35145,0.055 0.60628,0.30908 0.5663,0.56467 -0.1054,0.67387 -0.86595,0.44925 -1.92769,-0.56932 z m -5.43247,-1.86142 c -0.63825,-1.54231 -0.62404,-1.62901 0.25542,-1.55852 0.39211,0.0314 0.59346,0.19647 0.44745,0.36677 -0.146,0.1703 -0.0761,0.72824 0.15542,1.23987 0.49117,1.08561 0.49286,1.32369 0.009,1.24798 -0.19451,-0.0304 -0.58472,-0.61367 -0.86713,-1.2961 z m 12.92701,-3.48279 c -0.51635,-0.70783 2.01835,-2.19407 4.75519,-2.78825 1.38142,-0.29991 1.38142,-0.29991 0.0583,-0.39944 -1.81998,-0.1369 -1.05088,-0.58173 0.90324,-0.52242 0.86946,0.0264 2.06432,-0.0294 2.65523,-0.12396 0.77734,-0.12441 1.12934,-0.0414 1.27317,0.30034 0.26733,0.63509 -0.47082,0.90988 -1.8729,0.69721 -0.63477,-0.0964 -1.0859,-0.0129 -1.00248,0.18529 0.0834,0.19819 -0.6279,0.56883 -1.58072,0.82364 -1.61728,0.43251 -1.72937,0.53497 -1.68682,1.54193 0.0517,1.22431 -0.12773,1.30363 -0.81573,0.3605 -0.2928,-0.40139 -0.55226,-0.51953 -0.66438,-0.30252 -0.10118,0.19583 -0.39559,0.23445 -0.65423,0.0858 -0.25865,-0.14862 -0.49742,-0.0966 -0.53062,0.1156 -0.0669,0.42794 -0.53357,0.44258 -0.83726,0.0263 z m 8.27998,-1.05556 c 0.2069,-0.42118 0.0913,-0.61059 -0.42166,-0.69082 -0.38869,-0.0608 -0.58524,-0.25223 -0.43678,-0.42539 0.14846,-0.17317 0.80036,-0.23188 1.44868,-0.13047 0.64831,0.10141 1.25115,0.35638 1.33964,0.56661 0.0885,0.21023 -0.15426,0.33294 -0.53944,0.27269 -0.38518,-0.0602 -0.91974,0.13733 -1.18791,0.43906 -0.46437,0.52248 -0.47401,0.52097 -0.20253,-0.0317 z m 12.56356,0.96214 c 0.0318,-0.20301 -0.15536,-0.29083 -0.41581,-0.19517 -0.26044,0.0957 0.0225,-0.20359 0.62881,-0.66503 0.60629,-0.46144 1.20538,-0.69774 1.33131,-0.52511 0.12593,0.17263 -0.11005,0.48873 -0.52437,0.70245 -0.41433,0.21371 -0.55725,0.41924 -0.31761,0.45673 0.23965,0.0375 0.31426,0.20983 0.1658,0.383 -0.35682,0.4162 -0.94125,0.3106 -0.86813,-0.15686 z m -8.65529,-2.22543 c -1.27121,-1.18902 -1.66417,-1.37666 -1.3901,-0.66376 0.10041,0.26119 0.0678,0.33229 -0.0724,0.15801 -0.14021,-0.17428 -0.25371,-0.64369 -0.25222,-1.04313 0.003,-0.74335 0.24142,-0.6563 1.23367,0.44997 0.25808,0.28773 0.81178,0.90137 1.23044,1.36364 1.06399,1.17479 0.62307,1.01905 -0.74943,-0.26473 z m -7.67034,-2.97606 c 0.0732,-0.46821 -0.1759,-1.15101 -0.56233,-1.54118 -0.67597,-0.68249 -0.65902,-0.68796 0.65811,-0.21255 0.74357,0.26839 1.98412,0.55539 2.75678,0.63777 1.40484,0.1498 1.40484,0.1498 -0.19243,0.65953 -0.87849,0.28035 -1.61661,0.6334 -1.64025,0.78456 -0.0236,0.15115 -0.29237,0.3283 -0.59718,0.39367 -0.39821,0.0854 -0.51718,-0.11775 -0.4227,-0.7218 z m 5.95742,16.02822 c 1.27932,-0.38754 2.54354,-0.8965 2.80937,-1.13102 0.81536,-0.71934 -0.12553,-0.60993 -2.08722,0.24271 -0.99677,0.43325 -2.0953,0.74346 -2.44116,0.68937 -0.34587,-0.0541 -0.65338,0.0585 -0.68336,0.25017 -0.03,0.1917 -0.28053,0.31319 -0.55676,0.26998 -0.27623,-0.0432 -0.61238,0.0499 -0.74699,0.20693 -0.39292,0.4583 1.19821,0.23156 3.70612,-0.52814 z m -18.46207,-14.28852 c -0.5924,-0.46488 -0.62692,-1.48181 -0.0472,-1.39113 0.1917,0.03 0.37453,-0.11158 0.40628,-0.31459 0.0317,-0.20301 -0.15674,-0.282 -0.41888,-0.17552 -0.32386,0.13155 -0.29373,0.0286 0.094,-0.32129 0.38418,-0.34667 0.44015,-0.5353 0.17135,-0.57734 -0.2542,-0.0398 -0.1423,-0.34659 0.30797,-0.8445 0.38897,-0.43012 0.99149,-0.73758 1.33892,-0.68324 0.34744,0.0543 0.97631,-0.22166 1.3975,-0.61335 0.42119,-0.39169 0.91366,-0.64063 1.09438,-0.5532 0.40239,0.19467 3.14191,-1.39215 2.92256,-1.69285 -0.27135,-0.37197 -3.41984,0.81656 -3.93232,1.48443 -0.60461,0.78792 -1.14798,1.07889 -1.48123,0.79319 -0.13946,-0.11958 0.0199,-0.41689 0.3541,-0.6607 0.82991,-0.6054 0.79612,-0.68771 -0.32122,-0.78238 -1.21806,-0.1032 -2.6626,1.79479 -3.01922,3.96695 -0.13351,0.81314 -0.3799,1.45749 -0.54755,1.43189 -0.16766,-0.0255 -0.0595,-0.93207 0.24037,-2.0144 0.91968,-3.31962 0.96465,-3.61074 0.58879,-3.81191 -0.44344,-0.23732 -2.8031,3.39705 -2.80546,4.32101 -9.3e-4,0.3638 -0.15586,0.73052 -0.34429,0.81494 -0.73146,0.32772 -0.11442,1.351 0.71182,1.18043 1.08815,-0.22463 2.6144,0.13891 3.04156,0.72449 0.19341,0.26514 0.45293,0.4082 0.5767,0.3179 0.12378,-0.0903 -0.0242,-0.35976 -0.32886,-0.59883 z m -5.65283,-1.91087 c 0.17765,0.0278 0.36715,-0.2318 0.42112,-0.57686 0.054,-0.34505 0.31578,-0.78614 0.5818,-0.98019 0.26602,-0.19406 0.35468,-0.37301 0.19702,-0.39767 -0.15766,-0.0247 -0.0306,-0.27194 0.28234,-0.5495 0.46754,-0.4147 0.49109,-0.54519 0.13209,-0.73194 -0.31987,-0.16639 -0.18176,-0.44008 0.51559,-1.02175 0.81519,-0.67997 0.76482,-0.67141 -0.34944,0.0594 -0.71606,0.46964 -1.25642,1.06608 -1.20081,1.32542 0.0556,0.25934 -0.0636,0.40752 -0.26491,0.32929 -0.22333,-0.0868 -0.50825,0.60112 -0.73084,1.76457 -0.20065,1.04875 -0.2618,1.64173 -0.13588,1.31775 0.12592,-0.32398 0.37428,-0.56632 0.55192,-0.53854 z m -20.96688,-3.16633 c 0.9195,-0.18666 2.28652,-0.67389 3.03783,-1.08272 2.61116,-1.42089 4.75244,-1.84938 10.68954,-2.1391 3.10651,-0.15159 3.63286,-0.35879 3.59576,-1.41554 -0.0537,-1.53038 -1.92992,-2.76228 -4.02841,-2.64504 -0.69152,0.0386 -1.39656,-0.0766 -1.56674,-0.25613 -1.17546,-1.23994 -4.83591,-2.07161 -6.07722,-1.38077 -0.51302,0.28552 -1.34307,0.57418 -1.84456,0.64148 -1.05441,0.1415 -5.49873,3.19522 -5.6009,3.84842 -0.0378,0.24173 -0.77309,0.69413 -1.63394,1.00534 -0.86086,0.31121 -1.92668,0.70481 -2.36849,0.87468 -2.78178,1.06954 2.22996,3.27354 5.79713,2.54939 z m -10.20918,-3.13841 c 0.03,-0.1917 0.56434,-0.26939 1.18747,-0.17266 1.50942,0.23431 2.62494,-0.28941 7.85372,-3.68726 4.42016,-2.87239 5.61005,-3.32274 9.18126,-3.47496 0.93906,-0.04 1.15827,-0.18244 1.02788,-0.66776 -0.0912,-0.33929 -0.20182,-1.46611 -0.24591,-2.50404 -0.0892,-2.10009 -0.23283,-2.19155 -2.52897,-1.6107 -0.88598,0.22413 -2.4762,0.38596 -3.53383,0.35963 -1.97112,-0.0491 -4.02905,0.43401 -4.11216,0.96532 -0.0257,0.16402 -0.73983,0.36404 -1.58706,0.4445 -1.19369,0.11336 -2.2481,0.66961 -4.68441,2.47126 -2.68276,1.9839 -3.27482,2.27811 -4.03577,2.00546 -0.89179,-0.31952 -0.89179,-0.31952 0.0536,-0.82982 1.64735,-0.88923 3.15452,-2.10127 3.7452,-3.01184 0.87856,-1.35435 9.70912,-4.04137 12.10989,-3.68488 3.08267,0.45776 6.9563,-1.10521 6.80695,-2.74652 -0.10452,-1.14867 0.21179,-1.0913 1.004,0.18211 1.37188,2.20514 7.28299,2.65853 9.36903,0.71862 0.71291,-0.66298 0.80455,-0.66697 1.25137,-0.0545 0.42405,0.58131 0.71143,0.64256 2.38556,0.50849 1.04689,-0.0838 2.78354,-0.12925 3.85924,-0.10092 2.21339,0.0583 2.13176,0.084 5.8214,-1.82888 1.92186,-0.99636 3.01234,-1.82914 3.71331,-2.83579 1.2293,-1.76538 1.64786,-2.58135 1.31232,-2.55833 -0.14174,0.01 -1.08202,-0.36229 -2.08951,-0.8267 -3.22482,-1.4865 -5.45349,-2.19413 -9.41579,-2.98959 -3.87027,-0.77699 -3.87027,-0.77699 -6.21798,0.30999 -1.29124,0.59784 -2.69521,1.53992 -3.11993,2.09351 -1.99586,2.60142 -3.9485,4.19205 -3.77362,3.07401 0.13231,-0.84589 -0.74586,-1.56449 -1.42045,-1.16235 -0.32211,0.19202 -0.80996,0.22024 -1.08411,0.0627 -0.27414,-0.15753 -0.89105,-0.2035 -1.37089,-0.10215 -0.53635,0.11329 -1.39581,-0.0393 -2.23098,-0.39609 -1.2107,-0.51722 -1.4597,-0.50978 -2.28831,0.0684 -0.99525,0.69444 -3.61083,1.551 -4.39908,1.44063 -0.26312,-0.0368 -1.44512,0.32905 -2.62665,0.81311 -1.18154,0.48406 -3.13758,1.04159 -4.34678,1.23896 -4.46038,0.72804 -7.33342,2.45911 -8.88467,5.3532 -0.27544,0.51387 -0.98518,1.11848 -1.5772,1.34358 -1.5495,0.58915 -1.60733,3.46971 -0.13314,6.6322 0.56368,1.20925 1.10159,2.53145 1.19534,2.93822 0.14314,0.62106 0.23547,0.6653 0.57622,0.27604 0.34128,-0.38987 0.39145,-0.36647 0.3157,0.14724 -0.0605,0.41005 0.18404,0.65366 0.74399,0.74124 0.45873,0.0718 0.88754,0.37985 0.95291,0.68466 0.1319,0.61511 1.15487,0.9223 1.24085,0.37262 z m 32.538,-20.30316 c -0.8544,-0.46249 3.46259,-0.60154 4.82675,-0.15547 0.62723,0.2051 2.00975,0.28601 3.07227,0.17978 1.92832,-0.19279 3.57865,0.18229 3.12586,0.71044 -0.13159,0.15348 -0.66915,0.21181 -1.19459,0.12962 -0.52543,-0.0822 -1.18237,0.0159 -1.45985,0.21799 -0.52997,0.38595 -7.26732,-0.48523 -8.37044,-1.08236 z m 4.17062,20.69584 c 1.13729,-0.7119 1.07472,-1.82545 -0.23863,-4.24697 -0.52575,-0.96936 -0.92264,-1.97519 -0.88197,-2.23517 0.1886,-1.20579 -2.44326,-0.0697 -2.66772,1.1516 -0.0974,0.52981 -0.67214,0.48223 -0.90672,-0.0751 -0.0941,-0.22348 0.12292,-0.64406 0.48219,-0.93463 1.30885,-1.05858 1.19485,-2.93083 -0.29954,-4.91924 -1.63876,-2.18049 -2.8728,-2.46683 -9.02189,-2.09341 -2.08559,0.12666 -3.03709,1.97921 -2.41336,4.69877 0.36348,1.58482 1.39242,2.21701 5.20433,3.19761 1.57637,0.40552 2.17398,0.73511 2.54738,1.40496 0.26832,0.48133 0.60728,1.07756 0.75323,1.32494 0.14595,0.24739 0.1812,0.5112 0.0783,0.58624 -0.43732,0.31901 0.92591,1.29654 2.39116,1.71462 3.24968,0.92724 4.06107,0.9967 4.97321,0.42573 z m 7.09572,-0.53704 c 3.04296,-0.8135 6.56117,-3.16776 7.14071,-4.77832 0.27729,-0.77058 1.05166,-1.59489 1.81217,-1.92903 0.88775,-0.39005 1.74226,-1.92678 2.36553,-4.25412 0.34073,-1.27232 0.71909,-2.29912 0.84079,-2.28179 0.12171,0.0172 0.88461,-0.42572 1.69537,-0.98455 1.42652,-0.98327 2.19488,-1.27977 1.64038,-0.63299 -0.3615,0.42166 2.37347,0.83612 4.0135,0.60821 0.7013,-0.0975 1.59919,-0.19469 1.99531,-0.21606 0.39611,-0.0214 1.05588,-0.13038 1.46615,-0.24223 2.74661,-0.74882 2.74815,-0.74857 3.1681,0.50986 0.45571,1.36558 -0.48565,3.78556 -1.41596,3.64004 -0.42869,-0.067 -0.39929,-0.19854 0.19016,-0.85036 0.85354,-0.94384 1.04417,-1.94756 0.48933,-2.57647 -0.43954,-0.49822 -1.58454,-0.43165 -1.66722,0.0969 -0.0268,0.17119 -0.25449,0.27906 -0.50603,0.23972 -0.25154,-0.0394 -1.16999,0.14494 -2.04101,0.40954 -0.87103,0.26459 -2.60834,0.41741 -3.86071,0.33961 -3.32399,-0.20652 -5.84792,2.05227 -5.79621,5.1873 0.0151,0.91298 -0.1012,1.14464 -0.53998,1.07601 -0.30755,-0.0481 -0.49173,0.0728 -0.40929,0.26862 0.0824,0.19584 -0.23409,0.54434 -0.70339,0.77443 -0.4693,0.23009 -0.75093,0.55857 -0.62585,0.72994 0.38663,0.52971 3.35516,0.7693 3.75488,0.30305 0.27025,-0.31522 1.44146,-0.29387 4.32705,0.0789 2.17608,0.28109 4.37211,0.42218 4.88007,0.31354 0.97855,-0.20928 2.16241,0.04 2.08359,0.43879 -0.0259,0.13093 -0.073,0.40416 -0.10479,0.60717 -0.0318,0.20301 -0.1978,0.24903 -0.36898,0.10228 -0.17847,-0.15302 -0.25879,-0.0222 -0.18828,0.30654 0.0917,0.42784 -0.10767,0.5373 -0.78568,0.43125 -0.49975,-0.0782 -0.88322,-0.3046 -0.85216,-0.50319 0.0627,-0.40104 -6.36789,-1.05659 -6.59851,-0.67267 -0.0729,0.12131 -0.58846,0.0791 -1.14578,-0.0939 -0.60641,-0.18818 -1.03768,-0.1586 -1.07401,0.0737 -0.0334,0.21345 -0.22681,0.36212 -0.42982,0.33036 -0.20301,-0.0317 -0.23552,-0.21355 -0.0722,-0.40399 0.21404,-0.24966 0.0873,-0.273 -0.45449,-0.0837 -0.41325,0.14443 -0.80927,0.18321 -0.88005,0.0862 -0.33404,-0.45792 -2.77641,0.15533 -2.66616,0.66943 0.16195,0.75523 1.53101,0.89228 2.6178,0.26206 0.71303,-0.41347 1.03169,-0.42354 1.46749,-0.0464 0.41431,0.35858 0.86657,0.41036 1.76843,0.20248 2.22928,-0.51385 2.81085,-0.51744 1.89081,-0.0117 -0.75122,0.41297 -0.74785,0.4248 0.11535,0.40392 0.87231,-0.0211 2.67111,0.49968 7.27426,2.10602 2.57592,0.89891 3.65336,0.58773 4.13046,-1.19295 0.32705,-1.22065 1.28722,-2.38166 1.15634,-1.39821 -0.078,0.58592 -0.0223,0.62362 0.34247,0.2321 0.31869,-0.34204 0.33003,-0.19655 0.0422,0.54221 -0.43327,1.11223 -2.14622,3.52313 -2.58764,3.64201 -1.147,0.30889 -0.0335,0.80632 2.26606,1.01233 2.74665,0.24607 3.73805,-0.0194 3.89831,-1.04401 0.0513,-0.32798 0.21689,-0.6865 0.36799,-0.79672 0.41554,-0.30313 0.76006,-4.18284 0.39892,-4.49245 -0.17345,-0.14871 -0.28632,-0.36838 -0.25081,-0.48816 0.0355,-0.11978 -0.051,-0.24952 -0.1922,-0.28831 -0.14123,-0.0388 -0.43944,-0.27757 -0.66269,-0.53063 -1.30648,-1.48088 -3.36974,-2.07983 -9.61509,-2.79123 -4.46969,-0.50914 -6.18539,-0.81753 -6.31939,-1.13588 -0.32494,-0.77195 0.14834,-0.76277 5.73597,0.11123 4.14179,0.64784 5.65225,0.76363 6.14438,0.47103 1.00284,-0.59626 1.21189,-2.95896 0.44025,-4.97563 -0.62849,-1.64253 -0.7996,-4.25067 -0.24783,-3.77763 1.0976,0.94101 2.40759,7.6074 1.81698,9.24643 -0.12887,0.35764 1.68265,1.82412 2.38996,1.93475 0.86811,0.13579 1.70155,2.1394 1.52467,3.66532 -0.20875,1.80079 0.0425,2.46374 0.51909,1.36991 0.17676,-0.40565 0.4796,-0.71279 0.67298,-0.68254 0.75203,0.11762 0.95717,-5.62332 0.27464,-7.68585 -0.35263,-1.06561 -0.61832,-2.08341 -0.59042,-2.26178 0.0911,-0.58219 -1.33024,-2.11797 -1.86153,-2.01147 -0.96859,0.19413 -1.43132,-0.56012 -0.83132,-1.35505 0.56163,-0.74408 0.82115,-3.11776 0.65368,-5.97877 -0.0522,-0.89191 -0.13694,-2.49782 -0.18828,-3.56868 -0.24367,-5.0817 -3.673,-6.85174 -8.80266,-4.54348 -1.47071,0.6618 -3.30944,1.32125 -4.08606,1.46545 -2.97608,0.55259 -3.14542,3.73312 -0.22382,4.2037 1.24482,0.2005 5.52565,-0.79912 5.60539,-1.30892 0.0259,-0.16552 0.26045,-0.26757 0.52125,-0.22678 0.26079,0.0408 1.11331,-0.22756 1.89447,-0.59634 0.78117,-0.36878 1.76451,-0.60537 2.1852,-0.52576 0.61349,0.11609 0.64253,0.17364 0.14668,0.29074 -0.34003,0.0803 -0.98816,0.48984 -1.44028,0.91008 -1.78984,1.66363 -5.43549,2.43663 -9.09174,1.92774 -3.83405,-0.53363 -5.29068,0.0448 -6.10675,2.425 -1.12565,3.28315 -1.95804,3.33201 -1.08209,0.0635 0.68383,-2.55163 0.39469,-2.84609 -1.86194,-1.89621 -0.68207,0.28709 -1.71599,0.5033 -2.29761,0.48046 -1.34317,-0.0527 -1.92316,0.19175 -1.80699,0.76172 0.0504,0.24707 -0.33385,1.74846 -0.8538,3.33642 -0.51995,1.58796 -0.84767,3.06316 -0.72824,3.27823 0.97681,1.75918 1.44496,3.97522 0.81911,3.87733 -0.1917,-0.03 -0.29836,-0.37533 -0.23703,-0.76744 0.0613,-0.39211 -0.22824,-1.17867 -0.64348,-1.7479 -0.41525,-0.56924 -0.83877,-1.43158 -0.94116,-1.91632 -0.26062,-1.23389 -1.24344,-1.26487 -3.18254,-0.10029 -0.908,0.54533 -1.77464,0.97215 -1.92585,0.9485 -0.52459,-0.0821 -0.93,1.75781 -0.51322,2.32914 0.2256,0.30926 0.38023,0.75369 0.34364,0.98763 -0.16946,1.08341 2.4963,3.9033 3.87249,4.0964 2.37936,0.33388 3.37783,0.81616 2.56146,1.23725 -0.37844,0.1952 -0.88041,0.24438 -1.11549,0.10929 -0.23509,-0.13509 -0.66219,-0.10572 -0.94915,0.0654 -0.7019,0.41842 -2.73004,-1.00145 -3.97191,-2.78067 -1.42784,-2.04564 -2.54995,-4.02004 -2.6902,-4.73353 -0.0726,-0.36917 -0.48346,-0.70049 -0.96145,-0.77526 -0.95927,-0.15004 -4.56549,-0.0664 -4.80943,0.11154 -0.26435,0.19284 0.39938,4.32493 0.80364,5.00308 0.20383,0.34193 0.34697,0.77272 0.31809,0.9573 -0.0289,0.18459 0.36975,0.97474 0.88582,1.75588 0.51608,0.78114 1.34031,2.38966 1.83163,3.57449 1.0659,2.57046 1.82387,2.84483 5.29521,1.91681 z m -51.4637,-11.85498 c 0.55344,-0.15891 1.02589,-0.40638 1.04987,-0.54991 0.0239,-0.14356 0.25543,-0.22785 0.51432,-0.18736 0.44062,0.0689 3.16489,-2.7715 3.26363,-3.40277 0.0248,-0.15845 0.29445,-0.34157 0.59925,-0.40694 0.30481,-0.0654 0.59176,-0.35903 0.63768,-0.65259 0.0459,-0.29356 0.32367,-0.49618 0.61723,-0.45026 0.29357,0.0459 0.66083,-0.13766 0.81615,-0.40795 0.15532,-0.27028 0.58378,-0.44428 0.95213,-0.38667 0.98558,0.15416 5.21572,-1.29294 5.03494,-1.72243 -0.0851,-0.20225 0.22891,-0.45152 0.69787,-0.55393 3.24455,-0.70851 4.29176,-1.04502 5.05763,-1.62521 0.52925,-0.40094 1.71222,-0.69946 3.02425,-0.76317 3.07197,-0.14918 3.93967,-1.49297 3.68841,-5.71219 -0.0263,-0.44186 0.1239,-0.87567 0.33381,-0.96402 0.22995,-0.0968 0.40483,-0.91117 0.43994,-2.04869 0.052,-1.68335 0.14402,-1.918 0.84906,-2.16441 1.13269,-0.39589 2.12471,-1.90898 2.39829,-3.65801 0.29415,-1.88051 2.01031,-3.88973 5.55394,-6.50237 2.35985,-1.73986 2.75811,-2.17663 3.36019,-3.68516 1.10264,-2.76268 2.65687,-4.84023 4.89586,-6.54429 3.44559,-2.62241 4.28507,-4.93796 2.34068,-6.45634 -2.0082,-1.56822 -4.62095,-0.79342 -5.58898,1.65739 -0.29732,0.75273 -0.8353,1.58359 -1.19552,1.84636 -0.63292,0.4617 -2.15016,2.60163 -3.52435,4.97078 -0.73319,1.26404 -3.68078,4.18798 -5.88116,5.83398 -0.77843,0.5823 -1.70274,1.35523 -2.054,1.71762 -0.35126,0.36238 -1.58674,1.40934 -2.74552,2.32658 -2.1532,1.7044 -3.60251,4.01561 -3.9629,6.31961 -0.0891,0.56941 -0.5015,1.6653 -0.91653,2.43532 -1.00649,1.86739 -1.14535,3.00594 -0.6043,4.95469 0.75155,2.70695 0.11483,4.60956 -1.46019,4.3632 -0.76474,-0.11962 -0.75444,-0.22609 0.13992,-1.44656 0.67086,-0.91545 0.67363,-1.05099 0.0537,-2.62618 -0.78735,-2.00065 -0.63245,-3.24169 0.78726,-6.30731 2.27062,-4.90303 1.79077,-7.71527 -1.62226,-9.50759 -3.8666,-2.0305 -7.19208,-0.27828 -7.89417,4.15951 -0.0967,0.61154 -0.34791,1.18428 -0.55814,1.27277 -0.21023,0.0885 -0.44067,0.53449 -0.5121,0.9911 -0.0714,0.45662 0.0118,0.95168 0.18499,1.10014 0.39971,0.34268 0.22583,1.5329 -0.2534,1.73463 -0.51918,0.21854 -1.01292,-1.40195 -0.76021,-2.49505 0.23017,-0.99564 -0.67132,-2.18114 -1.79192,-2.35642 -0.34074,-0.0533 -0.59499,-0.25374 -0.56501,-0.44544 0.03,-0.1917 0.60347,-0.26267 1.27441,-0.15773 1.18178,0.18485 1.22641,0.14911 1.42865,-1.14382 0.27571,-1.76269 2.86017,-4.48964 4.9896,-5.2647 1.55017,-0.56422 1.55017,-0.56422 3.34122,0.76767 1.93583,1.43954 2.38854,1.38194 2.00537,-0.25518 -0.13521,-0.57769 -0.23312,-1.3272 -0.21758,-1.66559 0.0155,-0.33838 -0.20625,-0.97287 -0.49288,-1.40998 -0.56328,-0.85898 0.28222,-5.38926 1.24351,-6.66285 1.08605,-1.43888 -2.96701,-0.46248 -4.72367,1.13796 -0.26063,0.23746 -0.72429,1.27632 -1.03033,2.30858 -0.82354,2.77766 -1.18792,3.23524 -3.19276,4.00938 -2.08627,0.80558 -2.55051,1.2315 -3.04435,2.79307 -0.19429,0.61437 -0.50316,1.0481 -0.68637,0.96384 -0.1832,-0.0843 -0.24474,-0.44535 -0.13673,-0.80243 0.30007,-0.99211 -0.27283,-2.66741 -1.09819,-3.21133 -0.40649,-0.26789 -0.71516,-0.63997 -0.68592,-0.82686 0.0292,-0.18689 0.46358,-0.0105 0.96522,0.39202 0.85032,0.68226 0.95838,0.69804 1.59586,0.23301 0.37608,-0.27435 0.93226,-0.45995 1.23594,-0.41245 1.41858,0.22189 3.15137,-1.26181 3.41082,-2.92052 0.19171,-1.22564 0.13628,-1.52977 -0.24021,-1.3178 -0.26919,0.15155 -0.72524,0.24225 -1.01346,0.20153 -1.14867,-0.16226 -5.58504,1.41387 -6.95574,2.47121 -1.72846,1.33329 -1.73265,1.34699 -0.89648,2.93027 0.73765,1.39675 1.48059,3.7825 1.31992,4.23855 -0.27386,0.77733 -0.14979,1.52944 0.41971,2.54435 0.67083,1.19547 0.7996,2.07081 0.29297,1.99156 -0.17474,-0.0273 -0.34298,0.11194 -0.37388,0.3095 -0.0309,0.19755 -0.68805,0.76008 -1.46033,1.25006 -1.3878,0.8805 -1.39788,0.90063 -0.86528,1.72835 1.10769,1.72148 1.82884,4.32523 1.82535,6.59055 -0.008,5.36137 1.39751,6.66764 2.35947,2.19249 0.25605,-1.19117 0.68482,-2.32314 0.95282,-2.51549 0.38107,-0.2735 0.37218,0.0992 -0.0408,1.71008 -1.60714,6.26892 -1.63823,7.09822 -0.24785,6.61228 1.05796,-0.36977 3.35744,-2.96447 3.75759,-4.24002 0.74352,-2.37006 1.59053,-7.17744 1.96569,-11.15663 0.43349,-4.59793 0.48832,-4.78309 1.14848,-3.87811 0.43007,0.58955 0.28442,4.47946 -0.27732,7.40652 -0.12806,0.66732 -0.49819,2.69827 -0.82251,4.51322 -0.67327,3.76779 -2.24098,6.49476 -4.38558,7.62851 -0.63482,0.3356 -2.25608,1.33689 -3.6028,2.22508 -2.4486,1.61489 -2.4486,1.61489 -5.79705,0.92636 -3.26337,-0.67104 -3.37576,-0.66861 -4.42321,0.0955 -2.9638,2.16204 1.82745,7.15 5.77832,6.01555 z m -8.16508,-5.57247 c 0.0563,-0.34065 0.86347,-1.32381 1.79374,-2.1848 2.33312,-2.15937 2.58691,-4.01439 0.58389,-4.26772 -1.2896,-0.16311 -1.2896,-0.16311 0.042,-1.4098 0.73237,-0.68568 1.76194,-1.58643 2.28794,-2.00167 0.52599,-0.41525 1.22535,-1.1751 1.55414,-1.68857 0.32879,-0.51346 0.66967,-0.76284 0.7575,-0.55417 0.0878,0.20868 -0.45234,1.18193 -1.2004,2.16279 -1.29445,1.69732 -1.33935,1.82925 -0.93016,2.73365 0.31572,0.69783 0.30459,1.45902 -0.0419,2.86551 -0.43759,1.77627 -0.41759,1.92692 0.2756,2.07589 0.41109,0.0883 1.45424,0.31056 2.31813,0.49381 0.86389,0.18326 1.87835,0.48658 2.25436,0.67404 1.92524,0.95984 2.71146,-2.48246 1.40194,-6.1381 -0.67659,-1.88877 -0.89419,-3.11108 -0.73689,-4.13931 0.12267,-0.80251 -0.0405,-2.47485 -0.36291,-3.71633 -1.31865,-5.07844 -5.62033,-5.58619 -5.87018,-0.6929 -0.13328,2.61005 -1.07627,4.234 -2.94493,5.07153 -1.96804,0.88207 -3.36349,3.29936 -3.49291,6.05064 -0.20804,4.42262 -0.17316,4.79613 0.41515,4.44543 0.43676,-0.26037 0.59094,-0.11619 0.76697,0.71723 0.23518,1.11342 0.91203,0.81534 1.12892,-0.49715 z m -3.87373,-3.45195 c 0.0797,-1.01856 0.46779,-2.59571 0.86239,-3.50477 0.3946,-0.90906 0.67096,-1.86965 0.61413,-2.13465 -0.0568,-0.26499 1.19098,-1.45689 2.77291,-2.64865 3.00171,-2.26137 3.8681,-3.71172 2.59083,-4.33709 -0.31923,-0.1563 -0.79907,-0.42716 -1.06632,-0.60192 -1.25192,-0.81865 -5.0096,-0.70463 -5.39728,0.16378 -0.20488,0.45892 -0.98077,1.5707 -1.7242,2.47063 -1.14455,1.38548 -1.3334,1.82106 -1.23234,2.84231 0.0656,0.66335 0.17129,2.14561 0.23478,3.29392 0.0635,1.1483 0.23289,2.18854 0.37647,2.31163 0.14357,0.12308 0.21815,0.49799 0.16573,0.83311 -0.0821,0.52486 1.16396,3.08637 1.52916,3.14349 0.0708,0.0111 0.19402,-0.81322 0.27374,-1.83179 z m -3.53013,-9.54732 c 0.22698,-0.64041 0.86884,-1.61565 1.42637,-2.1672 0.55753,-0.55155 1.04484,-1.20195 1.08291,-1.44534 0.0829,-0.53005 2.78892,-1.87248 3.15016,-1.56278 0.13916,0.11931 0.38191,-0.13101 0.53945,-0.55627 0.83177,-2.2454 1.0052,-3.0028 0.65369,-2.85484 -0.22142,0.0932 -0.29282,-0.37637 -0.17337,-1.14008 0.11172,-0.71421 0.0838,-1.21149 -0.0621,-1.10509 -0.14586,0.10641 -0.44734,-0.013 -0.66994,-0.26529 -0.26138,-0.29627 -1.1048,-0.48037 -2.38129,-0.51978 -2.23433,-0.069 -2.71208,0.39037 -3.14699,3.02576 -0.13222,0.80118 -0.60975,2.4192 -1.06119,3.59561 -0.713,1.85802 -0.78915,2.39712 -0.57977,4.10486 0.2786,2.27238 0.63916,2.53511 1.22206,0.89044 z m 49.93534,7.71947 c 0.57132,-0.24397 1.08205,-0.45932 1.13497,-0.47856 0.95479,-0.34715 2.77354,-5.40038 3.66981,-10.19622 1.08708,-5.81687 1.80833,-7.40908 3.75522,-8.28993 1.06087,-0.47998 2.46681,-2.25406 3.33561,-4.20903 1.28431,-2.88994 2.49269,-4.35795 3.91767,-4.7594 3.80833,-1.07291 4.90595,-2.23927 4.70751,-5.00235 -0.16416,-2.28577 -1.04352,-3.43946 -3.12794,-4.10376 -1.92807,-0.61447 -2.42909,-0.40203 -3.01354,1.27783 -0.76559,2.2005 -3.77841,5.70115 -5.21453,6.05886 -0.93749,0.23352 -2.4349,2.32099 -2.72755,3.80235 -0.48198,2.43971 -1.58815,3.92077 -3.53701,4.73572 -0.93682,0.39175 -2.05243,1.1397 -2.47913,1.66212 -0.4267,0.52242 -1.1997,1.32618 -1.71778,1.78613 -0.69491,0.61694 -0.98535,1.22707 -1.10739,2.32626 -0.091,0.81948 -0.31261,1.62763 -0.4925,1.79588 -4.15388,3.88499 -6.16272,10.74915 -3.6977,12.63493 1.2053,0.92207 5.28989,1.5162 6.59428,0.95917 z m -2.90433,-6.91035 c 0.56042,-0.59988 1.07539,-1.45166 1.1444,-1.89284 0.069,-0.44118 0.31503,-0.88193 0.5467,-0.97945 0.23168,-0.0975 0.7291,-0.67839 1.10539,-1.29083 0.37628,-0.61244 0.82048,-0.99665 0.98712,-0.85378 0.17799,0.1526 -0.0713,0.77651 -0.60444,1.51243 -0.49908,0.68897 -0.97826,1.68986 -1.06485,2.22421 -0.2005,1.2373 -0.51411,1.55841 -1.96019,2.00703 -1.17305,0.36393 -1.17305,0.36393 -0.15413,-0.72677 z m 31.61138,6.27441 c 0.97676,-0.25055 1.91463,-0.40618 2.08416,-0.34585 0.80917,0.28797 1.19655,0.0278 2.29171,-1.53923 2.36996,-3.39106 2.25536,-4.82995 -0.58475,-7.34238 -1.65685,-1.46569 -1.65835,-1.46623 -3.57611,-1.27644 -1.05521,0.10443 -2.13336,0.40418 -2.39589,0.66612 -0.26253,0.26193 -1.29687,0.65245 -2.29854,0.86782 -1.56067,0.33555 -1.98515,0.62329 -2.96724,2.01137 -0.63032,0.89089 -1.76989,2.13379 -2.53237,2.76199 -1.38634,1.14219 -1.38634,1.14219 1.21442,2.50859 3.3205,1.74454 6.30409,2.31916 8.76461,1.68801 z m -1.60137,-3.92319 c -0.0724,-0.33741 -0.48502,-0.66877 -0.91704,-0.73634 -0.78546,-0.12286 -0.78546,-0.12286 0.10863,-0.77507 1.16061,-0.84664 2.08728,0.0712 1.36933,1.35636 -0.35913,0.64284 -0.45086,0.6682 -0.56091,0.15505 z m -18.162,-1.22327 c 1.39733,-1.82446 3.35601,-3.44778 3.45436,-2.86291 0.0384,0.22835 -0.3332,0.89108 -0.82577,1.47274 -1.84322,2.1766 -0.35148,3.86437 2.16663,2.45135 0.53041,-0.29763 1.37881,-0.57886 1.88532,-0.62495 1.75304,-0.15952 3.84328,-2.10133 4.21306,-3.91388 0.18113,-0.88785 0.4879,-1.60085 0.68172,-1.58443 2.261,0.19147 2.90276,0.09 3.69444,-0.58396 0.48898,-0.41629 1.93541,-1.08676 3.21428,-1.48995 2.32523,-0.73307 2.32523,-0.73307 3.22025,0.17348 0.89503,0.90656 0.89503,0.90656 3.34209,0.11046 2.25626,-0.73402 2.6359,-0.75257 4.86862,-0.23782 1.33185,0.30705 2.43922,0.44528 2.46083,0.30717 0.0747,-0.47748 2.11061,-1.8844 2.71817,-1.87837 1.94389,0.0193 0.066,-3.56962 -2.00609,-3.83382 -0.8248,-0.10516 -1.48432,0.0233 -1.73061,0.33719 -0.21887,0.2789 -0.61039,0.47387 -0.87005,0.43326 -0.25965,-0.0406 -1.68683,0.14608 -3.17149,0.41488 -3.165,0.57302 -4.71383,0.4852 -7.73183,-0.43845 -2.93254,-0.89749 -3.75847,-1.59055 -7.56052,-6.34419 -0.58263,-0.72845 -1.33369,-1.36814 -1.66901,-1.42153 -0.33533,-0.0534 -0.58515,-0.25392 -0.55517,-0.44561 0.2739,-1.75107 -4.85318,0.63028 -5.59228,2.59742 -0.8492,2.26017 -1.6247,3.51208 -2.83061,4.56951 -2.66685,2.3385 -2.90244,2.81362 -4.2221,8.51466 -1.15254,4.97905 0.45635,7.39754 2.84576,4.27775 z m 6.43272,-5.88525 c 0.20712,-0.74791 0.33998,-1.76208 0.29525,-2.25369 -0.0937,-1.03002 -0.96101,-0.8243 -3.3831,0.80249 -1.18548,0.79622 -1.2114,0.79719 -1.05026,0.0392 0.3101,-1.45858 1.20299,-2.46527 2.44353,-2.75497 0.6796,-0.1587 1.32822,-0.3668 1.44138,-0.46244 0.11315,-0.0956 0.65409,-0.29241 1.20209,-0.43726 0.96788,-0.25584 0.98984,-0.23177 0.76811,0.84155 -0.12555,0.6077 -0.23666,1.92683 -0.24692,2.9314 -0.0171,1.67723 -0.0933,1.86028 -0.93266,2.24002 -0.91401,0.41353 -0.91401,0.41353 -0.53742,-0.94632 z m 5.34013,-2.76234 c -0.0721,-0.33599 0.21446,-0.9929 0.63668,-1.4598 0.95907,-1.06053 0.19559,-2.08517 -2.67489,-3.58987 -1.38556,-0.72631 -1.80535,-1.14058 -1.86943,-1.84486 -0.15931,-1.75071 0.61837,-1.43494 3.04052,1.23456 1.32757,1.46314 2.85975,2.8908 3.40484,3.17256 0.99106,0.51231 0.99106,0.51231 -0.0152,0.80626 -0.55347,0.16167 -1.31797,0.74352 -1.69889,1.29299 -0.55165,0.79575 -0.71925,0.87474 -0.82359,0.38816 z m -59.62013,0.80967 c 1.61282,-1.23251 2.57002,-1.5887 4.84078,-1.80129 2.12975,-0.1994 2.49104,-0.63623 2.58994,-3.13138 0.11963,-3.01843 -0.82333,-4.19188 -3.80475,-4.73474 -1.20021,-0.21853 -2.40136,-0.53703 -2.66923,-0.70777 -0.59472,-0.37907 -3.82248,2.84228 -3.65068,3.64342 0.0614,0.2863 -0.0557,0.59098 -0.26014,0.67704 -0.20448,0.0861 -0.28732,0.35714 -0.18409,0.60237 0.10322,0.24523 0.0606,0.96288 -0.0948,1.59478 -1.10571,4.49686 0.26159,6.12831 3.23299,3.85757 z m 78.7837,7.08167 c 3.14776,-1.42416 2.84492,-4.70043 -0.49125,-5.3147 -2.60977,-0.48051 -5.67798,-0.0324 -5.8102,0.84849 -0.0211,0.13946 0.67456,1.35747 1.54554,2.70662 1.71657,2.65896 2.29505,2.87298 4.75591,1.75959 z m -83.22237,-14.67325 c 0.65157,-0.51017 1.34017,-1.32637 1.53023,-1.81378 0.78792,-2.02065 1.44934,-3.10597 2.20407,-3.61664 1.2627,-0.85437 0.91199,-2.05031 -0.54783,-1.86816 -1.78353,0.22255 -2.82445,0.8402 -4.38507,2.60196 -0.8014,0.90469 -1.88896,1.79457 -2.41679,1.9775 -1.87621,0.65025 -0.65195,2.68312 2.14176,3.55637 0.15893,0.0497 0.82206,-0.32708 1.47363,-0.83725 z m 90.67353,12.44131 c 0.53972,-1.38591 -0.44642,-4.12905 -1.61224,-4.48476 -1.60316,-0.48915 -2.81867,1.12994 -2.16483,2.88363 0.85216,2.28562 3.13384,3.25284 3.77707,1.60113 z m -56.4633,-12.98755 c 1.53649,-1.25863 4.04289,-3.27873 5.56976,-4.48912 1.57461,-1.24822 2.78016,-2.46866 2.78541,-2.81982 0.0177,-1.17987 0.86803,-2.72005 1.8805,-3.40591 1.21771,-0.8249 3.29912,-3.61042 3.15445,-4.22157 -0.0565,-0.23878 -0.15566,-0.17713 -0.2203,0.137 -0.0864,0.41975 -0.42811,0.5135 -1.28923,0.35369 -1.32299,-0.24553 -1.1722,-0.44244 1.18918,-1.55295 2.0846,-0.98034 1.40618,-1.66297 -1.85134,-1.86282 -1.31739,-0.0808 -3.44463,-0.24954 -4.7272,-0.37493 -4.36908,-0.42714 -5.74111,1.3508 -1.77656,2.30214 1.96628,0.47184 4.28969,1.67237 3.70933,1.91666 -0.23525,0.099 -1.65988,-0.20157 -3.16583,-0.668 -2.7381,-0.84804 -2.7381,-0.84804 -5.34734,-0.0683 -1.43508,0.42886 -2.6309,0.91824 -2.65738,1.08751 -0.0265,0.16926 -0.41084,0.51808 -0.85415,0.77515 -0.52266,0.30309 -1.01915,1.12424 -1.41228,2.3358 -0.33344,1.02763 -0.89823,2.47608 -1.25508,3.21879 -0.77065,1.60397 -0.27721,3.93727 1.57617,7.45317 1.3723,2.60329 1.37164,2.6033 4.69189,-0.11649 z m -2.87893,-3.61656 c 0.0897,-0.67156 2.4,-4.25336 2.78529,-4.31815 1.01988,-0.17149 -0.0314,2.46446 -1.41789,3.55535 -0.77776,0.61191 -1.39309,0.95517 -1.3674,0.7628 z m 4.44385,-4.47189 c -0.41009,-0.97425 2.87664,-3.48827 4.27456,-3.26961 0.79925,0.12501 0.0111,1.21898 -1.73639,2.4101 -1.99867,1.36234 -2.28561,1.45951 -2.53817,0.85951 z m -25.87285,5.02177 c 0.18147,-0.50648 0.0825,-1.05764 -0.26753,-1.49047 -0.58827,-0.72736 -0.59278,-2.01023 -0.007,-1.91856 0.19116,0.0299 1.37193,-0.4683 2.62394,-1.10711 3.34613,-1.70729 3.82356,-1.92199 4.05015,-1.82133 0.5546,0.24636 2.46949,-0.7346 2.55969,-1.31129 0.11214,-0.7169 0.81842,-0.97222 2.1244,-0.76794 0.46958,0.0735 0.98086,-0.0876 1.13618,-0.35788 0.15532,-0.27029 0.5793,-0.44499 0.94219,-0.38823 0.36288,0.0568 0.6785,-0.0164 0.70138,-0.16269 0.0229,-0.14624 0.4187,-0.36551 0.87962,-0.48728 1.06818,-0.28219 1.42498,-1.45323 0.94086,-3.08802 -0.40897,-1.38102 -1.00202,-1.69757 -1.82317,-0.97313 -0.28362,0.25022 -0.86941,0.39961 -1.30177,0.33198 -1.98061,-0.3098 -4.36606,0.91398 -5.08462,2.60852 -0.34149,0.80531 -0.48468,0.835 -2.31649,0.48037 -2.32065,-0.44927 -4.49552,0.17047 -7.38799,2.10527 -1.85472,1.24063 -1.85472,1.24063 -2.16531,3.69323 -0.48614,3.83878 0.30764,5.31018 2.91961,5.41195 0.91478,0.0356 1.25381,-0.13838 1.4756,-0.75739 z m 64.43209,5.99254 c 1.85999,0.266 1.23699,-1.91233 -1.52055,-5.31665 -1.08688,-1.34179 -1.37758,-1.90881 -0.94536,-1.84394 0.71625,0.10752 2.62559,2.57433 3.29819,4.26116 0.92469,2.31904 3.53033,3.89794 4.8473,2.93724 0.35526,-0.25916 1.10033,-0.40012 1.6557,-0.31325 0.6116,0.0957 1.36663,-0.11986 1.91482,-0.54659 1.35567,-1.05529 1.04779,-2.27772 -1.41991,-5.63758 -3.83712,-5.22438 -9.17125,-8.73864 -14.94033,-9.84306 -2.50388,-0.47934 -2.50388,-0.47934 -2.15814,0.87864 0.19016,0.74688 0.39753,1.57367 0.46083,1.8373 0.0633,0.26364 0.37581,0.48373 0.69447,0.4891 0.90599,0.0153 2.76732,0.86006 2.7095,1.22975 -0.0304,0.19429 -0.32868,0.12435 -0.71579,-0.16783 -0.92155,-0.69557 -1.92318,-0.46855 -1.4482,0.32823 0.19214,0.32231 0.54711,0.61696 0.78882,0.65476 0.24172,0.0378 0.47369,0.40758 0.5155,0.8217 0.0697,0.69035 -0.0299,0.71755 -1.19807,0.32715 -3.38675,-1.13184 -2.99002,4.48818 0.48184,6.82564 0.72191,0.48602 1.66964,1.22352 2.10607,1.63887 0.75814,0.72152 2.96253,1.50837 3.98338,1.42185 0.26506,-0.0225 0.66552,-0.0146 0.88993,0.0175 z m 2.74296,-7.24963 c -1.29406,-1.71436 -1.91933,-2.25689 -2.75098,-2.38698 -0.59194,-0.0926 -1.05173,-0.32519 -1.02175,-0.51688 0.03,-0.1917 -0.21802,-0.40386 -0.55112,-0.47147 -0.35025,-0.0711 -0.41339,-0.1678 -0.14974,-0.22935 0.25074,-0.0585 1.3178,0.31039 2.37123,0.81984 1.05344,0.50944 2.01908,0.95401 2.14588,0.98791 0.9269,0.24787 2.60307,2.61235 2.35087,3.31624 -0.38399,1.07172 -0.48877,1.00523 -2.39439,-1.51931 z m -46.61701,-10.31239 c 0.87568,-0.24323 1.72279,-0.66958 1.88247,-0.94744 0.15967,-0.27787 0.61408,-0.45457 1.0098,-0.39268 0.39571,0.0619 1.0469,-0.10217 1.44709,-0.36459 0.83116,-0.54503 1.18791,-1.65424 0.40231,-1.25089 -0.26692,0.13705 -1.42103,0.0679 -2.5647,-0.15369 -2.30978,-0.44751 -5.94819,0.36176 -6.10397,1.35766 -0.26419,1.689 1.43069,2.445 3.927,1.75163 z"
         style="fill:#9c9c9c;fill-opacity:1;stroke-width:1" />
      <g
         id="g6806"
         transform="translate(-0.15139675,-0.04634475)">
        <path
           sodipodi:nodetypes="ascccsccccccsccccaa"
           inkscape:connector-curvature="0"
           id="path6788"
           d="m -220.98029,177.7703 c 2.26482,0.14759 3.02509,0.0712 3.90832,-5.57545 0.67805,-4.33489 0.32898,-5.04369 0.912,-5.25985 1.00779,-0.37364 2.01227,-1.95473 2.45049,-3.85717 0.47287,-2.05283 2.31538,-4.20837 5.63806,-6.59591 1.86181,-1.33783 2.40251,-1.9721 3.35726,-3.93821 1.66341,-3.42545 2.33316,-4.32775 4.5308,-6.10392 4.2789,-3.45831 4.76184,-5.34375 1.83211,-7.15285 -1.81035,-1.11789 -4.63908,-0.0486 -4.93869,1.86685 -0.0807,0.51583 -0.51058,1.27626 -0.95533,1.68985 -1.02065,0.94915 -4.08505,5.42339 -4.19473,6.12459 -0.0453,0.28936 -0.46131,0.77292 -0.92456,1.07458 -0.46326,0.30165 -1.69657,1.41909 -2.7407,2.48319 -1.04413,1.0641 -2.01045,1.9172 -2.14737,1.89578 -0.13693,-0.0214 -1.71844,1.19107 -3.51445,2.69442 -3.33955,2.79535 -4.29951,4.12137 -4.72382,6.52513 -0.13256,0.75088 -0.74286,2.36128 -1.35627,3.57866 -1.11527,2.21342 -0.81286,2.61634 -0.59545,3.91998 0.41014,2.45934 0.97431,6.46821 3.46233,6.63033 z"
           style="fill:#eb7a59;fill-opacity:1;stroke-width:1" />
        <path
           sodipodi:nodetypes="cscccaacscsccccccsc"
           inkscape:connector-curvature="0"
           id="path6782"
           d="m -213.63912,141.11686 c -1.96086,-0.80892 -4.948,-0.46773 -6.81642,0.38649 -1.86841,0.85422 -3.34833,2.96309 -3.68854,5.1381 -0.0916,0.58594 -0.37799,1.21953 -0.63632,1.40797 -0.25832,0.18844 -0.54489,0.98814 -0.63682,1.77711 -0.0975,0.83641 -0.45672,0.75448 -0.46822,1.17636 -0.0156,0.57156 0.30025,1.10992 0.54657,1.62591 0.16296,0.34138 0.39727,0.14111 0.60902,0.95757 0.19907,0.76759 0.47694,1.41713 0.61748,1.44343 0.14054,0.0263 0.61625,0.82343 1.05713,1.77139 1.03877,2.23347 1.00902,2.23771 4.38253,-0.62473 1.58508,-1.34495 4.19684,-3.46565 5.80391,-4.71268 2.44587,-1.8979 2.94565,-2.45342 3.06748,-3.40958 0.0895,-0.70246 0.46832,-1.39798 0.98383,-1.80638 1.36616,-1.0823 3.56653,-3.95699 3.66646,-4.79006 0.051,-0.42525 -0.0175,-0.58858 -0.15226,-0.36295 -0.13475,0.22563 -0.37166,0.30165 -0.52645,0.16894 -0.1548,-0.13271 -0.64807,-0.14453 -1.08767,-0.15553 0,0 -1.75824,1.16825 -6.72171,0.009 z"
           style="fill:#00bac9;fill-opacity:1;stroke-width:1" />
        <path
           id="path6734"
           d="m -209.04519,177.77151 c 1.09709,-0.5435 1.20662,-0.69002 2.73,-3.65208 0.68714,-1.33606 1.14048,-2.66342 1.11507,-3.26483 -0.0236,-0.5574 0.0737,-1.09844 0.21609,-1.20233 0.14241,-0.10388 0.51455,-1.91324 0.82697,-4.02079 0.31241,-2.10755 0.72509,-3.89801 0.91704,-3.97881 0.19195,-0.0808 0.28787,-0.29212 0.21316,-0.46962 -0.0747,-0.1775 0.74348,-1.04266 1.81822,-1.9226 2.04488,-1.67422 3.151,-3.09589 3.89483,-5.00592 0.97971,-2.51574 2.56828,-4.23428 4.06374,-4.39623 5.66032,-0.61298 6.1799,-8.25462 0.65304,-9.6046 -1.53139,-0.37406 -1.72081,-0.19877 -3.35536,3.1051 -1.03533,2.09269 -2.60665,3.75262 -3.89219,4.11168 -0.48829,0.13638 -1.04228,0.56095 -1.2311,0.94348 -0.18882,0.38254 -0.69169,1.0218 -1.11749,1.42058 -0.45591,0.42699 -0.84183,1.24737 -0.93875,1.99557 -0.30419,2.34849 -1.37291,3.82896 -3.46408,4.79869 -1.06311,0.49298 -2.63517,1.65866 -3.53323,2.61987 -1.60053,1.71307 -1.8157,2.1161 -1.92972,3.61442 -0.0656,0.86187 -1.01178,2.265 -2.83066,4.19764 -1.04941,1.11504 -1.28663,1.6608 -1.67122,3.84487 -0.82976,4.71216 -0.81276,5.43495 0.14094,5.99208 1.89493,1.10699 5.93722,1.58596 7.37469,0.87383 z"
           style="fill:#eea300;fill-opacity:1;stroke-width:1"
           inkscape:connector-curvature="0" />
        <path
           id="path6714"
           d="m -177.97136,158.95767 c 0.26066,-0.15207 0.62182,-0.14971 0.80258,0.005 0.18075,0.15496 0.35201,0.13233 0.38057,-0.0503 0.0323,-0.20672 0.55734,-0.11614 1.391,0.24 0.96021,0.41021 1.49175,0.48103 1.87879,0.2503 0.29686,-0.17696 1.37537,-0.43398 2.39668,-0.57116 3.81287,-0.51211 3.8559,-1.87205 0.21315,-6.73545 -2.21937,-2.96307 -6.78642,-6.96647 -8.18482,-7.1747 -0.2082,-0.031 -1.33112,-0.55642 -2.49538,-1.16759 -1.16425,-0.61117 -3.08993,-1.28792 -4.27929,-1.5039 -2.15934,-0.39211 -2.16235,-0.39133 -2.08793,0.54279 0.16447,2.0642 0.67383,2.94694 1.78191,3.08813 0.58204,0.0742 1.14461,0.25321 1.25014,0.39787 0.10553,0.14467 -0.1387,0.21132 -0.54273,0.14812 -0.40402,-0.0632 -0.84627,0.0154 -0.98276,0.17456 -0.30661,0.35764 0.56883,1.62066 0.99808,1.43998 0.32894,-0.13846 0.6965,0.98715 0.39433,1.20758 -0.0971,0.0708 -0.44402,-0.0732 -0.77098,-0.31996 -0.61214,-0.46203 -1.75208,-0.26092 -2.41242,0.42561 -0.96847,1.00685 0.83058,5.21751 2.79687,6.54609 0.72102,0.48718 1.77722,1.30743 2.34711,1.82278 1.11125,1.00491 4.23047,1.75594 5.1251,1.234 z"
           style="fill:#5aa0df;fill-opacity:1;stroke-width:1"
           inkscape:connector-curvature="0" />
      </g>
      <path
         style="fill:#000000;stroke-width:1"
         d=""
         id="path6092"
         inkscape:connector-curvature="0" />
      <path
         style="fill:#000000;stroke-width:1"
         d=""
         id="path6090"
         inkscape:connector-curvature="0" />
      <g
         id="g6314"
         transform="matrix(-0.95223609,-0.30536279,-0.30536279,0.95223609,-888.0383,-59.929808)" />
      <path
         inkscape:connector-curvature="0"
         id="path6578"
         d="m -193.10468,224.95357 c -0.10394,-0.14247 -1.71411,-0.54894 -3.57817,-0.90325 -1.86406,-0.35431 -3.77016,-0.77681 -4.23577,-0.9389 -0.46562,-0.16208 -0.94429,-0.32337 -1.06372,-0.35842 -0.46112,-0.13532 -4.24744,-3.72063 -5.16337,-4.88926 -2.1836,-2.78603 -1.96058,-7.22798 0.43243,-8.61313 0.30955,-0.17919 0.59298,-0.45621 0.62984,-0.61562 0.19796,-0.85608 0.5697,-1.1628 0.79124,-0.65283 0.14545,0.33482 0.29012,0.0874 0.41962,-0.71764 0.10856,-0.67578 0.46018,-1.50452 0.78105,-1.8417 0.83824,-0.88087 1.46855,-2.23381 0.93631,-2.00978 -0.63968,0.26926 -0.40751,-0.4232 0.27913,-0.83252 0.33011,-0.19679 0.53817,-0.44282 0.46236,-0.54674 -0.25487,-0.3494 -2.25028,1.47232 -2.14589,1.95911 0.0568,0.26479 -0.0813,0.41433 -0.30691,0.3323 -0.23117,-0.0841 -0.42153,0.16072 -0.43621,0.56092 -0.043,1.17108 -0.81184,3.26516 -1.17783,3.20791 -0.18777,-0.0294 -0.19277,-0.35151 -0.0111,-0.71587 0.18165,-0.36436 0.17779,-0.68633 -0.009,-0.71548 -0.59505,-0.0931 0.43254,-2.93105 1.24757,-3.44545 0.42285,-0.2669 0.76451,-0.58838 0.75924,-0.7144 -0.005,-0.12603 0.12342,-0.31545 0.28596,-0.42095 0.16255,-0.1055 0.13329,0.008 -0.065,0.25328 -0.24446,0.30178 -0.21646,0.38445 0.087,0.25673 0.82296,-0.3464 0.12659,-0.98435 -1.06702,-0.97753 -0.93674,0.005 -1.26477,-0.16648 -1.59363,-0.83479 -0.25554,-0.5193 -0.54095,-0.72464 -0.74538,-0.53627 -0.50654,0.46673 -1.96042,0.94309 -2.58177,0.8459 -0.30538,-0.0478 -1.58268,0.14307 -2.83845,0.42408 -1.25578,0.28102 -2.83868,0.46664 -3.51756,0.4125 -0.67889,-0.0541 -1.54461,0.0874 -1.92382,0.31462 -0.37921,0.22719 -0.66913,0.283 -0.64427,0.12402 0.0249,-0.15897 -0.35651,-0.032 -0.84751,0.28205 -2.39862,1.53442 -6.31608,2.17629 -9.80279,1.60617 -3.11799,-0.50981 -5.04878,-1.31392 -4.55052,-1.8951 0.11571,-0.13497 -0.84974,-0.58349 -2.14545,-0.99672 -1.29571,-0.41323 -2.5673,-1.04122 -2.82576,-1.39552 -0.25844,-0.35431 -0.62784,-0.6689 -0.82086,-0.69909 -0.77033,-0.12049 -2.89691,-3.87449 -3.17898,-5.61176 -0.4636,-2.85538 -0.92323,-3.59709 -2.38174,-3.8434 -2.09322,-0.35352 -4.22726,-1.47038 -5.55226,-2.90585 -0.68855,-0.74596 -1.5574,-1.40407 -1.93076,-1.46247 -0.37337,-0.0584 -1.00587,-0.48955 -1.40556,-0.9581 -0.39969,-0.46856 -1.40258,-1.42692 -2.22864,-2.12971 -0.82606,-0.70277 -1.6216,-1.74027 -1.76787,-2.30554 -0.14627,-0.56527 -0.55384,-1.52435 -0.9057,-2.13129 -0.47255,-0.81512 -0.55062,-1.41058 -0.29873,-2.2784 0.18756,-0.64618 0.20178,-1.19665 0.0316,-1.22327 -0.17019,-0.0266 -0.29379,-0.47345 -0.27468,-0.99294 0.0219,-0.59478 -0.19759,-1.01586 -0.5927,-1.13712 -0.85064,-0.26107 -0.84888,-0.25688 -1.08191,-2.58768 -0.21549,-2.15537 0.94022,-8.79406 1.76343,-10.12963 1.05157,-1.70603 1.51794,-2.99768 1.51387,-4.19277 -0.004,-1.09648 0.20446,-1.49988 1.30012,-2.51909 0.71751,-0.66745 2.07845,-1.95626 3.0243,-2.86402 0.94585,-0.90777 2.02623,-1.68143 2.40084,-1.71925 0.37462,-0.0378 0.70541,-0.2241 0.73511,-0.41395 0.0297,-0.18985 0.27985,-0.21539 0.55591,-0.0568 0.32694,0.18788 0.65005,0.0288 0.92685,-0.45637 0.23372,-0.40963 0.69182,-0.90388 1.018,-1.09832 0.32619,-0.19445 0.75019,-0.72408 0.94223,-1.17695 0.19204,-0.45288 0.47863,-0.80316 0.63686,-0.77841 0.15822,0.0247 0.8047,-0.27563 1.43661,-0.66752 0.6319,-0.39189 1.3207,-0.68585 1.53064,-0.65325 0.20995,0.0326 0.73296,-0.22933 1.16225,-0.58206 0.92226,-0.75779 2.83973,-1.29187 3.99138,-1.11173 0.45057,0.0705 1.52321,-0.33373 2.38363,-0.89824 2.31288,-1.51743 5.85117,-2.44162 9.35312,-2.44301 0.82339,-3.3e-4 1.70359,-0.18278 1.95599,-0.40546 0.49606,-0.43765 3.48375,-0.50471 5.26861,-0.11826 0.60712,0.13146 2.06473,0.058 3.23913,-0.16316 2.89039,-0.54439 9.13455,-0.15144 11.65193,0.73327 1.62684,0.57173 2.03699,0.60632 2.62412,0.22132 0.95539,-0.62649 3.45759,-0.528 4.38584,0.17263 0.46088,0.34786 1.31008,0.56833 2.21124,0.57409 0.80466,0.005 2.08297,0.0113 2.84067,0.0136 1.02812,0.003 1.73467,0.26282 2.78475,1.02348 1.12319,0.81362 1.91118,1.08311 3.90557,1.33568 2.00418,0.2538 2.89055,0.55871 4.48028,1.54115 1.09,0.67362 2.1942,1.25798 2.45379,1.29858 2.68219,0.41954 12.19312,10.4032 11.87141,12.46147 -0.12862,0.82296 1.54432,2.84847 2.47257,2.99366 0.31014,0.0485 0.68955,0.75255 0.89311,1.65724 0.19465,0.86509 0.86449,2.29548 1.48855,3.17864 1.35005,1.9106 1.8935,3.85484 1.4351,5.13424 -0.18322,0.51135 -0.18777,0.95247 -0.0101,0.98026 1.27529,0.19948 3.01509,4.82067 3.1425,8.34702 0.025,0.69126 0.11382,1.91026 0.19742,2.70888 0.0836,0.79863 0.0638,2.0408 -0.0441,2.76037 -0.10788,0.71958 -0.0627,1.3292 0.10031,1.3547 0.90007,0.14078 3.01682,7.47715 2.96386,10.27233 -0.0362,1.90839 -1.34332,4.55663 -2.70954,5.48936 -0.54248,0.37036 -1.01804,0.87608 -1.05679,1.12382 -0.16311,1.0428 -2.78921,2.4533 -4.54357,2.4404 -2.27614,-0.0167 -2.66401,0.26587 -2.95974,2.15651 -0.27474,1.75648 -1.75831,4.93453 -3.6545,7.82859 -1.28169,1.95618 -2.22563,2.83446 -1.30744,1.21649 0.38305,-0.67496 0.40314,-0.83464 0.0753,-0.59842 -0.24594,0.17722 -0.54155,0.7184 -0.65691,1.20263 -0.2632,1.10481 -4.05361,4.9883 -4.76077,4.87768 -0.2886,-0.0451 -0.55561,0.11547 -0.59338,0.3569 -0.11982,0.76608 -6.04598,2.8894 -7.45093,2.66965 -0.44325,-0.0693 -1.68004,0.13891 -2.74842,0.46276 -1.86933,0.56665 -5.57272,0.39216 -6.06732,-0.28585 z m 3.36194,-0.36277 c 0.86628,-0.15788 1.07696,-0.31769 0.76945,-0.58366 -0.24796,-0.21446 0.0876,-0.20007 0.80959,0.0347 1.12867,0.36704 1.23998,0.33181 1.31484,-0.41618 0.0922,-0.92167 3.77978,-2.30777 6.30051,-2.36828 0.7366,-0.0177 1.9565,-0.32354 2.71091,-0.67969 1.45075,-0.68489 1.88762,-0.77485 1.48561,-0.30594 -0.38662,0.45095 1.12907,0.18942 1.67049,-0.28823 0.79825,-0.70424 0.35436,-0.79873 -2.07052,-0.44075 -2.51123,0.37074 -3.46139,0.33745 -3.0796,-0.10787 0.13549,-0.15804 1.63952,-0.50234 3.3423,-0.76511 3.10167,-0.47863 3.97824,-0.87833 4.26452,-1.94451 0.0843,-0.3141 0.31172,-0.82751 0.50529,-1.14091 0.27651,-0.4477 0.17639,-0.60064 -0.46718,-0.71361 -0.63877,-0.11213 1.42136,-0.77239 2.20203,-0.70572 0.3578,0.0305 1.21223,-1.71765 1.42108,-2.90756 0.23505,-1.33927 0.17863,-1.49425 -0.60469,-1.66075 -0.81225,-0.17265 -0.81561,-0.18534 -0.0561,-0.21202 1.42069,-0.0499 0.96527,-0.6661 -0.73674,-0.99683 -1.64604,-0.31985 -1.64604,-0.31985 -0.11866,-0.21887 1.28158,0.0847 1.47302,0.01 1.18959,-0.46569 -0.27585,-0.46274 -0.20215,-0.54543 0.40196,-0.45094 0.40686,0.0636 0.75001,0.0501 0.76255,-0.0301 0.0125,-0.0802 0.16659,-0.39598 0.34232,-0.7018 0.26281,-0.45734 0.17171,-0.53336 -0.51332,-0.42831 -0.56869,0.0872 -0.73806,0.0172 -0.53399,-0.22085 0.16436,-0.19172 0.59835,-0.30173 0.96441,-0.24447 1.15814,0.18115 0.52888,-0.94856 -0.80127,-1.43852 -0.6784,-0.24988 -1.34692,-0.49942 -1.48559,-0.55451 -0.13867,-0.0551 -0.67638,-0.21282 -1.19491,-0.35048 -0.54466,-0.14461 -0.11975,-0.21008 1.00619,-0.15505 1.94897,0.0952 1.94897,0.0952 0.15463,-0.98857 -1.79435,-1.08383 -1.79435,-1.08383 -0.12373,-0.59606 1.75132,0.51134 2.06802,0.0442 0.58264,-0.85936 -0.46541,-0.28312 -0.0677,-0.25954 1.18601,0.0703 2.1487,0.56532 3.14924,0.10177 3.62542,-1.67969 0.18872,-0.70603 0.46109,-0.95941 0.97485,-0.90688 0.80841,0.0827 0.3383,1.60362 -0.78913,2.55313 -2.09644,1.76559 -1.89776,2.58869 0.72392,2.99911 2.48009,0.38824 4.66483,-0.85288 5.06593,-2.87789 0.0683,-0.34459 0.25028,-0.51835 0.4045,-0.38613 0.50067,0.42924 1.53242,-1.11702 2.03494,-3.0497 0.54586,-2.09933 0.23318,-4.958 -0.87194,-7.97156 -0.91856,-2.50486 -1.08571,-2.71139 -2.11822,-2.61744 -0.86397,0.0786 -0.89165,0.028 -0.48253,-0.88233 0.7478,-1.66396 0.94221,-2.90847 0.72426,-4.63719 -0.11588,-0.91966 -0.28357,-2.93427 -0.37263,-4.47692 -0.18802,-3.2566 -0.97314,-4.85297 -2.793,-5.67896 -1.57636,-0.71547 -3.72267,-1.05556 -4.07418,-0.64555 -0.743,0.86665 -7.52856,3.29018 -8.41213,3.00447 -0.49495,-0.16004 -0.78506,1.12292 -0.34017,1.50434 0.16561,0.14198 0.16818,0.48944 0.006,0.77214 -0.42938,0.74722 0.3319,1.2425 2.42178,1.57561 2.0261,0.32295 3.49699,-0.062 8.29152,-2.17013 0.74945,-0.32953 1.58754,-0.55128 1.86241,-0.49278 0.42403,0.0902 0.41666,0.12485 -0.0487,0.22836 -0.30166,0.0671 -0.89224,0.44168 -1.31239,0.8324 -2.22959,2.07342 -8.81294,2.97656 -10.89841,1.49511 -1.19547,-0.84922 -3.44294,0.94029 -4.41039,3.51171 -0.97035,2.57913 -1.59648,1.99167 -0.68089,-0.63882 0.8827,-2.53597 0.0888,-2.98175 -2.84428,-1.59707 -0.72333,0.34147 -1.4371,0.5163 -1.58615,0.38851 -0.75251,-0.64514 -1.70438,0.31805 -2.2217,2.24814 -0.29256,1.09154 -0.73299,2.68459 -0.97871,3.5401 -0.36942,1.28619 -0.34071,1.68661 0.16587,2.31295 0.33695,0.41662 0.58833,0.91292 0.55861,1.1029 -0.0826,0.52821 -1.52134,-1.75481 -1.73081,-2.74651 -0.10145,-0.48079 -0.39535,-0.90715 -0.65302,-0.94745 -0.51699,-0.0809 -4.45654,1.91052 -4.99772,2.52627 -0.49619,0.56456 -0.67215,2.02474 -0.22111,1.83489 0.21023,-0.0885 0.3296,0.1756 0.26527,0.58686 -0.0706,0.45163 0.53438,1.60419 1.5277,2.91028 1.64466,2.16251 1.64466,2.16251 3.62872,2.2664 1.453,0.0761 1.90054,0.20131 1.67204,0.46784 -0.17161,0.20017 -0.68561,0.3055 -1.14223,0.23408 -0.45661,-0.0714 -0.94052,-0.001 -1.07534,0.15607 -0.37265,0.43466 -2.77818,-1.37823 -3.72495,-2.80724 -0.4613,-0.69627 -1.2942,-1.94509 -1.85087,-2.77516 -0.55668,-0.83007 -0.97883,-1.72225 -0.9381,-1.98263 0.095,-0.60756 -1.41637,-1.25536 -2.26564,-0.97107 -0.35841,0.11997 -1.39473,0.2098 -2.30293,0.19962 -1.65127,-0.0185 -1.65127,-0.0185 -1.24614,2.34579 0.22282,1.30036 0.56553,2.58419 0.76158,2.85294 0.19605,0.26876 0.32968,0.65986 0.29694,0.86913 -0.0327,0.20927 0.36422,1.0101 0.88211,1.77963 0.51789,0.76953 1.33672,2.44161 1.81962,3.71574 0.85644,2.25971 0.9089,2.31668 2.13654,2.32029 3.54138,0.0104 9.97374,-3.24179 10.69622,-5.40801 0.18236,-0.54678 0.731,-1.26401 1.21921,-1.59383 1.44647,-0.97722 1.95312,-1.83131 2.59785,-4.37929 0.37694,-1.48964 0.76741,-2.38982 1.01954,-2.35038 0.22474,0.0352 0.99624,-0.42204 1.71444,-1.01599 0.7182,-0.59394 1.27672,-0.89391 1.24117,-0.66658 -0.11932,0.76282 5.22953,1.00631 7.32209,0.33332 2.28231,-0.73401 3.23869,-0.53286 3.50372,0.73693 0.29832,1.4293 0.0991,1.65753 -0.34294,0.39285 -0.43478,-1.24398 -0.86508,-1.26641 -3.75562,-0.19571 -2.02817,0.75126 -2.81357,0.85302 -4.68214,0.60663 -3.37763,-0.44536 -6.05449,1.98883 -5.91136,5.37549 0.0251,0.59513 -0.10007,1.05924 -0.27826,1.03137 -0.73839,-0.1155 -2.46154,1.48681 -2.03087,1.88846 0.55661,0.5191 3.48824,0.59335 3.91185,0.0991 0.23215,-0.27087 1.55268,-0.21287 4.29446,0.18862 2.17758,0.31887 4.30516,0.45888 4.72795,0.3111 1.71821,-0.60052 2.93187,0.5675 1.59955,1.5394 -0.60107,0.43847 -1.75899,0.2881 -1.6798,-0.21814 0.0642,-0.41052 -6.36158,-1.06517 -6.59555,-0.67195 -0.0708,0.11901 -0.66636,0.0668 -1.32344,-0.11603 -0.75545,-0.2102 -1.56427,-0.16521 -2.19987,0.12236 -0.55285,0.25013 -0.87111,0.29841 -0.70725,0.10728 0.37746,-0.44028 -0.0284,-0.50281 -1.51046,-0.23269 -0.6458,0.11769 -1.14363,0.40135 -1.10629,0.63036 0.11616,0.71224 1.73301,0.92429 2.7133,0.35583 0.73375,-0.42549 1.05476,-0.43848 1.49163,-0.0604 0.41432,0.35858 0.86657,0.41036 1.76843,0.20248 2.22929,-0.51385 2.81086,-0.51744 1.89082,-0.0117 -0.75118,0.41294 -0.74778,0.42476 0.11556,0.40259 0.4892,-0.0126 1.72795,0.26635 2.7528,0.61979 1.86335,0.64262 1.86335,0.64262 -0.39644,0.25169 -2.55686,-0.44233 -7.98546,-0.43755 -7.46743,0.007 0.19926,0.17083 0.0268,0.32298 -0.41691,0.36777 -0.4807,0.0485 -0.65211,-0.0457 -0.46987,-0.25823 0.29038,-0.33871 -1.09505,-0.39659 -2.44923,-0.10233 -0.52613,0.11433 -0.61693,-0.0507 -0.48655,-0.88425 0.10399,-0.66484 -0.018,-1.05271 -0.34718,-1.1042 -0.27912,-0.0437 -0.45215,0.0521 -0.38452,0.21274 0.0676,0.16066 -0.0519,0.3657 -0.26551,0.45563 -0.62053,0.26119 -0.64513,1.44089 -0.0403,1.93256 0.30491,0.24787 0.36683,0.42622 0.13761,0.39634 -0.22921,-0.0299 -0.49034,-0.22915 -0.58028,-0.4428 -0.0899,-0.21366 -0.32644,-0.31989 -0.52557,-0.23607 -0.19913,0.0838 -0.28347,0.33909 -0.18742,0.56728 0.1051,0.24968 0.0279,0.28904 -0.194,0.0988 -0.20274,-0.17382 -0.25463,-0.449 -0.1153,-0.61152 0.13933,-0.16251 -0.19649,-0.16984 -0.74626,-0.0163 -0.54977,0.15355 -0.83406,0.36472 -0.63175,0.46925 0.20231,0.10453 0.34535,0.33383 0.31786,0.50955 -0.0693,0.44289 -1.02271,0.25297 -1.10216,-0.21955 -0.0356,-0.21152 -0.61083,0.042 -1.27834,0.56333 -1.21368,0.9479 -1.21368,0.9479 -0.15964,0.48695 0.62905,-0.27508 1.02952,-0.30424 0.99325,-0.0723 -0.0334,0.21374 0.17483,0.42548 0.46283,0.47053 0.767,0.11997 -2.15869,2.05558 -4.1829,2.76737 -0.93518,0.32884 -2.13506,0.80905 -2.66639,1.06712 -0.91751,0.44564 -0.93726,0.44253 -0.39295,-0.0618 0.44226,-0.40978 0.47267,-0.54675 0.1332,-0.59985 -0.42793,-0.0669 -1.50816,0.76873 -1.60494,1.24157 -0.0265,0.12944 0.44663,0.1736 1.05139,0.0981 0.77865,-0.0972 1.01245,-0.0356 0.8011,0.21091 -0.1945,0.22687 -0.0776,0.30076 0.33554,0.21216 1.10958,-0.23795 0.21872,0.39288 -0.95673,0.67747 -1.43478,0.34738 -1.03516,1.45366 0.47854,1.32477 0.90068,-0.0767 0.90568,-0.0652 0.15086,0.34636 -0.69706,0.38006 -0.71554,0.43708 -0.17251,0.53216 0.33452,0.0586 0.58368,0.26333 0.55369,0.45503 -0.03,0.1917 0.20689,0.38943 0.52639,0.4394 0.31949,0.05 0.4678,0.17337 0.32957,0.2742 -0.13822,0.10083 -0.51332,0.0164 -0.83354,-0.18775 -0.32022,-0.2041 -1.00192,-0.47213 -1.51487,-0.59564 -1.40264,-0.3377 -1.11225,0.49236 0.42202,1.2063 0.73225,0.34074 1.08305,0.59647 0.77955,0.56827 -0.41326,-0.0384 -0.58202,0.2802 -0.67214,1.26893 -0.12034,1.32018 -0.12034,1.32018 -0.50124,0.10425 -0.32786,-1.04657 -1.06799,-1.78471 -2.00103,-1.99563 -0.13861,-0.0313 -0.4386,-0.43756 -0.66667,-0.90271 -0.52573,-1.07228 -1.86518,-1.27675 -1.7094,-0.26095 0.0751,0.4894 -0.0258,0.62388 -0.33845,0.45131 -0.24494,-0.13519 -0.37854,-0.41612 -0.29689,-0.62428 0.0817,-0.20817 -0.0868,-0.41528 -0.37434,-0.46026 -0.28754,-0.045 -0.53629,0.004 -0.55277,0.1098 -0.0747,0.47772 0.74626,2.41994 1.0425,2.46627 0.18185,0.0285 0.50658,0.57897 0.72163,1.22338 0.25661,0.76896 0.25546,1.05546 -0.003,0.83357 -0.27952,-0.23964 -0.35477,-0.15349 -0.2584,0.29589 0.2819,1.31452 -0.51657,0.0344 -1.10036,-1.76415 -0.69786,-2.14998 -1.1993,-2.42897 -1.49912,-0.83409 -0.20078,1.0681 -0.21943,1.07925 -0.35469,0.21232 -0.22105,-1.41681 -0.12016,-1.80413 0.44686,-1.71544 0.28754,0.045 0.54682,-0.0717 0.57616,-0.25929 0.0331,-0.21167 -0.28519,-0.24651 -0.83897,-0.0918 -0.90549,0.25292 -1.70125,1.87221 -1.68946,3.4379 0.003,0.39324 -0.0314,0.50838 -0.0763,0.25587 -0.0449,-0.25251 -0.20642,-0.47862 -0.35891,-0.50247 -0.15249,-0.0239 -0.10666,-0.65941 0.10185,-1.41234 0.48473,-1.75037 -0.12234,-1.88647 -0.84712,-0.18992 -0.88745,2.07734 1.61037,8.22335 2.79363,6.87387 0.28061,-0.32003 0.3713,-0.3164 0.35695,0.0143 -0.0106,0.24383 -0.0253,0.61023 -0.0326,0.81423 -0.0337,0.93476 2.73581,2.91153 4.50508,3.21553 1.87308,0.32184 2.45418,0.49945 3.31253,1.01246 0.29929,0.17887 0.80218,0.11733 1.15711,-0.14158 0.79682,-0.58126 1.79695,-0.45646 1.43196,0.17869 -0.25668,0.44666 0.0907,0.61788 2.55678,1.2602 0.30206,0.0787 1.08601,0.0452 1.74211,-0.0744 z m -9.18843,-2.77155 c -0.4603,-0.19605 -1.04758,-0.55051 -1.30506,-0.78767 -0.59464,-0.54772 -2.02303,-2.83517 -1.51665,-2.42879 0.20739,0.16643 0.58222,0.0501 0.83297,-0.25846 0.27797,-0.34208 0.4322,-0.38234 0.39515,-0.10316 -0.0334,0.25184 0.10988,0.38607 0.31844,0.29828 0.20857,-0.0878 0.62981,0.0441 0.93611,0.29302 0.49895,0.40556 0.47513,0.44099 -0.22898,0.34058 -0.43223,-0.0616 -0.81887,0.0989 -0.8592,0.35672 -0.1248,0.79784 0.96636,1.81331 2.14688,1.99796 0.66183,0.10352 1.01462,0.30587 0.85595,0.49095 -0.29079,0.33918 -0.31958,0.33554 -1.57561,-0.19943 z m 6.31916,-5.01614 c -2.11893,-0.52314 -2.70762,-0.81444 -3.46947,-1.71676 -0.81006,-0.95943 -0.38131,-1.02702 0.53052,-0.0836 0.36019,0.37264 0.98262,0.60689 1.52461,0.57376 0.50375,-0.0308 1.80633,0.3933 2.89461,0.94242 2.02549,1.02202 1.73446,1.0779 -1.48027,0.28421 z m 4.1218,-4.3948 c 0.0215,-0.33373 -0.36925,-0.46179 -1.43205,-0.46934 -0.97896,-0.007 -1.36802,-0.11955 -1.17819,-0.34096 0.49227,-0.57418 3.62273,-1.94932 4.49315,-1.97373 1.26914,-0.0356 1.28316,-0.0717 0.19624,-0.50587 -0.91184,-0.36421 -0.80252,-0.4086 1.14384,-0.46439 1.18363,-0.0339 2.44339,-0.12651 2.79946,-0.20574 0.47948,-0.1067 0.614,0.0227 0.51864,0.49887 -0.0708,0.35361 -0.17563,0.44377 -0.23294,0.20036 -0.0573,-0.24342 -0.34188,-0.3916 -0.63238,-0.32931 -0.29051,0.0623 -0.46339,0.26726 -0.38417,0.45545 0.0792,0.18821 -0.36189,0.26305 -0.98025,0.16633 -0.61835,-0.0967 -1.03508,-0.0536 -0.92607,0.0959 0.10902,0.14944 -0.44201,0.5098 -1.22451,0.8008 -0.98174,0.3651 -1.54168,0.83929 -1.80651,1.52986 -0.21109,0.55042 -0.37051,0.79424 -0.35426,0.54181 z m 1.56329,-5.69886 c 0.0433,-0.27668 -0.23171,-0.80173 -0.61108,-1.16679 -0.64537,-0.62102 -0.64579,-0.65509 -0.006,-0.52942 1.09884,0.21601 3.44982,1.50243 2.57525,1.40914 -0.41396,-0.0442 -0.87972,0.14086 -1.03504,0.41114 -0.36054,0.62742 -1.02622,0.5379 -0.92267,-0.12407 z m 28.4711,-8.52843 c 0.11395,-0.72845 0.0484,-1.5421 -0.14566,-1.80812 -0.25414,-0.34839 -0.24159,-0.46627 0.0449,-0.42146 0.54913,0.0859 0.66891,0.47515 0.67476,2.19273 0.003,1.00378 -0.1222,1.46437 -0.38804,1.42279 -0.22279,-0.0349 -0.30333,-0.63527 -0.18592,-1.38594 z m -2.58672,-3.49535 c -1.61346,-1.00144 -2.08446,-1.11288 -7.80867,-1.84762 -3.3504,-0.43005 -6.35842,-0.9477 -6.68449,-1.15035 -1.18336,-0.73543 1.12769,-0.61677 6.15831,0.31619 4.61025,0.85501 4.98356,0.87515 5.75739,0.31066 0.92016,-0.67124 1.14136,-2.68575 0.51006,-4.64528 -0.47127,-1.4628 -0.33884,-1.66625 0.38667,-0.594 0.39878,0.58937 0.66276,1.86459 0.71287,3.44364 0.0805,2.53595 0.45402,3.32588 1.87528,3.96555 0.39954,0.17982 0.77669,0.56132 0.83812,0.84779 0.0614,0.28647 0.0802,0.49796 0.0416,0.47 -0.0386,-0.028 -0.84277,-0.53043 -1.78713,-1.11658 z m -19.97977,28.3896 c 1.27932,-0.38754 2.54354,-0.8965 2.80937,-1.13102 0.79766,-0.70372 -0.0944,-0.61301 -2.20535,0.22423 -1.06532,0.42253 -2.16529,0.73252 -2.4444,0.68886 -0.27911,-0.0437 -0.53201,0.0775 -0.56199,0.26916 -0.03,0.1917 -0.28053,0.31319 -0.55676,0.26998 -0.27623,-0.0432 -0.61238,0.0499 -0.74699,0.20693 -0.39292,0.4583 1.19821,0.23156 3.70612,-0.52814 z m -18.95325,-14.91075 c 0.88977,-0.65023 1.43332,-2.26556 0.75197,-2.23475 -0.32954,0.0149 -0.26348,-0.19663 0.23282,-0.74543 0.38111,-0.42144 0.87127,-0.66377 1.08923,-0.53852 0.42378,0.24353 2.13145,-0.75306 2.21593,-1.2932 0.0279,-0.17821 0.2358,-0.22342 0.46205,-0.10046 0.44922,0.24414 3.26102,-1.28282 3.006,-1.63242 -0.27135,-0.37197 -3.41984,0.81656 -3.93232,1.48443 -0.60461,0.78792 -1.14798,1.07889 -1.48123,0.79319 -0.13946,-0.11958 0.0199,-0.41689 0.3541,-0.6607 0.81384,-0.59368 0.79447,-0.7211 -0.13064,-0.85936 -1.28852,-0.19259 -1.77396,0.22735 -2.83495,2.45236 -0.96822,2.03046 -0.91693,1.52554 0.16863,-1.66025 0.36356,-1.06691 0.33136,-1.21687 -0.25683,-1.19621 -0.83605,0.0293 -3.34193,4.02428 -2.95517,4.71118 0.15794,0.28049 0.10158,0.47702 -0.14886,0.51913 -0.22165,0.0373 -0.35028,0.31397 -0.28585,0.61488 0.17009,0.79433 2.79927,1.03732 3.74512,0.34613 z m -25.5557,-4.51522 c 1.14028,-0.23455 2.65791,-0.79741 3.37252,-1.2508 1.65783,-1.05183 7.1168,-2.0656 9.31244,-1.72939 1.13468,0.17377 3.22557,-0.21114 4.09146,-0.75315 1.71782,-1.07529 -1.02311,-3.55298 -4.0024,-3.61802 -0.7985,-0.0174 -1.62484,-0.21933 -1.83633,-0.4487 -1.37036,-1.48613 -4.73761,-2.03575 -6.49158,-1.05959 -0.51301,0.28551 -1.20042,0.47725 -1.52758,0.42608 -0.60999,-0.0954 -5.54542,3.43971 -5.63919,4.03921 -0.0286,0.18318 -1.08544,0.77589 -2.34842,1.31713 -1.26298,0.54124 -2.32787,1.18573 -2.36643,1.43219 -0.19881,1.27103 4.35539,2.2786 7.43551,1.64504 z m -8.91138,-3.13842 c 1.07322,-0.2226 2.42168,-0.69456 2.99658,-1.04882 0.57491,-0.35426 1.99063,-1.2193 3.14607,-1.92231 1.15543,-0.70302 2.96018,-1.82667 4.01057,-2.49702 1.05038,-0.67035 2.12189,-1.18564 2.38112,-1.14509 0.25924,0.0405 0.95723,-0.0903 1.5511,-0.29078 0.59387,-0.20048 1.39398,-0.31881 1.77802,-0.26296 1.44964,0.21083 1.70438,-0.18251 1.85746,-2.86811 0.15996,-2.80615 0.0391,-2.93179 -2.24023,-2.32956 -0.74794,0.19761 -1.69424,0.4423 -2.10289,0.54374 -0.40864,0.10145 -1.62208,0.15479 -2.69654,0.11853 -2.07619,-0.0701 -3.25601,0.18766 -3.78422,0.82668 -0.17826,0.21565 -0.92468,0.41029 -1.65871,0.43253 -1.31246,0.0398 -5.3635,2.59651 -4.9696,3.13648 0.092,0.12614 9.1e-4,0.20331 -0.20247,0.1715 -0.20337,-0.0318 -0.90269,0.30379 -1.55404,0.74578 -0.81659,0.55411 -1.41533,0.70945 -1.92846,0.50033 -0.67576,-0.27539 -0.58307,-0.38288 1.0079,-1.16879 0.96712,-0.47774 2.17761,-1.45293 2.70186,-2.17665 1.32941,-1.83522 8.74325,-4.15499 12.58136,-3.93667 1.36258,0.0775 2.81713,0.0236 3.23233,-0.11973 1.37085,-0.47333 3.30123,-1.70174 3.37056,-2.14487 0.0907,-0.57952 0.22172,-0.53463 1.43219,0.49049 1.70681,1.44547 6.63027,1.41373 9.10021,-0.0587 0.45526,-0.27139 0.62091,-0.24088 0.78301,0.14422 0.16439,0.39054 0.67046,0.43744 2.52492,0.234 1.27564,-0.13994 3.15053,-0.23053 4.16644,-0.20131 3.26294,0.0939 9.1623,-3.27295 10.21922,-5.83216 0.58777,-1.42322 0.58777,-1.42322 -1.0984,-2.22494 -0.92739,-0.44095 -2.01033,-0.85417 -2.40653,-0.91827 -0.3962,-0.0641 -1.46714,-0.47859 -2.37986,-0.9211 -0.91272,-0.44251 -2.91348,-1.00562 -4.44614,-1.25136 -1.53266,-0.24574 -3.22227,-0.5268 -3.75468,-0.62459 -0.5485,-0.10072 -1.67445,0.17218 -2.59797,0.62971 -0.89647,0.44412 -1.91322,0.86265 -2.25946,0.93008 -0.34624,0.0674 -1.13179,0.81481 -1.74566,1.66085 -0.61387,0.84605 -1.4979,1.83336 -1.9645,2.19404 -0.46661,0.36067 -0.88424,0.85773 -0.92808,1.10457 -0.0438,0.24684 -0.28139,-0.0321 -0.52791,-0.61987 -0.33238,-0.79251 -0.637,-1.04148 -1.1788,-0.96342 -0.40183,0.0579 -1.26332,0.0791 -1.91443,0.0472 -0.65111,-0.0319 -1.27283,0.007 -1.38161,0.0862 -0.10878,0.0793 -0.69419,-0.16071 -1.30091,-0.53349 -1.36007,-0.83562 -1.63331,-0.88298 -2.30456,-0.39948 -1.27626,0.91929 -3.67454,1.81558 -4.5089,1.68507 -0.49914,-0.0781 -1.68135,0.27088 -2.62715,0.77545 -1.70681,0.91056 -2.49252,1.1389 -7.04455,2.0472 -2.50403,0.49965 -5.66293,2.8626 -6.59548,4.93361 -0.21908,0.48652 -0.88724,1.06735 -1.48481,1.29072 -0.78932,0.29505 -1.09733,0.63753 -1.12612,1.25213 -0.0218,0.4653 -0.0921,1.26708 -0.15624,1.78174 -0.0641,0.51467 0.42455,2.09868 1.08597,3.52002 0.66141,1.42135 1.18215,2.71482 1.1572,2.87439 -0.0446,0.2852 1.15485,1.35823 1.62882,1.45714 0.13313,0.0278 0.40744,0.27724 0.60958,0.55434 0.50904,0.69781 1.28153,0.76124 3.54742,0.29128 z m 35.46736,-19.49985 c -0.44898,-0.26846 -1.69369,-0.52888 -2.76602,-0.57873 -1.58275,-0.0736 -1.81143,-0.14792 -1.21507,-0.39511 0.40404,-0.16747 1.84276,-0.12016 3.19716,0.10512 1.3544,0.22528 3.25508,0.28883 4.22373,0.1412 2.34118,-0.35682 2.45719,-0.0272 0.27472,0.78064 -1.9125,0.70788 -2.4548,0.70013 -3.71452,-0.0531 z m -0.72235,20.0897 c 1.26824,-0.62182 1.07467,-3.10184 -0.39988,-5.12321 -0.22855,-0.31331 -0.3835,-0.7745 -0.34434,-1.02488 0.26983,-1.72507 -2.02459,-1.37034 -3.02151,0.46713 -0.12936,0.23843 -0.34886,0.28792 -0.48776,0.10997 -0.13891,-0.17795 -0.0148,-0.59823 0.27573,-0.93396 1.29564,-1.49703 0.85701,-4.02024 -1.00098,-5.75811 -1.66367,-1.55612 -9.50716,-2.1294 -10.29827,-0.7527 -0.13511,0.23511 -0.37248,0.31874 -0.5275,0.18583 -0.61999,-0.53153 -0.7694,1.91929 -0.23995,3.93612 0.46852,1.78477 3.40136,3.57335 6.06579,3.69919 1.02587,0.0485 1.54421,0.24683 1.80999,0.69265 0.20483,0.34361 0.26861,0.6085 0.14173,0.58866 -0.12688,-0.0199 -0.0983,0.18548 0.0636,0.45627 0.16184,0.2708 0.52363,0.91573 0.80398,1.43316 0.79032,1.45872 5.5613,2.80742 7.1594,2.02388 z m -43.30332,-12.64474 c 0.22134,0.0346 0.33004,-0.10906 0.24155,-0.31929 -0.0885,-0.21022 0.0602,-0.34765 0.33039,-0.30538 0.40563,0.0634 3.17801,-2.7207 3.26538,-3.27922 0.0802,-0.51242 2.45956,-1.66554 5.14929,-2.49547 1.68983,-0.52141 3.48599,-1.29631 3.99145,-1.722 0.50547,-0.42569 1.17034,-0.73468 1.4775,-0.68663 0.65636,0.10266 2.51019,-0.54026 4.00931,-1.39047 0.58367,-0.33102 1.85657,-0.58715 2.82868,-0.56919 3.0461,0.0563 3.07521,0.0149 3.95844,-5.63172 0.67805,-4.33489 0.85179,-4.96191 1.43481,-5.17807 1.00779,-0.37364 2.01227,-1.95473 2.45049,-3.85717 0.47287,-2.05283 2.31538,-4.20837 5.63806,-6.59591 1.86181,-1.33783 2.40251,-1.9721 3.35726,-3.93821 1.66341,-3.42545 2.33316,-4.32775 4.5308,-6.10392 4.2789,-3.45831 4.76184,-5.34375 1.83211,-7.15285 -1.81035,-1.11789 -4.63908,-0.0486 -4.93869,1.86685 -0.0807,0.51583 -0.51058,1.27626 -0.95533,1.68985 -1.02065,0.94915 -4.08505,5.42339 -4.19473,6.12459 -0.0453,0.28936 -0.46131,0.77292 -0.92456,1.07458 -0.46326,0.30165 -1.69657,1.41909 -2.7407,2.48319 -1.04413,1.0641 -2.01045,1.9172 -2.14737,1.89578 -0.13693,-0.0214 -1.71844,1.19107 -3.51445,2.69442 -3.33955,2.79535 -4.29951,4.12137 -4.72382,6.52513 -0.13255,0.75088 -0.74286,2.36128 -1.35627,3.57866 -1.11527,2.21342 -1.11527,2.21342 -0.59544,3.91998 0.79388,2.60622 0.70239,3.98562 -0.30833,4.64839 -0.57154,0.37479 -0.93799,0.42019 -1.14136,0.14141 -0.20336,-0.27878 -0.10453,-0.52686 0.30784,-0.77268 0.82582,-0.4923 0.8496,-0.96253 0.17086,-3.37886 -0.59639,-2.12317 0.0708,-5.48577 1.32036,-6.65447 0.21899,-0.20482 0.57666,-1.46857 0.79482,-2.80834 0.44682,-2.744 0.12759,-3.86889 -1.50518,-5.30387 -0.71565,-0.62896 -0.78848,-0.78207 -0.2541,-0.53424 0.67564,0.31336 1.20422,-0.11393 0.61312,-0.49563 -0.446,-0.28801 -1.14494,-2.90848 -0.89428,-3.35288 0.14454,-0.25626 0.39727,0.14111 0.60902,0.95757 0.19907,0.76759 0.47694,1.41713 0.61748,1.44343 0.14054,0.0263 0.61625,0.82343 1.05713,1.77139 1.03877,2.23347 1.00902,2.23771 4.38253,-0.62473 1.58508,-1.34495 4.19684,-3.46565 5.80391,-4.71268 2.44587,-1.8979 2.94565,-2.45342 3.06748,-3.40958 0.0895,-0.70246 0.46832,-1.39798 0.98383,-1.80638 1.36616,-1.0823 3.56653,-3.95699 3.66646,-4.79006 0.051,-0.42525 -0.0175,-0.58858 -0.15226,-0.36295 -0.13475,0.22563 -0.37166,0.30165 -0.52645,0.16894 -0.1548,-0.13271 -0.62108,-0.12259 -1.03619,0.0225 -1.42646,0.49855 -0.35362,-0.55101 1.2556,-1.22837 2.78703,-1.17313 1.85567,-1.63661 -4.34053,-2.16001 -4.25883,-0.35975 -6.38538,-0.0831 -6.53129,0.84979 -0.0874,0.55899 1.19056,1.22893 2.86588,1.50232 0.95292,0.15551 1.94167,0.55075 2.29046,0.91558 0.56016,0.58593 0.35825,0.58167 -2.31331,-0.0487 -5.23995,-1.23648 -9.82454,1.17457 -10.50496,5.52459 -0.0916,0.58594 -0.37799,1.21953 -0.63632,1.40797 -0.25832,0.18844 -0.54489,0.98814 -0.63682,1.77711 -0.0975,0.83641 -0.29268,1.32687 -0.46822,1.17636 -0.50123,-0.42971 -0.40893,-2.62766 0.15947,-3.79769 1.90089,-3.9129 1.46476,-4.52903 -2.00529,-2.83287 -2.1866,1.0688 -2.48616,1.49313 -3.45964,4.90059 -0.46382,1.6235 -1.13497,2.1972 -3.36089,2.8729 -1.42266,0.43187 -2.06245,1.17014 -2.29336,2.64642 -0.11393,0.72833 -0.3375,1.04188 -0.70221,0.98483 -0.4069,-0.0636 -0.43132,-0.22115 -0.10195,-0.65753 0.57626,-0.76348 0.0232,-2.56302 -1.10253,-3.58749 -0.51465,-0.46835 -0.59236,-0.63544 -0.19559,-0.42054 1.29386,0.70078 2.17444,0.93655 2.22764,0.59646 0.0297,-0.19008 0.55431,-0.36674 1.16573,-0.39258 2.42022,-0.10228 3.73119,-1.89132 3.61272,-4.93015 -0.002,-0.0511 -0.29948,9e-4 -0.66108,0.1155 -0.3616,0.1146 -2.00441,0.60159 -3.65068,1.0822 -2.88169,0.84128 -5.93051,2.53147 -6.06003,3.35954 -0.0342,0.21893 0.22164,0.74855 0.56864,1.17694 0.75444,0.93143 1.86532,4.18591 1.51582,4.44086 -0.35886,0.26178 0.48514,3.08274 1.01309,3.38613 0.91033,0.52311 -1.88947,3.44307 -3.14423,3.27918 -0.66378,-0.0867 -0.58338,0.27944 0.26066,1.18705 0.42027,0.45193 0.72065,1.09969 0.66751,1.43946 -0.0532,0.33977 0.1572,0.9316 0.46743,1.31519 0.56917,0.70372 0.66629,1.38521 0.70811,4.96825 0.0596,5.10833 1.93971,5.42972 2.72246,0.46539 0.13265,-0.84124 0.45076,-1.67523 0.70692,-1.85329 0.35235,-0.24492 0.35119,0.0931 -0.005,1.38797 -2.0115,7.31805 -1.88547,8.50751 0.67031,6.32623 2.2347,-1.90725 3.2732,-4.3481 4.47598,-10.5202 0.28539,-1.46452 0.80361,-8.00156 0.66114,-8.34002 -0.10565,-0.25098 0.002,-0.33197 0.26188,-0.19754 0.89846,0.46422 0.51599,8.23752 -0.49156,9.99051 -0.39516,0.68752 -0.52152,1.49136 -0.46549,2.96226 0.075,1.97479 0.0388,2.07082 -1.6641,4.41761 -1.02441,1.41172 -2.10832,2.51415 -2.63388,2.6789 -0.49121,0.15398 -1.99898,1.06175 -3.35061,2.01727 -2.45751,1.73731 -2.45751,1.73731 -5.79365,0.8564 -3.59047,-0.94806 -4.51857,-0.75406 -5.58485,1.16746 -0.45621,0.82213 0.76745,3.54535 1.65549,3.68425 0.75131,0.11752 1.42055,1.05563 0.98155,1.37588 -0.16388,0.11955 0.13814,0.17768 0.67116,0.12919 0.53302,-0.0485 1.22549,0.11299 1.53882,0.35887 0.42518,0.33365 0.83358,0.31512 1.60995,-0.073 0.57199,-0.28608 1.2212,-0.49179 1.44254,-0.45717 z m 6.99194,-23.6154 c -0.19405,-0.26602 -0.26023,-1.07564 -0.14706,-1.79917 0.17349,-1.10915 0.055,-1.42597 -0.75527,-2.01976 -1.18705,-0.86988 -1.18253,-0.99066 0.0281,-0.75006 0.90286,0.17944 0.96561,0.10755 1.20803,-1.38392 0.20737,-1.27576 0.55569,-1.86033 1.84242,-3.09194 2.85375,-2.73151 4.44508,-3.00738 6.41207,-1.11156 1.14713,1.10561 1.14713,1.10561 -0.45297,0.62451 -2.92791,-0.88034 -5.79837,1.25478 -6.55581,4.87637 -0.17137,0.81939 -0.50664,1.52259 -0.74504,1.56268 -0.61586,0.10356 -0.76962,1.57465 -0.22867,2.18781 0.48068,0.54484 0.49807,1.50618 0.0259,1.43232 -0.15336,-0.024 -0.4376,-0.26126 -0.63166,-0.52728 z m 14.39771,-12.49483 c 0.1054,-0.79458 2.69138,-3.99639 2.80392,-3.47163 0.064,0.29836 -0.0809,0.87175 -0.32194,1.27421 -0.54085,0.90303 -2.54573,2.67805 -2.48198,2.19742 z m 5.23377,-5.2807 c 0.16379,-0.28502 0.33172,-0.73514 0.37319,-1.00026 0.0852,-0.54451 1.2276,-1.02297 2.51715,-1.05422 1.46838,-0.0356 0.96579,0.70375 -1.28513,1.89046 -1.63649,0.86279 -2.02985,0.90298 -1.60521,0.16402 z m -35.87722,36.2822 c 0.13725,-0.48904 0.94923,-1.4744 1.80441,-2.18969 2.69563,-2.25468 3.0301,-5.77297 0.46353,-4.87593 -0.40183,0.14044 -0.82672,0.24031 -0.94421,0.22193 -0.23822,-0.0373 1.92736,-2.07555 3.66022,-3.44505 0.61854,-0.48885 1.27646,-1.2469 1.46205,-1.68456 0.18559,-0.43765 0.46567,-0.68579 0.62242,-0.55141 0.15674,0.13438 -0.40718,1.12965 -1.25316,2.21172 -1.53815,1.96739 -1.53815,1.96739 -0.97772,3.04987 0.39962,0.77185 0.45163,1.34353 0.18126,1.99222 -0.99287,2.38221 -0.99201,2.38327 2.7143,3.36741 4.34466,1.15363 5.43661,-0.54738 3.63268,-5.65891 -0.54569,-1.54626 -0.73906,-2.78426 -0.58959,-3.7747 0.53928,-3.57353 -1.69831,-8.11288 -3.99265,-8.09976 -1.91089,0.0109 -2.39637,0.63114 -2.53485,3.23834 -0.13743,2.58751 -0.82416,3.71645 -2.96673,4.87706 -2.71745,1.47203 -3.13324,2.56268 -3.95309,10.36939 -0.0392,0.37353 0.21326,0.65822 0.64345,0.72551 0.38941,0.0609 0.76301,0.36716 0.83021,0.68055 0.18087,0.84342 0.91106,0.56659 1.19747,-0.45399 z m -3.54599,-3.51201 c 0.0682,-3.5976 1.53553,-6.5457 4.3062,-8.65162 2.95552,-2.24643 3.90667,-4.23596 2.21479,-4.6327 -0.2431,-0.057 -0.69221,-0.26261 -0.99802,-0.45689 -0.30581,-0.19428 -1.54968,-0.37331 -2.76417,-0.39783 -2.20815,-0.0446 -2.20815,-0.0446 -3.96735,2.35821 -1.72265,2.35292 -1.75735,2.44392 -1.67046,4.38058 0.14531,3.23878 0.61947,5.84132 1.38824,7.61967 0.87326,2.02006 1.44996,1.93517 1.49077,-0.21942 z m 53.38747,8.98846 c -0.35045,-1.40182 -0.87653,-2.16844 -1.21618,-1.77226 -0.23267,0.27138 0.94281,2.71144 1.33583,2.77291 0.0747,0.0117 0.0209,-0.43861 -0.11965,-1.00065 z m -57.00281,-18.96099 c 0.3393,-0.70918 0.8819,-1.44739 1.20578,-1.64046 0.32388,-0.19307 0.62091,-0.55593 0.66009,-0.80635 0.10151,-0.64902 2.70532,-2.59362 3.33992,-2.49436 0.63395,0.0992 0.88386,-0.29227 1.55754,-2.43957 0.33791,-1.07704 0.37788,-1.56826 0.11875,-1.45918 -0.21485,0.0904 -0.35324,-0.0288 -0.30753,-0.26506 0.38476,-1.98817 0.38366,-1.98929 -2.37484,-2.42077 -3.12018,-0.48804 -2.73117,-0.90521 -4.55377,4.88342 -1.45475,4.62033 -1.48345,4.7864 -1.08963,6.3055 0.49881,1.92407 0.66565,1.963 1.44369,0.33683 z m 50.21673,7.85224 c 1.09709,-0.5435 1.20662,-0.69002 2.73,-3.65208 0.68714,-1.33606 1.14048,-2.66342 1.11507,-3.26483 -0.0236,-0.5574 0.0737,-1.09844 0.21609,-1.20233 0.14241,-0.10388 0.51455,-1.91324 0.82697,-4.02079 0.31241,-2.10755 0.72509,-3.89801 0.91704,-3.97881 0.19195,-0.0808 0.28787,-0.29212 0.21316,-0.46962 -0.0747,-0.1775 0.74348,-1.04266 1.81822,-1.9226 2.04488,-1.67422 3.151,-3.09589 3.89483,-5.00592 0.97971,-2.51574 2.56828,-4.23428 4.06374,-4.39623 5.66032,-0.61298 6.1799,-8.25462 0.65304,-9.6046 -1.53139,-0.37406 -1.72081,-0.19877 -3.35536,3.1051 -1.03533,2.09269 -2.60665,3.75262 -3.89219,4.11168 -0.48829,0.13638 -1.04228,0.56095 -1.2311,0.94348 -0.18882,0.38254 -0.69169,1.0218 -1.11749,1.42058 -0.45591,0.42699 -0.84183,1.24737 -0.93875,1.99557 -0.30419,2.34849 -1.37291,3.82896 -3.46408,4.79869 -1.06311,0.49298 -2.63517,1.65866 -3.53323,2.61987 -1.60053,1.71307 -1.8157,2.1161 -1.92972,3.61442 -0.0656,0.86187 -1.01178,2.265 -2.83066,4.19764 -1.04941,1.11504 -1.28663,1.6608 -1.67122,3.84487 -0.82976,4.71216 -0.81276,5.43495 0.14094,5.99208 1.89493,1.10699 5.93722,1.58596 7.37469,0.87383 z m -2.62017,-7.68031 c 0.29806,-0.59163 0.7158,-1.28952 0.92829,-1.55087 0.53545,-0.65851 1.18343,-1.6568 1.53878,-2.37067 0.16446,-0.3304 0.42685,-0.49114 0.58308,-0.3572 0.15623,0.13394 -0.10438,0.78006 -0.57913,1.43581 -0.47476,0.65576 -0.91534,1.51168 -0.97909,1.90206 -0.22417,1.37289 -0.78295,2.21224 -1.4077,2.11452 -0.54889,-0.0859 -0.55928,-0.23068 -0.0842,-1.17365 z m 29.52726,7.50225 c 0.9311,-0.0511 1.90988,-0.2843 2.17506,-0.51825 0.27741,-0.24475 0.79201,-0.29396 1.2119,-0.11591 1.20438,0.51072 4.26161,-3.22637 4.0834,-4.99146 -0.0363,-0.35942 0.0673,-0.53922 0.2302,-0.39957 1.13005,0.96883 -1.02548,-2.46436 -2.27484,-3.62323 -1.76553,-1.63764 -4.39015,-1.97564 -6.16627,-0.79409 -0.4498,0.29922 -1.67815,0.76037 -2.72966,1.02478 -1.63502,0.41114 -2.02833,0.68421 -2.71633,1.88591 -0.44247,0.77285 -1.52453,1.9934 -2.40457,2.71234 -0.88004,0.71895 -1.55288,1.37188 -1.49519,1.45096 0.98159,1.3456 7.46879,3.51213 10.0863,3.36852 z m -17.94759,-5.86952 c 1.53239,-1.8074 3.21525,-3.12741 3.10731,-2.43733 -0.0313,0.19999 -0.51774,0.85634 -1.08101,1.45854 -1.42048,1.51866 -1.26917,2.43622 0.44598,2.7045 0.73074,0.11429 1.57009,0.0317 1.86522,-0.18363 0.29513,-0.21529 0.96524,-0.43044 1.48913,-0.47811 1.61943,-0.14736 3.96624,-2.16128 4.67012,-4.00768 0.61143,-1.60391 0.65422,-1.63558 2.23241,-1.6523 1.04208,-0.011 1.92796,-0.28483 2.51417,-0.77702 0.49783,-0.41798 1.03155,-0.74019 1.18604,-0.71602 0.1545,0.0242 1.07306,-0.23097 2.04125,-0.56696 1.62986,-0.5656 1.82751,-0.56132 2.66613,0.0578 1.13359,0.83683 1.72604,0.93686 2.52244,0.42587 1.36604,-0.87646 3.30024,-1.05168 5.9439,-0.53848 1.44666,0.28084 2.6166,0.40678 2.59988,0.27992 -0.0561,-0.42566 2.06854,-1.86624 2.62425,-1.77932 0.88109,0.13782 1.12071,-0.46059 0.65425,-1.63387 -0.81552,-2.0513 -2.74514,-3.10352 -4.29652,-2.34289 -1.31479,0.64464 -7.33948,1.5224 -8.11871,1.18285 -0.39615,-0.17262 -0.94046,-0.1848 -1.20957,-0.0271 -1.54565,0.90599 -5.63148,-1.49876 -8.86558,-5.21791 -1.39388,-1.60294 -2.78964,-2.95436 -3.1017,-3.00317 -0.31206,-0.0488 -0.50977,-0.20025 -0.43935,-0.33653 0.40638,-0.78652 -2.05083,-0.84781 -3.10681,-0.0775 -0.53069,0.38713 -1.02211,0.62544 -1.09203,0.52959 -0.17612,-0.24144 -2.08499,2.62611 -2.18845,3.28754 -0.16747,1.07069 -1.6007,2.98423 -3.0472,4.0684 -0.81293,0.60929 -1.32896,1.13359 -1.14675,1.1651 0.18225,0.0314 0.11514,0.15138 -0.14906,0.26638 -1.16528,0.50721 -2.93553,9.06108 -2.23821,10.81507 0.70947,1.78453 1.72449,1.65017 3.51847,-0.46576 z m 6.2111,-6.3358 c 0.4304,-2.80481 0.1782,-2.97522 -2.18918,-1.47928 -1.58914,1.00417 -2.03694,1.15759 -1.95066,0.66833 0.21996,-1.24734 1.31821,-2.15266 3.59634,-2.96456 2.31263,-0.82419 2.31263,-0.82419 1.98283,0.0833 -0.1814,0.49909 -0.32774,1.83847 -0.32521,2.9764 0.004,1.84514 -0.0712,2.09545 -0.69616,2.31387 -0.64117,0.2241 -0.67671,0.0882 -0.41796,-1.59801 z m 5.13534,-1.97595 c -0.0883,-0.20986 0.1383,-0.69221 0.50365,-1.07187 1.37269,-1.42651 0.80021,-2.37273 -2.44858,-4.04716 -1.43374,-0.73895 -1.89803,-1.1715 -1.95736,-1.82354 -0.12611,-1.38589 0.40147,-1.60609 1.27154,-0.53072 1.3421,1.65877 4.15965,4.38551 4.92675,4.76795 0.70937,0.35366 0.69065,0.39196 -0.68042,1.39212 -0.77542,0.56566 -1.34158,1.19065 -1.25814,1.38888 0.0834,0.19823 0.0733,0.34815 -0.0225,0.33316 -0.0959,-0.015 -0.24654,-0.19896 -0.33488,-0.40882 z m -61.03316,1.89234 c 0.51409,-0.10859 1.36691,-0.67516 1.89514,-1.25904 0.77747,-0.85937 1.40291,-1.11649 3.283,-1.34964 3.26794,-0.40527 3.86915,-1.03249 3.72474,-3.88586 -0.15773,-3.11633 -0.95024,-4.17429 -3.15754,-4.21509 -1.20923,-0.0223 -1.97446,-0.23625 -2.70644,-0.7565 -1.13937,-0.80979 -1.36412,-0.71019 -2.89236,1.28174 -0.39701,0.51746 -0.94606,1.10441 -1.22012,1.30433 -0.46465,0.33895 -1.5121,7.08999 -1.30413,8.40544 0.0864,0.54639 1.08972,0.74667 2.37772,0.47462 z m 79.29554,6.4469 c 5.50219,-1.81874 3.71293,-6.50129 -2.35613,-6.16606 -3.47798,0.19211 -3.7502,0.75375 -1.80763,3.72942 1.82371,2.79359 2.27858,3.05979 4.16376,2.43664 z m -81.98317,-15.18254 c 0.48429,-0.56251 1.27682,-1.88318 1.76117,-2.93482 1.28446,-2.78887 2.51215,-3.2869 3.58415,-1.45396 1.13891,1.94734 4.20674,2.56538 4.46723,0.89997 0.0907,-0.57956 -0.0542,-1.38774 -0.32188,-1.79596 -0.63329,-0.96575 2.06006,-2.87478 6.15624,-4.36353 1.57391,-0.57203 2.82353,-1.25771 2.99051,-1.64091 0.15776,-0.36205 0.57636,-0.61536 0.93022,-0.5629 0.35385,0.0525 1.07037,-0.0663 1.59225,-0.26398 0.52188,-0.19764 1.66669,-0.58261 2.54402,-0.85547 1.39247,-0.43309 1.61782,-0.64117 1.77371,-1.63781 0.36068,-2.30585 -0.77666,-4.00437 -1.97401,-2.94803 -0.24257,0.214 -0.96342,0.34768 -1.6019,0.29707 -0.63848,-0.0506 -1.33613,0.0358 -1.55034,0.19209 -0.21422,0.15626 -0.60087,0.25105 -0.85923,0.21064 -0.67058,-0.10489 -2.44885,1.38337 -2.56874,2.14981 -0.0759,0.48548 -0.38491,0.61569 -1.24236,0.52356 -0.62771,-0.0674 -1.53813,-0.15368 -2.02316,-0.19165 -2.56577,-0.20081 -9.82337,3.86764 -8.66735,4.85873 0.20568,0.17634 0.17876,0.79378 -0.0674,1.54665 -0.41523,1.26984 -1.04763,1.34815 -0.85328,0.10567 0.0582,-0.37208 -0.051,-0.70105 -0.24273,-0.73103 -0.19169,-0.03 -0.38045,0.14949 -0.41945,0.39884 -0.039,0.24935 -0.82529,0.68432 -1.74731,0.9666 -1.11094,0.34012 -2.06201,0.96809 -2.81965,1.86177 -0.6288,0.7417 -1.77515,1.74851 -2.54747,2.23735 -2.34083,1.48166 -1.41078,3.16367 2.21837,4.01195 0.34448,0.0805 0.98945,-0.30109 1.48841,-0.88065 z m 90.39447,12.90355 c 1.00621,-1.28223 -0.67217,-5.22354 -2.20242,-5.17192 -2.24335,0.0757 -2.59056,4.33205 -0.41867,5.13231 1.48585,0.54749 2.2139,0.55849 2.62109,0.0396 z m -15.90581,-10.51466 c 0.26066,-0.15207 0.62182,-0.14971 0.80258,0.005 0.18075,0.15496 0.35201,0.13233 0.38057,-0.0503 0.0323,-0.20672 0.55734,-0.11614 1.391,0.24 0.96021,0.41021 1.49175,0.48103 1.87879,0.2503 0.29686,-0.17696 1.37537,-0.43398 2.39668,-0.57116 3.81287,-0.51211 3.8559,-1.87205 0.21315,-6.73545 -2.21937,-2.96307 -6.78642,-6.96647 -8.18482,-7.1747 -0.2082,-0.031 -1.33112,-0.55642 -2.49538,-1.16759 -1.16425,-0.61117 -3.08993,-1.28792 -4.27929,-1.5039 -2.15934,-0.39211 -2.16235,-0.39133 -2.08793,0.54279 0.16447,2.0642 0.67383,2.94694 1.78191,3.08813 0.58204,0.0742 1.14461,0.25321 1.25014,0.39787 0.10553,0.14467 -0.1387,0.21132 -0.54273,0.14812 -0.40402,-0.0632 -0.84627,0.0154 -0.98276,0.17456 -0.30661,0.35764 0.56883,1.62066 0.99808,1.43998 0.32894,-0.13846 0.6965,0.98715 0.39433,1.20758 -0.0971,0.0708 -0.44402,-0.0732 -0.77098,-0.31996 -0.61214,-0.46203 -1.75208,-0.26092 -2.41242,0.42561 -0.96847,1.00685 0.83058,5.21751 2.79687,6.54609 0.72102,0.48718 1.77722,1.30743 2.34711,1.82278 1.11125,1.00491 4.23047,1.75594 5.1251,1.234 z m 3.79339,-5.40888 c 0.007,-0.29346 0.05,-0.6483 0.0951,-0.78852 0.0452,-0.14022 -0.14531,-0.29053 -0.42333,-0.33402 -0.27802,-0.0435 -0.59708,-0.31497 -0.70903,-0.60329 -0.28459,-0.73296 -2.28338,-2.3613 -3.04711,-2.48237 -0.34904,-0.0553 -0.8331,-0.37266 -1.07567,-0.70519 -0.54716,-0.75007 -0.5573,-0.75206 1.63224,0.31986 0.9908,0.48507 1.91298,0.87375 2.04929,0.86375 0.1363,-0.01 0.71183,0.59873 1.27896,1.35272 0.56712,0.75399 1.17161,1.28699 1.34331,1.18445 0.1717,-0.10255 0.10556,0.0223 -0.14698,0.27733 -0.25253,0.25508 -0.58305,0.68542 -0.73449,0.95631 -0.24473,0.43781 -0.27388,0.43325 -0.26234,-0.041 z m -47.69532,-12.1462 c 1.00976,-0.25901 1.85744,-0.60846 1.88373,-0.77655 0.0263,-0.1681 0.2902,-0.26771 0.58646,-0.22137 0.61945,0.0969 2.48757,-1.16906 2.57797,-1.747 0.0335,-0.21386 -0.23266,-0.34288 -0.59315,-0.2876 -0.3596,0.0551 -1.59135,-0.0313 -2.73723,-0.19207 -2.28868,-0.32114 -5.79157,0.39888 -6.30737,1.29649 -0.93093,1.62001 1.6173,2.69053 4.58959,1.9281 z"
         style="fill:#5d5d5d;fill-opacity:1;stroke-width:1"
         sodipodi:nodetypes="cscccccccccccccccccccccccccccccccccsccccccccscccccscccccscccccccccccscccccccscccccsccccccccccccscccccccccccccccccccccccccsccccccccccccccccccscccccccccccscccccsccccsccccsccccscccccccccccccccssccccccccccccccccsccccccccccccccccccccccccccccccccscccccccscccccccccccccccccccccccccccccssccccccsccccccccccccccccccccccscccccccccccccccccccccccccccccccccccccccccccccsccccccccccccccccccccccccccscccccccccccccccscccccccscccccccccccsccccccsccscsssccccccccscccccscccccccccccccscccccccsccccccccccccccccccccccscccsccccccsccccccccscccccccscscccccccssccccccccccscccccccccssccccscccccccscccscccscccccccccccccccccccccccccccccccccscccccccccccccccccccccsccssccccccsccccccscccccccscccsccccccccccsccccccsccccccccccccccccccccccccccccccccccccccccccccccccccccccccccccscccccccccccccccsccccscccsccccccccccccccccccccscccccccccccccccccccccccccccccccccccccccccccccccccccccccc" />
    </g>
  </g>
</svg>
