<?xml version="1.0" encoding="UTF-8" standalone="no"?>
<svg
   xmlns:dc="http://purl.org/dc/elements/1.1/"
   xmlns:cc="http://creativecommons.org/ns#"
   xmlns:rdf="http://www.w3.org/1999/02/22-rdf-syntax-ns#"
   xmlns:svg="http://www.w3.org/2000/svg"
   xmlns="http://www.w3.org/2000/svg"
   viewBox="0 0 486.18002 116.4776"
   height="116.4776"
   width="486.18002"
   xml:space="preserve"
   id="svg2"
   version="1.1"><metadata
     id="metadata8"><rdf:RDF><cc:Work
         rdf:about=""><dc:format>image/svg+xml</dc:format><dc:type
           rdf:resource="http://purl.org/dc/dcmitype/StillImage" /><dc:title></dc:title></cc:Work></rdf:RDF></metadata><defs
     id="defs6" /><g
     transform="matrix(1.3333333,0,0,1.3333333,0,2.91194e-6)"
     id="g10"><g
       id="g12"><g
         id="g14"><path
           id="path16"
           style="fill:none;stroke:#ffffff;stroke-width:0.19339;stroke-linecap:round;stroke-linejoin:round;stroke-miterlimit:4;stroke-dasharray:none;stroke-opacity:1"
           d="M 0.098,0.098 H 364.539 V 87.262 H 0.098 Z" /></g><path
         id="path18"
         style="fill:#44525c;fill-opacity:1;fill-rule:evenodd;stroke:none"
         d="m 163.707,57.289 -0.637,-0.637 43.321,-43.32 0.64,0.637 z" /><path
         id="path20"
         style="fill:#44525c;fill-opacity:1;fill-rule:nonzero;stroke:none"
         d="m 202.426,13.754 5.711,-1.531 -0.766,2.855 -0.762,2.86 z" /><path
         id="path22"
         style="fill:#44525c;fill-opacity:1;fill-rule:evenodd;stroke:none"
         d="m 176.918,52.164 h 0.902 v 5.125 h -0.902 z" /><path
         id="path24"
         style="fill:#44525c;fill-opacity:1;fill-rule:evenodd;stroke:none"
         d="m 163.336,56.387 -0.266,0.265 v 0.637 h 14.75 v -0.902 z" /><path
         id="path26"
         style="fill:#44525c;fill-opacity:1;fill-rule:evenodd;stroke:none"
         d="m 190.172,36.215 h 51.383 v 1 h -51.383 z" /><path
         id="path28"
         style="fill:#44525c;fill-opacity:1;fill-rule:nonzero;stroke:none"
         d="m 238.117,33.438 2.84,1.636 2.836,1.641 -2.836,1.637 -2.84,1.64 z" /><path
         id="path30"
         style="fill:#44525c;fill-opacity:1;fill-rule:evenodd;stroke:none"
         d="m 75.566,57.289 -0.636,-0.637 43.32,-43.32 0.637,0.637 z" /><path
         id="path32"
         style="fill:#44525c;fill-opacity:1;fill-rule:nonzero;stroke:none"
         d="m 114.281,13.754 2.86,-0.766 2.855,-0.765 -0.766,2.855 -0.765,2.86 -2.09,-2.094 z" /><path
         id="path34"
         style="fill:#44525c;fill-opacity:1;fill-rule:evenodd;stroke:none"
         d="m 88.777,52.164 h 0.902 v 5.125 h -0.902 z" /><path
         id="path36"
         style="fill:#44525c;fill-opacity:1;fill-rule:evenodd;stroke:none"
         d="m 75.191,56.387 -0.261,0.265 v 0.637 h 14.75 v -0.902 z" /><text
         id="text40"
         style="font-variant:normal;font-weight:normal;font-size:7.5px;font-family:'DejaVu Sans';-inkscape-font-specification:DejaVuSans;writing-mode:lr-tb;fill:#000000;fill-opacity:1;fill-rule:nonzero;stroke:none"
         transform="translate(37.99496,27.620047)"><tspan
           id="tspan38"
           y="0"
           x="0 3.3299999 7.9200001 10.875 15.63 20.2425">Target</tspan></text>
<path
         id="path42"
         style="fill:#44525c;fill-opacity:1;fill-rule:evenodd;stroke:none"
         d="m 97.43,57.281 h 1 v 14.844 h -1 z" /><path
         id="path44"
         style="fill:#44525c;fill-opacity:1;fill-rule:nonzero;stroke:none"
         d="m 94.652,60.312 1.637,-2.839 1.641,-2.836 1.636,2.836 1.641,2.839 z" /><path
         id="path46"
         style="fill:#44525c;fill-opacity:1;fill-rule:evenodd;stroke:none"
         d="m 97.562,71.125 h 226.555 v 1 H 97.562 Z" /><path
         id="path48"
         style="fill:#44525c;fill-opacity:1;fill-rule:evenodd;stroke:none"
         d="m 323.125,36.82 h 1 v 35.297 h -1 z" /><text
         id="text54"
         style="font-variant:normal;font-weight:normal;font-size:7.5px;font-family:'DejaVu Sans';-inkscape-font-specification:DejaVuSans;writing-mode:lr-tb;fill:#000000;fill-opacity:1;fill-rule:nonzero;stroke:none"
         transform="translate(322.38697,27.712332)"><tspan
           id="tspan50"
           y="0"
           x="0 5.9025002 10.65 13.59 18.344999 23.092501">Output</tspan><tspan
           id="tspan52"
           y="54.706783"
           x="-225.51212 -221.61212 -216.99962 -212.38712 -207.63211 -202.87712 -198.28711 -194.16962">Feedback</tspan></text>
<path
         id="path56"
         style="fill:#44525c;fill-opacity:1;fill-rule:evenodd;stroke:none"
         d="m 102.207,36.215 h 51.383 v 1 h -51.383 z" /><path
         id="path58"
         style="fill:#44525c;fill-opacity:1;fill-rule:nonzero;stroke:none"
         d="m 150.152,33.438 2.84,1.636 2.836,1.641 -2.836,1.637 -2.84,1.64 z" /><g
         id="g60"><path
           id="path62"
           style="fill:#f1f0e9;fill-opacity:1;fill-rule:nonzero;stroke:#44525c;stroke-width:0.51166499;stroke-linecap:round;stroke-linejoin:round;stroke-miterlimit:4;stroke-dasharray:none;stroke-opacity:1"
           d="m 68.121,19.941 h 59.613 V 53.484 H 68.121 Z" /></g><text
         id="text66"
         style="font-style:oblique;font-variant:normal;font-weight:bold;font-size:7.5px;font-family:'DejaVu Sans';-inkscape-font-specification:DejaVuSans-BoldOblique;writing-mode:lr-tb;fill:#000000;fill-opacity:1;fill-rule:nonzero;stroke:none"
         transform="translate(76.397021,32.669657)"><tspan
           id="tspan64"
           y="0"
           x="0 5.4974999 10.65 15.9825 19.567499 23.264999 28.4175 30.9825 33.547501 38.6325">Controller</tspan></text>
<text
         id="text70"
         style="font-variant:normal;font-weight:normal;font-size:7.5px;font-family:'DejaVu Sans';-inkscape-font-specification:DejaVuSans;writing-mode:lr-tb;fill:#000000;fill-opacity:1;fill-rule:nonzero;stroke:none"
         transform="translate(84.819874,44.78077)"><tspan
           id="tspan68"
           y="0"
           x="0 2.925 8.0699997 11.1525 15.7425 17.82 22.567499">(Brain)</tspan></text>
<g
         id="g72"><path
           id="path74"
           style="fill:#f1f0e9;fill-opacity:1;fill-rule:nonzero;stroke:#44525c;stroke-width:0.51166499;stroke-linecap:round;stroke-linejoin:round;stroke-miterlimit:4;stroke-dasharray:none;stroke-opacity:1"
           d="m 156.086,19.941 h 59.613 v 33.543 h -59.613 z" /></g><text
         id="text78"
         style="font-style:oblique;font-variant:normal;font-weight:bold;font-size:7.5px;font-family:'DejaVu Sans';-inkscape-font-specification:DejaVuSans-BoldOblique;writing-mode:lr-tb;fill:#000000;fill-opacity:1;fill-rule:nonzero;stroke:none"
         transform="translate(166.36285,33.669655)"><tspan
           id="tspan76"
           y="0"
           x="0 2.79 8.1225004 11.7075 16.7925 20.49 23.752501 28.807501 33.247501">Interface</tspan></text>
<text
         id="text82"
         style="font-variant:normal;font-weight:normal;font-size:7.5px;font-family:'DejaVu Sans';-inkscape-font-specification:DejaVuSans;writing-mode:lr-tb;fill:#000000;fill-opacity:1;fill-rule:nonzero;stroke:none"
         transform="translate(166.83526,44.780763)"><tspan
           id="tspan80"
           y="0"
           x="0 2.925 8.6999998 13.3125 17.43 22.012501 26.7675 31.379999 34.462502">(Decoder)</tspan></text>
<g
         id="g84"><path
           id="path86"
           style="fill:#f1f0e9;fill-opacity:1;fill-rule:nonzero;stroke:#44525c;stroke-width:0.570871;stroke-linecap:round;stroke-linejoin:round;stroke-miterlimit:4;stroke-dasharray:none;stroke-opacity:1"
           d="m 244.078,19.973 h 74.344 v 33.48 h -74.344 z" /></g><text
         id="text90"
         style="font-style:oblique;font-variant:normal;font-weight:bold;font-size:7.5px;font-family:'DejaVu Sans';-inkscape-font-specification:DejaVuSans-BoldOblique;writing-mode:lr-tb;fill:#000000;fill-opacity:1;fill-rule:nonzero;stroke:none"
         transform="translate(270.22324,33.364981)"><tspan
           id="tspan88"
           y="0"
           x="0 5.4899998 8.0550003 13.11 18.442499">Plant</tspan></text>
<text
         id="text94"
         style="font-variant:normal;font-weight:normal;font-size:7.5px;font-family:'DejaVu Sans';-inkscape-font-specification:DejaVuSans;writing-mode:lr-tb;fill:#000000;fill-opacity:1;fill-rule:nonzero;stroke:none"
         transform="translate(251.41831,44.476088)"><tspan
           id="tspan92"
           y="0"
           x="0 2.925 7.5374999 9.915 14.67 17.047501 19.424999 24.66 29.2425 36.547501 41.302502 46.049999 48.990002 53.602501 56.685001">(e.g. Computer)</tspan></text>
<path
         id="path96"
         style="fill:#44525c;fill-opacity:1;fill-rule:nonzero;stroke:none"
         d="m 345.582,33.438 2.84,1.636 2.84,1.641 -2.84,1.637 -2.84,1.64 z" /><path
         id="path98"
         style="fill:#44525c;fill-opacity:1;fill-rule:evenodd;stroke:none"
         d="m 318.145,36.215 h 29.152 v 1 h -29.152 z" /><path
         id="path100"
         style="fill:#44525c;fill-opacity:1;fill-rule:nonzero;stroke:none"
         d="m 62.188,33.438 2.839,1.636 2.836,1.641 -2.836,1.637 -2.839,1.64 z" /><path
         id="path102"
         style="fill:#44525c;fill-opacity:1;fill-rule:evenodd;stroke:none"
         d="m 37.973,36.215 h 27.652 v 1 H 37.973 Z" /></g></g></svg>