<?xml version="1.0" encoding="UTF-8" standalone="no"?>
<svg
   xmlns:dc="http://purl.org/dc/elements/1.1/"
   xmlns:cc="http://creativecommons.org/ns#"
   xmlns:rdf="http://www.w3.org/1999/02/22-rdf-syntax-ns#"
   xmlns:svg="http://www.w3.org/2000/svg"
   xmlns="http://www.w3.org/2000/svg"
   viewBox="0 0 486.66666 141.33333"
   height="141.33333"
   width="486.66666"
   xml:space="preserve"
   id="svg2"
   version="1.1"><metadata
     id="metadata8"><rdf:RDF><cc:Work
         rdf:about=""><dc:format>image/svg+xml</dc:format><dc:type
           rdf:resource="http://purl.org/dc/dcmitype/StillImage" /><dc:title></dc:title></cc:Work></rdf:RDF></metadata><defs
     id="defs6" /><g
     transform="matrix(1.3333333,0,0,-1.3333333,0,141.33333)"
     id="g10"><g
       transform="scale(0.1)"
       id="g12"><path
         id="path14"
         style="fill:#44525c;fill-opacity:1;fill-rule:evenodd;stroke:none"
         d="m 2411.17,471.602 -28.2,-18.672 v 36.91 z" /><path
         id="path16"
         style="fill:none;stroke:#44525c;stroke-width:8.60958958;stroke-linecap:butt;stroke-linejoin:miter;stroke-miterlimit:4;stroke-dasharray:none;stroke-opacity:1"
         d="m 2345.62,471.371 h 53.72" /><path
         id="path18"
         style="fill:#44525c;fill-opacity:1;fill-rule:evenodd;stroke:none"
         d="M 914.219,471.602 886.02,452.93 v 36.91 z" /><path
         id="path20"
         style="fill:none;stroke:#44525c;stroke-width:8.60958958;stroke-linecap:butt;stroke-linejoin:miter;stroke-miterlimit:4;stroke-dasharray:none;stroke-opacity:1"
         d="m 848.672,471.371 h 53.707" /><path
         id="path22"
         style="fill:#44525c;fill-opacity:1;fill-rule:evenodd;stroke:none"
         d="M 529.961,471.602 501.719,452.93 v 36.91 z" /><path
         id="path24"
         style="fill:none;stroke:#44525c;stroke-width:8.60958958;stroke-linecap:butt;stroke-linejoin:miter;stroke-miterlimit:4;stroke-dasharray:none;stroke-opacity:1"
         d="m 464.379,471.371 h 53.742" /><path
         id="path26"
         style="fill:#44525c;fill-opacity:1;fill-rule:evenodd;stroke:none"
         d="m 2913.71,395.078 -28.2,18.711 V 376.84 Z" /><path
         id="path28"
         style="fill:none;stroke:#44525c;stroke-width:6.77250004;stroke-linecap:square;stroke-linejoin:round;stroke-miterlimit:4;stroke-dasharray:none;stroke-opacity:1"
         d="m 2853.44,471.371 c 8.2,0 14.8,-14.18 14.8,-31.84 v -12.152 c 0,-17.609 6.6,-31.828 14.77,-31.828" /><path
         id="path30"
         style="fill:none;stroke:#44525c;stroke-width:6.77250004;stroke-linecap:square;stroke-linejoin:round;stroke-miterlimit:4;stroke-dasharray:none;stroke-opacity:1"
         d="m 2853.44,471.41 c 8.2,0 14.8,14.18 14.8,31.828 v 12.114 c 0,17.66 6.6,31.878 14.77,31.878" /><path
         id="path32"
         style="fill:#44525c;fill-opacity:1;fill-rule:evenodd;stroke:none"
         d="m 2913.71,547.66 -28.2,-18.68 v 36.961 z" /><path
         id="path34"
         style="fill:none;stroke:#44525c;stroke-width:7.42500019;stroke-linecap:butt;stroke-linejoin:miter;stroke-miterlimit:4;stroke-dasharray:none;stroke-opacity:1"
         d="m 2801.25,471.371 h 53.71" /><path
         id="path36"
         style="fill:#44525c;fill-opacity:1;fill-rule:evenodd;stroke:none"
         d="m 1415.98,395.078 -28.25,18.711 V 376.84 Z" /><path
         id="path38"
         style="fill:none;stroke:#44525c;stroke-width:6.77250004;stroke-linecap:square;stroke-linejoin:round;stroke-miterlimit:4;stroke-dasharray:none;stroke-opacity:1"
         d="m 1355.7,471.371 c 8.21,0 14.81,-14.18 14.81,-31.84 v -12.152 c 0,-17.609 6.56,-31.828 14.76,-31.828" /><path
         id="path40"
         style="fill:none;stroke:#44525c;stroke-width:6.77250004;stroke-linecap:square;stroke-linejoin:round;stroke-miterlimit:4;stroke-dasharray:none;stroke-opacity:1"
         d="m 1355.7,471.41 c 8.21,0 14.81,14.18 14.81,31.828 v 12.114 c 0,17.66 6.56,31.878 14.76,31.878" /><path
         id="path42"
         style="fill:#44525c;fill-opacity:1;fill-rule:evenodd;stroke:none"
         d="m 1415.98,547.66 -28.25,-18.68 v 36.961 z" /><path
         id="path44"
         style="fill:none;stroke:#44525c;stroke-width:7.42500019;stroke-linecap:butt;stroke-linejoin:miter;stroke-miterlimit:4;stroke-dasharray:none;stroke-opacity:1"
         d="m 1303.52,471.371 h 53.71" /><path
         id="path46"
         style="fill:none;stroke:#44525c;stroke-width:19.79999924;stroke-linecap:butt;stroke-linejoin:miter;stroke-miterlimit:4;stroke-dasharray:none;stroke-opacity:1"
         d="m 2284.1,338.551 v -151.36 c 0,-45.941 31.76,-83.171 70.98,-83.171 h 752.46 c 39.22,0 70.98,37.23 70.98,83.171 v 7.071" /><path
         id="path48"
         style="fill:none;stroke:#ffffff;stroke-width:1.97678006;stroke-linecap:round;stroke-linejoin:round;stroke-miterlimit:4;stroke-dasharray:none;stroke-opacity:1"
         d="M 0.980469,1.39844 H 3645.2805 V 1059.0184 H 0.980469 Z" /><path
         id="path50"
         style="fill:#44525c;fill-opacity:1;fill-rule:nonzero;stroke:none"
         d="m 228.051,866.289 c 3.75,0 3.937,0.191 3.937,3.789 v 8.363 c 0,3.59 -0.187,3.789 -3.937,3.789 h -62.66 c -21.289,0 -48.871,-10.242 -65.7816,-38.71 v -1.879 c 0,-3.629 0,-3.629 3.3596,-3.629 2.691,0 2.929,0 3.32,0.578 3.359,4.18 10.66,13.64 24.223,19.93 7.726,3.589 19.218,7.769 34.879,7.769 z" /><path
         id="path52"
         style="fill:#44525c;fill-opacity:1;fill-rule:nonzero;stroke:none"
         d="m 233.121,882.23 c -3.742,0 -3.941,-0.199 -3.941,-3.789 v -8.363 c 0,-3.598 0.199,-3.789 3.941,-3.789 h 38.867 c 3.75,0 3.75,0.191 3.75,3.789 v 8.363 c 0,3.59 0,3.789 -3.75,3.789 z" /><path
         id="path54"
         style="fill:#44525c;fill-opacity:1;fill-rule:nonzero;stroke:none"
         d="m 276.879,882.23 c -3.789,0 -3.988,-0.199 -3.988,-3.789 v -8.363 c 0,-3.598 0.199,-3.789 3.988,-3.789 h 38.82 c 3.75,0 3.75,0.191 3.75,3.789 v 8.363 c 0,3.59 0,3.789 -3.75,3.789 z" /><path
         id="path56"
         style="fill:#44525c;fill-opacity:1;fill-rule:nonzero;stroke:none"
         d="m 320.59,882.23 c -3.75,0 -3.949,-0.199 -3.949,-3.789 v -8.363 c 0,-3.598 0.199,-3.789 3.949,-3.789 h 38.859 c 3.75,0 3.75,0.191 3.75,3.789 v 8.363 c 0,3.59 0,3.789 -3.75,3.789 z" /><path
         id="path58"
         style="fill:#44525c;fill-opacity:1;fill-rule:nonzero;stroke:none"
         d="m 364.34,882.23 c -3.75,0 -3.949,-0.199 -3.949,-3.789 v -8.363 c 0,-3.598 0.199,-3.789 3.949,-3.789 h 38.82 c 3.789,0 3.789,0.191 3.789,3.789 v 8.363 c 0,3.59 0,3.789 -3.789,3.789 z" /><path
         id="path60"
         style="fill:#44525c;fill-opacity:1;fill-rule:nonzero;stroke:none"
         d="m 408.09,882.23 c -3.75,0 -3.988,-0.199 -3.988,-3.789 v -8.363 c 0,-3.598 0.238,-3.789 3.988,-3.789 h 38.82 c 3.75,0 3.75,0.191 3.75,3.789 v 8.363 c 0,3.59 0,3.789 -3.75,3.789 z" /><path
         id="path62"
         style="fill:#44525c;fill-opacity:1;fill-rule:nonzero;stroke:none"
         d="m 454.801,882.23 c -26.949,0 -28.473,-0.199 -28.473,-3.789 v -8.363 c 0,-3.598 1.524,-3.789 28.473,-3.789 H 733.32 c 26.95,0 26.95,0.191 26.95,3.789 v 8.363 c 0,3.59 0,3.789 -26.95,3.789 z" /><path
         id="path64"
         style="fill:#44525c;fill-opacity:1;fill-rule:nonzero;stroke:none"
         d="m 757.969,882.23 c -3.75,0 -3.989,-0.199 -3.989,-3.789 v -8.363 c 0,-3.598 0.239,-3.789 3.989,-3.789 h 38.832 c 3.75,0 3.75,0.191 3.75,3.789 v 8.363 c 0,3.59 0,3.789 -3.75,3.789 z" /><path
         id="path66"
         style="fill:#44525c;fill-opacity:1;fill-rule:nonzero;stroke:none"
         d="m 801.68,882.23 c -3.75,0 -3.95,-0.199 -3.95,-3.789 v -8.363 c 0,-3.598 0.2,-3.789 3.95,-3.789 h 38.832 c 3.789,0 3.789,0.191 3.789,3.789 v 8.363 c 0,3.59 0,3.789 -3.789,3.789 z" /><path
         id="path68"
         style="fill:#44525c;fill-opacity:1;fill-rule:nonzero;stroke:none"
         d="m 845.43,882.23 c -3.75,0 -3.981,-0.199 -3.981,-3.789 v -8.363 c 0,-3.598 0.231,-3.789 3.981,-3.789 h 38.832 c 3.75,0 3.75,0.191 3.75,3.789 v 8.363 c 0,3.59 0,3.789 -3.75,3.789 z" /><path
         id="path70"
         style="fill:#44525c;fill-opacity:1;fill-rule:nonzero;stroke:none"
         d="m 889.18,882.23 c -3.789,0 -3.981,-0.199 -3.981,-3.789 v -8.363 c 0,-3.598 0.192,-3.789 3.981,-3.789 h 38.832 c 3.75,0 3.75,0.191 3.75,3.789 v 8.363 c 0,3.59 0,3.789 -3.75,3.789 z" /><path
         id="path72"
         style="fill:#44525c;fill-opacity:1;fill-rule:nonzero;stroke:none"
         d="m 932.891,882.23 c -3.75,0 -3.942,-0.199 -3.942,-3.789 v -8.363 c 0,-3.598 0.192,-3.789 3.942,-3.789 h 38.871 c 3.75,0 3.75,0.191 3.75,3.789 v 8.363 c 0,3.59 0,3.789 -3.75,3.789 z" /><path
         id="path74"
         style="fill:#44525c;fill-opacity:1;fill-rule:nonzero;stroke:none"
         d="m 976.641,882.23 c -3.75,0 -3.981,-0.199 -3.981,-3.789 v -8.363 c 0,-3.598 0.231,-3.789 3.981,-3.789 h 38.829 c 3.75,0 3.75,0.191 3.75,3.789 v 8.363 c 0,3.59 0,3.789 -3.75,3.789 z" /><path
         id="path76"
         style="fill:#44525c;fill-opacity:1;fill-rule:nonzero;stroke:none"
         d="m 1083.01,866.289 c 12.73,0 40.08,-3.238 58.24,-26.559 1.29,-1.718 1.48,-1.718 4.18,-1.718 3.36,0 3.55,0 3.55,3.629 v 1.879 c -16.91,28.628 -44.45,38.71 -65.97,38.71 h -62.66 c -3.75,0 -3.94,-0.199 -3.94,-3.789 v -8.363 c 0,-3.598 0.19,-3.789 3.94,-3.789 z" /><g
         transform="scale(10)"
         id="g78"><text
           id="text82"
           style="font-variant:normal;font-weight:normal;font-size:7px;font-family:'DejaVu Sans';-inkscape-font-specification:DejaVuSans;writing-mode:lr-tb;fill:#000000;fill-opacity:1;fill-rule:nonzero;stroke:none"
           transform="matrix(1,0,0,-1,25.2004,91.5543)"><tspan
             id="tspan80"
             y="0"
             x="0 5.3899999 9.6949997 13.545 17.829 22.274 26.579 29.455999 31.681999 33.747002 38.185001 40.131001 42.875 44.820999 49.112 51.057999 53.004002 56.679001 60.970001 63.714001 65.660004 69.944 106.89707 111.34207 115.78007 120.06407 122.94107 125.68507 127.56822 130.65527 134.96028 137.7113 144.5293 146.75529 151.6413 155.92531 162.7433 167.18831 171.4933 175.9313 179.57831 183.86931 186.6133 188.5593 192.84331">Decoder InitializationShort-Term Compensation</tspan></text>
</g><path
         id="path84"
         style="fill:#44525c;fill-opacity:1;fill-rule:nonzero;stroke:none"
         d="m 1375.78,866.289 c 3.75,0 3.99,0.191 3.99,3.789 v 8.363 c 0,3.59 -0.24,3.789 -3.99,3.789 h -62.62 c -21.32,0 -48.86,-10.242 -65.78,-38.71 v -1.879 c 0,-3.629 0,-3.629 3.32,-3.629 2.74,0 2.93,0 3.36,0.578 3.32,4.18 10.67,13.64 24.22,19.93 7.74,3.589 19.22,7.769 34.88,7.769 z" /><path
         id="path86"
         style="fill:#44525c;fill-opacity:1;fill-rule:nonzero;stroke:none"
         d="m 1380.9,882.23 c -3.75,0 -3.99,-0.199 -3.99,-3.789 v -8.363 c 0,-3.598 0.24,-3.789 3.99,-3.789 h 38.83 c 3.75,0 3.75,0.191 3.75,3.789 v 8.363 c 0,3.59 0,3.789 -3.75,3.789 z" /><path
         id="path88"
         style="fill:#44525c;fill-opacity:1;fill-rule:nonzero;stroke:none"
         d="m 1424.61,882.23 c -3.75,0 -3.95,-0.199 -3.95,-3.789 v -8.363 c 0,-3.598 0.2,-3.789 3.95,-3.789 h 38.83 c 3.79,0 3.79,0.191 3.79,3.789 v 8.363 c 0,3.59 0,3.789 -3.79,3.789 z" /><path
         id="path90"
         style="fill:#44525c;fill-opacity:1;fill-rule:nonzero;stroke:none"
         d="m 1468.36,882.23 c -3.75,0 -3.98,-0.199 -3.98,-3.789 v -8.363 c 0,-3.598 0.23,-3.789 3.98,-3.789 h 38.83 c 3.75,0 3.75,0.191 3.75,3.789 v 8.363 c 0,3.59 0,3.789 -3.75,3.789 z" /><path
         id="path92"
         style="fill:#44525c;fill-opacity:1;fill-rule:nonzero;stroke:none"
         d="m 1512.11,882.23 c -3.79,0 -3.99,-0.199 -3.99,-3.789 v -8.363 c 0,-3.598 0.2,-3.789 3.99,-3.789 h 38.83 c 3.75,0 3.75,0.191 3.75,3.789 v 8.363 c 0,3.59 0,3.789 -3.75,3.789 z" /><path
         id="path94"
         style="fill:#44525c;fill-opacity:1;fill-rule:nonzero;stroke:none"
         d="m 1555.82,882.23 c -3.75,0 -3.94,-0.199 -3.94,-3.789 v -8.363 c 0,-3.598 0.19,-3.789 3.94,-3.789 h 38.87 c 3.75,0 3.75,0.191 3.75,3.789 v 8.363 c 0,3.59 0,3.789 -3.75,3.789 z" /><path
         id="path96"
         style="fill:#44525c;fill-opacity:1;fill-rule:nonzero;stroke:none"
         d="m 1602.54,882.23 c -26.95,0 -28.44,-0.199 -28.44,-3.789 v -8.363 c 0,-3.598 1.49,-3.789 28.44,-3.789 h 278.51 c 26.96,0 26.96,0.191 26.96,3.789 v 8.363 c 0,3.59 0,3.789 -26.96,3.789 z" /><path
         id="path98"
         style="fill:#44525c;fill-opacity:1;fill-rule:nonzero;stroke:none"
         d="m 1905.7,882.23 c -3.75,0 -3.94,-0.199 -3.94,-3.789 v -8.363 c 0,-3.598 0.19,-3.789 3.94,-3.789 h 38.87 c 3.75,0 3.75,0.191 3.75,3.789 v 8.363 c 0,3.59 0,3.789 -3.75,3.789 z" /><path
         id="path100"
         style="fill:#44525c;fill-opacity:1;fill-rule:nonzero;stroke:none"
         d="m 1949.45,882.23 c -3.75,0 -3.98,-0.199 -3.98,-3.789 v -8.363 c 0,-3.598 0.23,-3.789 3.98,-3.789 h 38.83 c 3.75,0 3.75,0.191 3.75,3.789 v 8.363 c 0,3.59 0,3.789 -3.75,3.789 z" /><path
         id="path102"
         style="fill:#44525c;fill-opacity:1;fill-rule:nonzero;stroke:none"
         d="m 1993.16,882.23 c -3.75,0 -3.94,-0.199 -3.94,-3.789 v -8.363 c 0,-3.598 0.19,-3.789 3.94,-3.789 h 38.87 c 3.75,0 3.75,0.191 3.75,3.789 v 8.363 c 0,3.59 0,3.789 -3.75,3.789 z" /><path
         id="path104"
         style="fill:#44525c;fill-opacity:1;fill-rule:nonzero;stroke:none"
         d="m 2036.91,882.23 c -3.75,0 -3.94,-0.199 -3.94,-3.789 v -8.363 c 0,-3.598 0.19,-3.789 3.94,-3.789 h 38.83 c 3.79,0 3.79,0.191 3.79,3.789 v 8.363 c 0,3.59 0,3.789 -3.79,3.789 z" /><path
         id="path106"
         style="fill:#44525c;fill-opacity:1;fill-rule:nonzero;stroke:none"
         d="m 2080.66,882.23 c -3.75,0 -3.98,-0.199 -3.98,-3.789 v -8.363 c 0,-3.598 0.23,-3.789 3.98,-3.789 h 38.83 c 3.75,0 3.75,0.191 3.75,3.789 v 8.363 c 0,3.59 0,3.789 -3.75,3.789 z" /><path
         id="path108"
         style="fill:#44525c;fill-opacity:1;fill-rule:nonzero;stroke:none"
         d="m 2124.38,882.23 c -3.76,0 -3.95,-0.199 -3.95,-3.789 v -8.363 c 0,-3.598 0.19,-3.789 3.95,-3.789 h 38.82 c 3.79,0 3.79,0.191 3.79,3.789 v 8.363 c 0,3.59 0,3.789 -3.79,3.789 z" /><path
         id="path110"
         style="fill:#44525c;fill-opacity:1;fill-rule:nonzero;stroke:none"
         d="m 2230.78,866.289 c 12.74,0 40.08,-3.238 58.24,-26.559 1.25,-1.718 1.45,-1.718 4.18,-1.718 3.32,0 3.56,0 3.56,3.629 v 1.879 c -16.92,28.628 -44.49,38.71 -65.98,38.71 h -62.66 c -3.74,0 -3.98,-0.199 -3.98,-3.789 v -8.363 c 0,-3.598 0.24,-3.789 3.98,-3.789 z" /><g
         transform="scale(10)"
         id="g112"><text
           id="text116"
           style="font-variant:normal;font-weight:normal;font-size:7px;font-family:'DejaVu Sans';-inkscape-font-specification:DejaVuSans;writing-mode:lr-tb;fill:#000000;fill-opacity:1;fill-rule:nonzero;stroke:none"
           transform="matrix(1,0,0,-1,256.999,91.5543)"><tspan
             id="tspan114"
             y="0"
             x="0 3.7729259 8.0569258 12.494925 16.939926 18.830011 21.917068 26.222069 28.973091 35.791092 38.01709 42.238091 44.18409 48.47509 52.122089 54.866093 56.812092 60.66209 62.608089 65.352089">Long-Term Plasticity</tspan></text>
</g><path
         id="path118"
         style="fill:#44525c;fill-opacity:1;fill-rule:nonzero;stroke:none"
         d="m 2523.55,866.289 c 3.75,0 3.95,0.191 3.95,3.789 v 8.363 c 0,3.59 -0.2,3.789 -3.95,3.789 h -62.65 c -21.29,0 -48.87,-10.242 -65.78,-38.71 v -1.879 c 0,-3.629 0,-3.629 3.36,-3.629 2.69,0 2.93,0 3.32,0.578 3.36,4.18 10.66,13.64 24.22,19.93 7.73,3.589 19.21,7.769 34.88,7.769 z" /><path
         id="path120"
         style="fill:#44525c;fill-opacity:1;fill-rule:nonzero;stroke:none"
         d="m 2528.63,882.23 c -3.75,0 -3.94,-0.199 -3.94,-3.789 v -8.363 c 0,-3.598 0.19,-3.789 3.94,-3.789 h 38.87 c 3.75,0 3.75,0.191 3.75,3.789 v 8.363 c 0,3.59 0,3.789 -3.75,3.789 z" /><path
         id="path122"
         style="fill:#44525c;fill-opacity:1;fill-rule:nonzero;stroke:none"
         d="m 2572.38,882.23 c -3.79,0 -3.98,-0.199 -3.98,-3.789 v -8.363 c 0,-3.598 0.19,-3.789 3.98,-3.789 h 38.83 c 3.75,0 3.75,0.191 3.75,3.789 v 8.363 c 0,3.59 0,3.789 -3.75,3.789 z" /><path
         id="path124"
         style="fill:#44525c;fill-opacity:1;fill-rule:nonzero;stroke:none"
         d="m 2616.09,882.23 c -3.75,0 -3.94,-0.199 -3.94,-3.789 v -8.363 c 0,-3.598 0.19,-3.789 3.94,-3.789 h 38.87 c 3.75,0 3.75,0.191 3.75,3.789 v 8.363 c 0,3.59 0,3.789 -3.75,3.789 z" /><path
         id="path126"
         style="fill:#44525c;fill-opacity:1;fill-rule:nonzero;stroke:none"
         d="m 2659.84,882.23 c -3.75,0 -3.94,-0.199 -3.94,-3.789 v -8.363 c 0,-3.598 0.19,-3.789 3.94,-3.789 h 38.83 c 3.79,0 3.79,0.191 3.79,3.789 v 8.363 c 0,3.59 0,3.789 -3.79,3.789 z" /><path
         id="path128"
         style="fill:#44525c;fill-opacity:1;fill-rule:nonzero;stroke:none"
         d="m 2703.59,882.23 c -3.75,0 -3.98,-0.199 -3.98,-3.789 v -8.363 c 0,-3.598 0.23,-3.789 3.98,-3.789 h 38.83 c 3.75,0 3.75,0.191 3.75,3.789 v 8.363 c 0,3.59 0,3.789 -3.75,3.789 z" /><path
         id="path130"
         style="fill:#44525c;fill-opacity:1;fill-rule:nonzero;stroke:none"
         d="m 2750.31,882.23 c -26.95,0 -28.43,-0.199 -28.43,-3.789 v -8.363 c 0,-3.598 1.48,-3.789 28.43,-3.789 h 278.52 c 26.95,0 26.95,0.191 26.95,3.789 v 8.363 c 0,3.59 0,3.789 -26.95,3.789 z" /><path
         id="path132"
         style="fill:#44525c;fill-opacity:1;fill-rule:nonzero;stroke:none"
         d="m 3053.48,882.23 c -3.75,0 -3.99,-0.199 -3.99,-3.789 v -8.363 c 0,-3.598 0.24,-3.789 3.99,-3.789 h 38.82 c 3.75,0 3.75,0.191 3.75,3.789 v 8.363 c 0,3.59 0,3.789 -3.75,3.789 z" /><path
         id="path134"
         style="fill:#44525c;fill-opacity:1;fill-rule:nonzero;stroke:none"
         d="m 3097.19,882.23 c -3.75,0 -3.95,-0.199 -3.95,-3.789 v -8.363 c 0,-3.598 0.2,-3.789 3.95,-3.789 h 38.86 c 3.75,0 3.75,0.191 3.75,3.789 v 8.363 c 0,3.59 0,3.789 -3.75,3.789 z" /><path
         id="path136"
         style="fill:#44525c;fill-opacity:1;fill-rule:nonzero;stroke:none"
         d="m 3140.94,882.23 c -3.75,0 -3.99,-0.199 -3.99,-3.789 v -8.363 c 0,-3.598 0.24,-3.789 3.99,-3.789 h 38.83 c 3.75,0 3.75,0.191 3.75,3.789 v 8.363 c 0,3.59 0,3.789 -3.75,3.789 z" /><path
         id="path138"
         style="fill:#44525c;fill-opacity:1;fill-rule:nonzero;stroke:none"
         d="m 3184.69,882.23 c -3.79,0 -3.99,-0.199 -3.99,-3.789 v -8.363 c 0,-3.598 0.2,-3.789 3.99,-3.789 h 38.83 c 3.75,0 3.75,0.191 3.75,3.789 v 8.363 c 0,3.59 0,3.789 -3.75,3.789 z" /><path
         id="path140"
         style="fill:#44525c;fill-opacity:1;fill-rule:nonzero;stroke:none"
         d="m 3228.4,882.23 c -3.75,0 -3.95,-0.199 -3.95,-3.789 v -8.363 c 0,-3.598 0.2,-3.789 3.95,-3.789 h 38.87 c 3.75,0 3.75,0.191 3.75,3.789 v 8.363 c 0,3.59 0,3.789 -3.75,3.789 z" /><path
         id="path142"
         style="fill:#44525c;fill-opacity:1;fill-rule:nonzero;stroke:none"
         d="m 3272.15,882.23 c -3.75,0 -3.99,-0.199 -3.99,-3.789 v -8.363 c 0,-3.598 0.24,-3.789 3.99,-3.789 h 38.83 c 3.75,0 3.75,0.191 3.75,3.789 v 8.363 c 0,3.59 0,3.789 -3.75,3.789 z" /><path
         id="path144"
         style="fill:#44525c;fill-opacity:1;fill-rule:nonzero;stroke:none"
         d="m 3378.52,866.289 c 12.73,0 40.07,-3.238 58.24,-26.559 1.29,-1.718 1.48,-1.718 4.18,-1.718 3.36,0 3.55,0 3.55,3.629 v 1.879 c -16.91,28.628 -44.45,38.71 -65.97,38.71 h -62.62 c -3.79,0 -3.99,-0.199 -3.99,-3.789 v -8.363 c 0,-3.598 0.2,-3.789 3.99,-3.789 z" /><path
         id="path146"
         style="fill:#f1f0e9;fill-opacity:1;fill-rule:nonzero;stroke:none"
         d="m 100.66,361.988 v 218.793 c 0,14.489 11.641,26.168 26.141,26.168 h 326.64 c 14.45,0 26.129,-11.679 26.129,-26.168 V 361.988 c 0,-14.488 -11.679,-26.168 -26.129,-26.168 h -326.64 c -14.5,0 -26.141,11.68 -26.141,26.168 z" /><path
         id="path148"
         style="fill:none;stroke:#44525c;stroke-width:2.07617998;stroke-linecap:round;stroke-linejoin:round;stroke-miterlimit:4;stroke-dasharray:none;stroke-opacity:1"
         d="m 100.66,361.988 v 218.793 c 0,14.489 11.641,26.168 26.141,26.168 h 326.64 c 14.45,0 26.129,-11.679 26.129,-26.168 V 361.988 c 0,-14.488 -11.679,-26.168 -26.129,-26.168 h -326.64 c -14.5,0 -26.141,11.68 -26.141,26.168 z" /><g
         transform="scale(10)"
         id="g150"><text
           id="text156"
           style="font-style:oblique;font-variant:normal;font-size:6px;font-family:'DejaVu Sans';-inkscape-font-specification:DejaVuSans-Oblique;writing-mode:lr-tb;fill:#000000;fill-opacity:1;fill-rule:nonzero;stroke:none"
           transform="matrix(1,0,0,-1,12.4719,49.2766)"><tspan
             id="tspan152"
             y="0"
             x="0 4.7220001 8.5319996 12.222 16.025999 18.191999 21.534 25.205999 28.878">Open-Loop</tspan><tspan
             id="tspan154"
             y="8.75"
             x="0.019140599 4.2071404 7.8851404 9.5531406 11.221141 15.03114 17.497141 21.17514 23.52714 25.195141 28.86714">Calibration</tspan></text>
</g><path
         id="path158"
         style="fill:#98c8f5;fill-opacity:1;fill-rule:nonzero;stroke:none"
         d="m 530.941,418.238 v 106.293 c 0,27.071 21.789,48.867 48.899,48.867 H 815 c 27.109,0 48.871,-21.796 48.871,-48.867 V 418.238 c 0,-27.066 -21.762,-48.859 -48.871,-48.859 H 579.84 c -27.11,0 -48.899,21.793 -48.899,48.859 z" /><path
         id="path160"
         style="fill:none;stroke:#44525c;stroke-width:2.02047992;stroke-linecap:round;stroke-linejoin:round;stroke-miterlimit:4;stroke-dasharray:none;stroke-opacity:1"
         d="m 530.941,418.238 v 106.293 c 0,27.071 21.789,48.867 48.899,48.867 H 815 c 27.109,0 48.871,-21.796 48.871,-48.867 V 418.238 c 0,-27.066 -21.762,-48.859 -48.871,-48.859 H 579.84 c -27.11,0 -48.899,21.793 -48.899,48.859 z" /><g
         transform="scale(10)"
         id="g162"><text
           id="text168"
           style="font-variant:normal;font-weight:normal;font-size:6px;font-family:'DejaVu Sans';-inkscape-font-specification:DejaVuSans;writing-mode:lr-tb;fill:#000000;fill-opacity:1;fill-rule:nonzero;stroke:none"
           transform="matrix(1,0,0,-1,61.243,49.2766)"><tspan
             id="tspan164"
             y="0"
             x="0 1.77 5.5739999 7.2420001 9.5939999 11.262 14.94">Initial</tspan><tspan
             id="tspan166"
             y="8.75"
             x="-4.32266 0.29734001 3.98734 7.2873402 10.95934 14.76934 18.459339">Decoder</tspan></text>
</g><path
         id="path170"
         style="fill:#f1f0e9;fill-opacity:1;fill-rule:nonzero;stroke:none"
         d="m 2412.23,364.961 v 212.848 c 0,16.101 12.97,29.07 29.06,29.07 h 363.01 c 16.09,0 29.06,-12.969 29.06,-29.07 V 364.961 c 0,-16.133 -12.97,-29.063 -29.06,-29.063 h -363.01 c -16.09,0 -29.06,12.93 -29.06,29.063 z" /><path
         id="path172"
         style="fill:none;stroke:#44525c;stroke-width:2.07617998;stroke-linecap:round;stroke-linejoin:round;stroke-miterlimit:4;stroke-dasharray:none;stroke-opacity:1"
         d="m 2412.23,364.961 v 212.848 c 0,16.101 12.97,29.07 29.06,29.07 h 363.01 c 16.09,0 29.06,-12.969 29.06,-29.07 V 364.961 c 0,-16.133 -12.97,-29.063 -29.06,-29.063 h -363.01 c -16.09,0 -29.06,12.93 -29.06,29.063 z" /><g
         transform="scale(10)"
         id="g174"><text
           id="text180"
           style="font-style:oblique;font-variant:normal;font-size:6px;font-family:'DejaVu Sans';-inkscape-font-specification:DejaVuSans-Oblique;writing-mode:lr-tb;fill:#000000;fill-opacity:1;fill-rule:nonzero;stroke:none"
           transform="matrix(1,0,0,-1,243.578,49.2766)"><tspan
             id="tspan176"
             y="0"
             x="0 4.1880002 5.8559999 9.5279999 12.654 16.344 20.153999 22.32 25.662001 29.334 33.006001">Closed-Loop</tspan><tspan
             id="tspan178"
             y="8.75"
             x="6.3164101 10.43241 15.61041 17.380409 19.28841 23.68041 26.80641">BMI Use</tspan></text>
</g><path
         id="path182"
         style="fill:#f1f0e9;fill-opacity:1;fill-rule:nonzero;stroke:none"
         d="m 1417.77,495.352 h 528.789 V 725.7 H 1417.77 Z" /><path
         id="path184"
         style="fill:none;stroke:#44525c;stroke-width:1.99387002;stroke-linecap:round;stroke-linejoin:round;stroke-miterlimit:4;stroke-dasharray:none;stroke-opacity:1"
         d="m 1417.77,495.352 h 528.789 V 725.7 H 1417.77 Z" /><g
         transform="scale(10)"
         id="g186"><text
           id="text192"
           style="font-variant:normal;font-weight:normal;font-size:6px;font-family:'DejaVu Sans';-inkscape-font-specification:DejaVuSans;writing-mode:lr-tb;fill:#000000;fill-opacity:1;fill-rule:nonzero;stroke:none"
           transform="matrix(1,0,0,-1,149.729,63.2438)"><tspan
             id="tspan188"
             y="0"
             x="0 4.1880002 5.8559999 9.5279999 12.654 16.344 20.153999 22.32 25.553991 29.225992 32.897991">Closed-Loop</tspan><tspan
             id="tspan190"
             y="8.75"
             x="2.0300801 6.21808 9.89608 11.56408 13.23208 17.04208 19.50808 23.186081 25.53808 27.206079 30.87808">Calibration</tspan></text>
</g><path
         id="path194"
         style="fill:#f1f0e9;fill-opacity:1;fill-rule:nonzero;stroke:none"
         d="m 1417.77,217.07 h 528.789 V 447.422 H 1417.77 Z" /><path
         id="path196"
         style="fill:none;stroke:#44525c;stroke-width:1.99387002;stroke-linecap:square;stroke-linejoin:miter;stroke-miterlimit:4;stroke-dasharray:none;stroke-opacity:1"
         d="m 1417.77,217.07 h 528.789 V 447.422 H 1417.77 Z" /><g
         transform="scale(10)"
         id="g198"><text
           id="text204"
           style="font-variant:normal;font-weight:normal;font-size:6px;font-family:'DejaVu Sans';-inkscape-font-specification:DejaVuSans;writing-mode:lr-tb;fill:#000000;fill-opacity:1;fill-rule:nonzero;stroke:none"
           transform="matrix(1,0,0,-1,152.289,35.9438)"><tspan
             id="tspan200"
             y="0"
             x="0 4.1160002 7.8060002 11.61 15.288 18.84 20.507999 24.18 26.646 30.323999">Behavioral</tspan><tspan
             id="tspan202"
             y="8.75"
             x="-5.6585898 -1.47059 2.2014101 8.0454102 11.85541 15.54541 19.349409 22.47541 26.15341 28.505409 30.17341 33.845409">Compensation</tspan></text>
</g><path
         id="path206"
         style="fill:#f1f0e9;fill-opacity:1;fill-rule:nonzero;stroke:none"
         d="m 2914.73,495.699 h 528.789 V 726.09 H 2914.73 Z" /><path
         id="path208"
         style="fill:none;stroke:#44525c;stroke-width:1.99387002;stroke-linecap:round;stroke-linejoin:round;stroke-miterlimit:4;stroke-dasharray:none;stroke-opacity:1"
         d="m 2914.73,495.699 h 528.789 V 726.09 H 2914.73 Z" /><g
         transform="scale(10)"
         id="g210"><text
           id="text216"
           style="font-variant:normal;font-weight:normal;font-size:6px;font-family:'DejaVu Sans';-inkscape-font-specification:DejaVuSans;writing-mode:lr-tb;fill:#000000;fill-opacity:1;fill-rule:nonzero;stroke:none"
           transform="matrix(1,0,0,-1,298.305,63.8098)"><tspan
             id="tspan212"
             y="0"
             x="0 3.899883 7.5898829 10.889883 14.567883 16.235884 17.903883 21.713882 24.179882 27.857883 30.209883 31.877884 35.549885">Recalibration</tspan><tspan
             id="tspan214"
             y="8.75"
             x="-0.028124999 4.651875 6.559875 10.555867 14.365868 18.043867 21.853867 24.205868 27.883867 30.235867 31.903868 35.575867">&amp; Adaptation</tspan></text>
</g><path
         id="path218"
         style="fill:#f1f0e9;fill-opacity:1;fill-rule:nonzero;stroke:none"
         d="m 2914.73,216.68 h 528.789 V 447.071 H 2914.73 Z" /><path
         id="path220"
         style="fill:none;stroke:#44525c;stroke-width:1.99387002;stroke-linecap:square;stroke-linejoin:miter;stroke-miterlimit:4;stroke-dasharray:none;stroke-opacity:1"
         d="m 2914.73,216.68 h 528.789 V 447.071 H 2914.73 Z" /><g
         transform="scale(10)"
         id="g222"><text
           id="text228"
           style="font-variant:normal;font-weight:normal;font-size:6px;font-family:'DejaVu Sans';-inkscape-font-specification:DejaVuSans;writing-mode:lr-tb;fill:#000000;fill-opacity:1;fill-rule:nonzero;stroke:none"
           transform="matrix(1,0,0,-1,308.081,35.9066)"><tspan
             id="tspan224"
             y="0"
             x="0 4.4879999 8.1780005 11.982 14.448 18.125999">Neural</tspan><tspan
             id="tspan226"
             y="8.75"
             x="-3.5918 0.0262 1.6942 5.3722 8.4982004 10.8502 12.5182 15.8182 17.4862 19.8382">Plasticity</tspan></text>
</g><path
         id="path230"
         style="fill:#98c8f5;fill-opacity:1;fill-rule:nonzero;stroke:none"
         d="m 2027.89,418.238 v 106.293 c 0,27.071 21.8,48.867 48.87,48.867 h 235.19 c 27.07,0 48.87,-21.796 48.87,-48.867 V 418.238 c 0,-27.066 -21.8,-48.859 -48.87,-48.859 h -235.19 c -27.07,0 -48.87,21.793 -48.87,48.859 z" /><path
         id="path232"
         style="fill:none;stroke:#44525c;stroke-width:2.02047992;stroke-linecap:round;stroke-linejoin:round;stroke-miterlimit:4;stroke-dasharray:none;stroke-opacity:1"
         d="m 2027.89,418.238 v 106.293 c 0,27.071 21.8,48.867 48.87,48.867 h 235.19 c 27.07,0 48.87,-21.796 48.87,-48.867 V 418.238 c 0,-27.066 -21.8,-48.859 -48.87,-48.859 h -235.19 c -27.07,0 -48.87,21.793 -48.87,48.859 z" /><g
         transform="scale(10)"
         id="g234"><text
           id="text240"
           style="font-variant:normal;font-weight:normal;font-size:6px;font-family:'DejaVu Sans';-inkscape-font-specification:DejaVuSans;writing-mode:lr-tb;fill:#000000;fill-opacity:1;fill-rule:nonzero;stroke:none"
           transform="matrix(1,0,0,-1,206.47,49.2766)"><tspan
             id="tspan236"
             y="0"
             x="0 4.3920002 8.2019997 12.012 15.69 18.042 21.732">Updated</tspan><tspan
             id="tspan238"
             y="8.75"
             x="0.144922 4.7649221 8.4549217 11.754922 15.426922 19.236921 22.926922">Decoder</tspan></text>
</g><path
         id="path242"
         style="fill:#f1f0e9;fill-opacity:1;fill-rule:nonzero;stroke:none"
         d="m 915.27,364.961 v 212.848 c 0,16.101 12.968,29.07 29.07,29.07 h 363 c 16.1,0 29.07,-12.969 29.07,-29.07 V 364.961 c 0,-16.133 -12.97,-29.063 -29.07,-29.063 h -363 c -16.102,0 -29.07,12.93 -29.07,29.063 z" /><path
         id="path244"
         style="fill:none;stroke:#44525c;stroke-width:2.07617998;stroke-linecap:round;stroke-linejoin:round;stroke-miterlimit:4;stroke-dasharray:none;stroke-opacity:1"
         d="m 915.27,364.961 v 212.848 c 0,16.101 12.968,29.07 29.07,29.07 h 363 c 16.1,0 29.07,-12.969 29.07,-29.07 V 364.961 c 0,-16.133 -12.97,-29.063 -29.07,-29.063 h -363 c -16.102,0 -29.07,12.93 -29.07,29.063 z" /><g
         transform="scale(10)"
         id="g246"><text
           id="text252"
           style="font-style:oblique;font-variant:normal;font-size:6px;font-family:'DejaVu Sans';-inkscape-font-specification:DejaVuSans-Oblique;writing-mode:lr-tb;fill:#000000;fill-opacity:1;fill-rule:nonzero;stroke:none"
           transform="matrix(1,0,0,-1,93.8836,49.2766)"><tspan
             id="tspan248"
             y="0"
             x="0 4.1880002 5.8559999 9.5279999 12.654 16.344 20.153999 22.32 25.662001 29.334 33.006001">Closed-Loop</tspan><tspan
             id="tspan250"
             y="8.75"
             x="6.3164101 10.43241 15.61041 17.380409 19.28841 23.68041 26.80641">BMI Use</tspan></text>
<text
           id="text258"
           style="font-variant:normal;font-weight:normal;font-size:6px;font-family:'DejaVu Sans';-inkscape-font-specification:DejaVuSans;writing-mode:lr-tb;fill:#000000;fill-opacity:1;fill-rule:nonzero;stroke:none"
           transform="matrix(0,-1,-1,0,356.576,39.902)"><tspan
             id="tspan254"
             y="0"
             x="0 4.3920002 7.5180001 11.208">User</tspan><tspan
             id="tspan256"
             y="7.5"
             x="-3.5476601 0.44833219 4.2583323 7.9363322 11.746332 14.098332">Adapts</tspan></text>
</g><path
         id="path260"
         style="fill:#44525c;fill-opacity:1;fill-rule:evenodd;stroke:none"
         d="m 2026.88,471.602 -28.21,-18.672 v 36.91 z" /><path
         id="path262"
         style="fill:none;stroke:#44525c;stroke-width:7.5244298;stroke-linecap:square;stroke-linejoin:round;stroke-miterlimit:4;stroke-dasharray:none;stroke-opacity:1"
         d="m 1980.2,471.371 c -8.21,0 -14.77,-14.18 -14.77,-31.84 v -12.152 c 0,-17.609 -6.6,-31.828 -14.81,-31.828" /><path
         id="path264"
         style="fill:none;stroke:#44525c;stroke-width:7.5244298;stroke-linecap:square;stroke-linejoin:round;stroke-miterlimit:4;stroke-dasharray:none;stroke-opacity:1"
         d="m 1980.2,471.41 c -8.21,0 -14.77,14.18 -14.77,31.828 v 12.114 c 0,17.66 -6.6,31.878 -14.81,31.878" /><path
         id="path266"
         style="fill:#44525c;fill-opacity:1;fill-rule:evenodd;stroke:none"
         d="m 2284.06,354.922 30.55,-46.133 h -60.35 z" /><path
         id="path268"
         style="fill:none;stroke:#44525c;stroke-width:4.50393009;stroke-linecap:butt;stroke-linejoin:round;stroke-miterlimit:4;stroke-dasharray:none;stroke-opacity:1"
         d="m 2351.33,136.02 c 17.58,-2 33.44,10.582 35.43,28.16 1.99,17.539 -10.59,33.398 -28.17,35.429" /><path
         id="path270"
         style="fill:#44525c;fill-opacity:1;fill-rule:nonzero;stroke:none"
         d="m 2353.95,127.73 0.93,8.09 0.9,8.09 -14.92,-6.488 6.52,-4.844 z" /><path
         id="path272"
         style="fill:none;stroke:#44525c;stroke-width:5.44974995;stroke-linecap:butt;stroke-linejoin:miter;stroke-miterlimit:4;stroke-dasharray:none;stroke-opacity:1"
         d="m 2353.94,127.73 0.94,8.086 0.9,8.086 -14.92,-6.48 6.52,-4.84 z" /><path
         id="path274"
         style="fill:none;stroke:#44525c;stroke-width:4.50393009;stroke-linecap:butt;stroke-linejoin:round;stroke-miterlimit:4;stroke-dasharray:none;stroke-opacity:1"
         d="m 2353.59,199.922 c -17.54,1.988 -33.39,-10.582 -35.39,-28.16 -2.03,-17.543 10.59,-33.403 28.13,-35.434" /><path
         id="path276"
         style="fill:#44525c;fill-opacity:1;fill-rule:nonzero;stroke:none"
         d="m 2349.26,191.879 0.9,8.082 0.93,8.09 6.57,-4.852 6.52,-4.84 z" /><path
         id="path278"
         style="fill:none;stroke:#44525c;stroke-width:5.44974995;stroke-linecap:butt;stroke-linejoin:miter;stroke-miterlimit:4;stroke-dasharray:none;stroke-opacity:1"
         d="m 2349.25,191.875 0.91,8.082 0.93,8.09 6.57,-4.844 6.52,-4.848 z" /><path
         id="path280"
         style="fill:none;stroke:#44525c;stroke-width:7.5374999;stroke-linecap:butt;stroke-linejoin:miter;stroke-miterlimit:4;stroke-dasharray:none;stroke-opacity:1"
         d="m 1980.2,471.371 h 23.71" /><g
         transform="scale(10)"
         id="g282"><text
           id="text288"
           style="font-variant:normal;font-weight:normal;font-size:6px;font-family:'DejaVu Sans';-inkscape-font-specification:DejaVuSans;writing-mode:lr-tb;fill:#000000;fill-opacity:1;fill-rule:nonzero;stroke:none"
           transform="matrix(0,-1,-1,0,356.497,66.498)"><tspan
             id="tspan284"
             y="0"
             x="0 4.1160002 9.2939997">BMI</tspan><tspan
             id="tspan286"
             y="7.5"
             x="-4.8543 -0.85830778 2.9516921 6.6296921 10.439692 12.791692">Adapts</tspan></text>
</g></g></g></svg>