<?xml version="1.0" encoding="UTF-8" standalone="no"?>
<!-- Created with Inkscape (http://www.inkscape.org/) -->

<svg
   xmlns:dc="http://purl.org/dc/elements/1.1/"
   xmlns:cc="http://creativecommons.org/ns#"
   xmlns:rdf="http://www.w3.org/1999/02/22-rdf-syntax-ns#"
   xmlns:svg="http://www.w3.org/2000/svg"
   xmlns="http://www.w3.org/2000/svg"
   xmlns:sodipodi="http://sodipodi.sourceforge.net/DTD/sodipodi-0.dtd"
   xmlns:inkscape="http://www.inkscape.org/namespaces/inkscape"
   width="76.416031mm"
   height="55.3615mm"
   viewBox="0 0 270.76547 196.16279"
   id="svg217130"
   version="1.1"
   inkscape:version="0.91 r13725"
   sodipodi:docname="cellophane_tape.svg">
  <defs
     id="defs217132" />
  <sodipodi:namedview
     id="base"
     pagecolor="#ffffff"
     bordercolor="#666666"
     borderopacity="1.0"
     inkscape:pageopacity="0.0"
     inkscape:pageshadow="2"
     inkscape:zoom="0.42826917"
     inkscape:cx="280.59231"
     inkscape:cy="620.10841"
     inkscape:document-units="px"
     inkscape:current-layer="layer1"
     showgrid="false"
     fit-margin-top="0"
     fit-margin-left="0"
     fit-margin-right="0"
     fit-margin-bottom="0"
     inkscape:window-width="1920"
     inkscape:window-height="1019"
     inkscape:window-x="0"
     inkscape:window-y="0"
     inkscape:window-maximized="1" />
  <metadata
     id="metadata217135">
    <rdf:RDF>
      <cc:Work
         rdf:about="">
        <dc:format>image/svg+xml</dc:format>
        <dc:type
           rdf:resource="http://purl.org/dc/dcmitype/StillImage" />
        <dc:title></dc:title>
      </cc:Work>
    </rdf:RDF>
  </metadata>
  <g
     inkscape:label="Layer 1"
     inkscape:groupmode="layer"
     id="layer1"
     transform="translate(-189.20443,-545.46984)">
    <g
       id="g217868">
      <path
         sodipodi:nodetypes="ccccscsscccssssscccccssc"
         inkscape:connector-curvature="0"
         d="m 437.14807,625.55985 0,-3.9091 16.41819,0.52121 -1.30306,4.69091 -14.59395,-1.04242 c -5.61008,-0.40072 -17.2,-8.3394 -17.2,-8.3394 0,0 -20.54952,38.55834 -34.66063,45.08488 -7.05556,3.26327 -13.37615,4.12137 -19.31904,3.51182 -5.9429,-0.60955 -11.5081,-2.68675 -17.0529,-5.29407 -2.62203,-0.94996 -4.48099,-4.39345 -6.10688,-7.07836 -13.23647,-20.92157 -8.48422,-37.62109 2.60609,-58.11519 4.25599,-7.90624 5.56505,-9.95412 8.50908,-13.72122 1.47202,-1.88355 2.44026,-2.25862 2.4912,-2.69194 0.051,-0.43332 -0.81532,-0.92488 -3.01242,-3.04139 -4.39413,-4.23304 -18.95166,-15.51797 -29.9697,-20.58789 -11.01803,-5.06993 -22.75315,-8.73937 -35.18182,-9.38183 -12.42867,-0.64246 -25.63984,1.73225 -37.78791,5.99395 -63.36202,21.0916 -70.82937,90.32421 -52.4016,142.36978 10.14117,25.46189 33.30292,39.9941 62.2849,42.17391 22.56892,1.65798 77.90453,6.49566 103.31071,3.2182 42.95227,-2.70488 80.25636,-39.60427 89.38793,-75.79214 2.36075,-10.48302 5.28092,-29.32598 2.08482,-35.18183 -3.19609,-5.85585 -0.98399,-2.22961 -4.16968,-2.34546 l -14.33333,-0.52121"
         style="fill:#eeeeee;fill-opacity:0.95196509;fill-rule:evenodd;stroke:#858585;stroke-width:1.18379855;stroke-linecap:butt;stroke-linejoin:miter;stroke-miterlimit:4;stroke-dasharray:none;stroke-opacity:1"
         id="path217732" />
      <path
         sodipodi:nodetypes="csssc"
         inkscape:connector-curvature="0"
         id="path217740-9"
         d="m 243.3583,692.54316 c -14.70892,-10.37483 -30.19612,-39.16519 -30.19612,-57.51612 0,-18.35093 7.43818,-34.96457 19.4641,-46.99048 12.02591,-12.02592 28.63955,-19.4641 46.99048,-19.4641 18.35093,0 41.98166,9.29565 54.21396,26.27481"
         style="fill:#ceeaea;fill-opacity:0.71372549;stroke:#000000;stroke-width:0.39459953;stroke-linecap:round;stroke-linejoin:round;stroke-miterlimit:4;stroke-dasharray:none;stroke-dashoffset:0;stroke-opacity:1" />
      <path
         sodipodi:nodetypes="cccc"
         inkscape:connector-curvature="0"
         id="path217761"
         d="m 423.14044,614.87499 15.63641,1.30303 15.33312,6.06601 -17.23194,-0.69987"
         style="fill:#3a3a3a;fill-opacity:1;fill-rule:evenodd;stroke:#000000;stroke-width:1.18379855;stroke-linecap:butt;stroke-linejoin:miter;stroke-miterlimit:4;stroke-dasharray:none;stroke-opacity:1" />
      <circle
         r="66.454582"
         cy="641.97803"
         cx="286.77829"
         id="path217740"
         style="fill:#d0f4f4;fill-opacity:0.71372549;stroke:#000000;stroke-width:0.39459953;stroke-linecap:round;stroke-linejoin:round;stroke-miterlimit:4;stroke-dasharray:none;stroke-dashoffset:0;stroke-opacity:1" />
      <circle
         r="47.951538"
         cy="641.97803"
         cx="286.77829"
         id="path217738"
         style="fill:#49556a;fill-opacity:1;stroke:#000000;stroke-width:0.39459953;stroke-linecap:round;stroke-linejoin:round;stroke-miterlimit:4;stroke-dasharray:none;stroke-dashoffset:0;stroke-opacity:1" />
      <circle
         r="23.193953"
         cy="641.97803"
         cx="286.77829"
         id="path217734"
         style="fill:#eaf9f9;fill-opacity:1;stroke:#000000;stroke-width:0.39459953;stroke-linecap:round;stroke-linejoin:round;stroke-miterlimit:4;stroke-dasharray:none;stroke-dashoffset:0;stroke-opacity:1" />
      <circle
         r="23.193953"
         cy="638.60162"
         cx="280.70648"
         id="path217734-9"
         style="fill:#fdfdfd;fill-opacity:1;stroke:#000000;stroke-width:0.39459953;stroke-linecap:round;stroke-linejoin:round;stroke-miterlimit:4;stroke-dasharray:none;stroke-dashoffset:0;stroke-opacity:1" />
      <path
         transform="translate(189.20443,545.46984)"
         id="path217736"
         d="M 97.574219 59.763672 A 36.745476 36.745476 0 0 0 60.828125 96.507812 A 36.745476 36.745476 0 0 0 97.574219 133.25391 A 36.745476 36.745476 0 0 0 134.31836 96.507812 A 36.745476 36.745476 0 0 0 97.574219 59.763672 z M 97.574219 73.314453 A 23.193953 23.193953 0 0 1 120.76758 96.507812 A 23.193953 23.193953 0 0 1 97.574219 119.70117 A 23.193953 23.193953 0 0 1 74.380859 96.507812 A 23.193953 23.193953 0 0 1 97.574219 73.314453 z "
         style="fill:#8cbbc5;fill-opacity:1;stroke:#000000;stroke-width:0.39459953;stroke-linecap:round;stroke-linejoin:round;stroke-miterlimit:4;stroke-dasharray:none;stroke-dashoffset:0;stroke-opacity:1" />
      <path
         sodipodi:nodetypes="ccc"
         inkscape:connector-curvature="0"
         id="path217759"
         d="m 421.44652,617.35075 1.98944,-2.32965 13.84239,6.57704"
         style="fill:none;fill-rule:evenodd;stroke:#000000;stroke-width:1.18379855;stroke-linecap:butt;stroke-linejoin:miter;stroke-miterlimit:4;stroke-dasharray:none;stroke-opacity:1" />
      <path
         sodipodi:nodetypes="scccccczsccccscs"
         inkscape:connector-curvature="0"
         id="path217724-2"
         d="m 353.92375,576.13558 c -4.39413,-4.23304 -18.95166,-15.51797 -29.9697,-20.58789 -25.42036,-11.15937 -48.34695,-11.85034 -72.96973,-3.38788 -63.36202,21.0916 -70.82937,90.3242 -52.4016,142.36978 10.14117,25.46189 33.30292,39.9941 62.2849,42.17391 22.56892,1.65798 77.90453,6.49566 103.31071,3.2182 42.95221,-2.70488 80.25646,-39.60426 89.38789,-75.79214 2.36079,-10.48302 5.28096,-29.32599 2.08486,-35.18183 -3.19609,-5.85585 -0.98399,-2.22961 -4.16968,-2.34546 l -14.33333,-0.52121 c -7.25488,9.83604 -14.07032,21.27308 -21.88629,30.52653 -20.72027,24.27462 -55.90662,23.17761 -71.93198,-2.90227 -13.23647,-20.92156 -8.48422,-37.62109 2.60609,-58.11518 4.25599,-7.90625 5.56505,-9.95413 8.50908,-13.72123 1.47202,-1.88355 2.44026,-2.25862 2.4912,-2.69194 0.051,-0.43332 -0.81532,-0.92488 -3.01242,-3.04139 z"
         style="fill:none;fill-opacity:0.95196509;fill-rule:evenodd;stroke:#888888;stroke-width:1.18379855;stroke-linecap:butt;stroke-linejoin:miter;stroke-miterlimit:4;stroke-dasharray:none;stroke-opacity:1" />
      <path
         inkscape:connector-curvature="0"
         id="path217726-5"
         d="m 418.41797,679.5293 a 2.3678339,2.3678339 0 0 0 -2.13281,1.13476 c -18.11694,28.81403 -50.87762,43.50755 -72.7461,43.52149 -11.2218,0.007 -31.13272,-1.63738 -49.67187,-3.26367 -18.53916,-1.6263 -35.51231,-3.24535 -42.11328,-3.12305 a 2.3678339,2.3678339 0 1 0 0.0879,4.73437 c 5.60899,-0.10392 23.05689,1.47783 41.61132,3.10547 18.55444,1.62764 38.40874,3.29071 50.08985,3.28321 23.93737,-0.0153 57.66649,-15.38388 76.75195,-45.73829 a 2.3678339,2.3678339 0 0 0 -1.87695,-3.65429 z"
         style="color:#000000;font-style:normal;font-variant:normal;font-weight:normal;font-stretch:normal;font-size:medium;line-height:normal;font-family:sans-serif;text-indent:0;text-align:start;text-decoration:none;text-decoration-line:none;text-decoration-style:solid;text-decoration-color:#000000;letter-spacing:normal;word-spacing:normal;text-transform:none;direction:ltr;block-progression:tb;writing-mode:lr-tb;baseline-shift:baseline;text-anchor:start;white-space:normal;clip-rule:nonzero;display:inline;overflow:visible;visibility:visible;opacity:1;isolation:auto;mix-blend-mode:normal;color-interpolation:sRGB;color-interpolation-filters:linearRGB;solid-color:#000000;solid-opacity:1;fill:#ffffff;fill-opacity:1;fill-rule:evenodd;stroke:#b4b4b4;stroke-width:0.5;stroke-linecap:round;stroke-linejoin:round;stroke-miterlimit:4;stroke-dasharray:none;stroke-dashoffset:0;stroke-opacity:1;color-rendering:auto;image-rendering:auto;shape-rendering:auto;text-rendering:auto;enable-background:accumulate" />
      <path
         sodipodi:nodetypes="czzzzzzzzzzzzzzc"
         inkscape:connector-curvature="0"
         id="path217757"
         d="m 351.97857,628.99178 c 0.75952,1.54805 3.95704,3.12128 6.81824,4.42263 2.8612,1.30136 5.53144,2.30848 9.9286,2.55752 4.39713,0.24903 9.8436,-1.31734 15.4792,-2.57987 5.6356,-1.26253 12.43401,-3.694 18.24336,-5.15974 5.80934,-1.46574 11.69542,-2.7534 16.58489,-3.68553 4.88946,-0.93213 6.74466,-1.60215 12.71508,-2.02704 5.97043,-0.42489 18.37582,1.08636 23.03455,0.36855 4.6587,-0.7178 5.07429,0.76299 4.97547,-1.65848 -0.0988,-2.42148 -4.15172,-3.48452 -9.02954,-4.23102 -4.87787,-0.7465 -13.85949,-1.38398 -22.55073,-1.81115 -8.69124,-0.42716 -22.07596,1.77467 -29.59953,1.43526 -7.52353,-0.33942 -8.73743,-1.45753 -13.26789,-0.73711 -4.53047,0.72042 -8.29544,3.36536 -13.26789,5.15974 -4.97246,1.79438 -13.08873,5.05023 -16.5849,5.52829 -3.49612,0.47806 -3.36781,-1.32145 -4.10901,-0.67291"
         style="fill:#d0f4f4;fill-opacity:0.71179038;fill-rule:evenodd;stroke:#000000;stroke-width:0.39459953;stroke-linecap:butt;stroke-linejoin:miter;stroke-miterlimit:4;stroke-dasharray:none;stroke-opacity:1" />
    </g>
  </g>
</svg>
